Terminalia-Light.ufo
<glyph name="exclam" format="2">
  <advance width="500"/>
  <unicode hex="0021"/>
  <outline>
    <contour>
      <point x="217" y="186" type="line"/>
      <point x="279" y="186" type="line"/>
      <point x="279" y="620" type="line"/>
      <point x="217" y="620" type="line"/>
    </contour>
    <contour>
      <point x="217" y="0" type="line"/>
      <point x="279" y="0" type="line"/>
      <point x="279" y="124" type="line"/>
      <point x="217" y="124" type="line"/>
    </contour>
  </outline>
</glyph>
<glyph name="quotedbl" format="2">
  <advance width="500"/>
  <unicode hex="0022"/>
  <outline>
    <contour>
      <point x="124" y="527" type="line"/>
      <point x="186" y="527" type="line"/>
      <point x="186" y="713" type="line"/>
      <point x="124" y="713" type="line"/>
    </contour>
    <contour>
      <point x="310" y="527" type="line"/>
      <point x="372" y="527" type="line"/>
      <point x="372" y="713" type="line"/>
      <point x="310" y="713" type="line"/>
    </contour>
  </outline>
</glyph>
<glyph name="numbersign" format="2">
  <advance width="500"/>
  <unicode hex="0023"/>
  <outline>
    <contour>
      <point x="62" y="155" type="line"/>
      <point x="124" y="155" type="line"/>
      <point x="124" y="0" type="line"/>
      <point x="186" y="0" type="line"/>
      <point x="186" y="155" type="line"/>
      <point x="310" y="155" type="line"/>
      <point x="310" y="0" type="line"/>
      <point x="372" y="0" type="line"/>
      <point x="372" y="155" type="line"/>
      <point x="434" y="155" type="line"/>
      <point x="434" y="217" type="line"/>
      <point x="372" y="217" type="line"/>
      <point x="372" y="403" type="line"/>
      <point x="434" y="403" type="line"/>
      <point x="434" y="465" type="line"/>
      <point x="372" y="465" type="line"/>
      <point x="372" y="620" type="line"/>
      <point x="310" y="620" type="line"/>
      <point x="310" y="465" type="line"/>
      <point x="186" y="465" type="line"/>
      <point x="186" y="620" type="line"/>
      <point x="124" y="620" type="line"/>
      <point x="124" y="465" type="line"/>
      <point x="62" y="465" type="line"/>
      <point x="62" y="403" type="line"/>
      <point x="124" y="403" type="line"/>
      <point x="124" y="217" type="line"/>
      <point x="62" y="217" type="line"/>
    </contour>
    <contour>
      <point x="186" y="217" type="line"/>
      <point x="186" y="403" type="line"/>
      <point x="310" y="403" type="line"/>
      <point x="310" y="217" type="line"/>
    </contour>
  </outline>
</glyph>
<glyph name="dollar" format="2">
  <advance width="500"/>
  <unicode hex="0024"/>
  <outline>
    <contour>
      <point x="62" y="93" type="line"/>
      <point x="93" y="93" type="line"/>
      <point x="93" y="62" type="line"/>
      <point x="124" y="62" type="line"/>
      <point x="124" y="31" type="line"/>
      <point x="217" y="31" type="line"/>
      <point x="217" y="-31" type="line"/>
      <point x="279" y="-31" type="line"/>
      <point x="279" y="31" type="line"/>
      <point x="372" y="31" type="line"/>
      <point x="372" y="62" type="line"/>
      <point x="403" y="62" type="line"/>
      <point x="403" y="93" type="line"/>
      <point x="434" y="93" type="line"/>
      <point x="434" y="279" type="line"/>
      <point x="403" y="279" type="line"/>
      <point x="403" y="310" type="line"/>
      <point x="372" y="310" type="line"/>
      <point x="372" y="341" type="line"/>
      <point x="279" y="341" type="line"/>
      <point x="279" y="527" type="line"/>
      <point x="372" y="527" type="line"/>
      <point x="372" y="465" type="line"/>
      <point x="434" y="465" type="line"/>
      <point x="434" y="527" type="line"/>
      <point x="403" y="527" type="line"/>
      <point x="403" y="558" type="line"/>
      <point x="372" y="558" type="line"/>
      <point x="372" y="589" type="line"/>
      <point x="279" y="589" type="line"/>
      <point x="279" y="651" type="line"/>
      <point x="217" y="651" type="line"/>
      <point x="217" y="589" type="line"/>
      <point x="124" y="589" type="line"/>
      <point x="124" y="558" type="line"/>
      <point x="93" y="558" type="line"/>
      <point x="93" y="527" type="line"/>
      <point x="62" y="527" type="line"/>
      <point x="62" y="341" type="line"/>
      <point x="93" y="341" type="line"/>
      <point x="93" y="310" type="line"/>
      <point x="124" y="310" type="line"/>
      <point x="124" y="279" type="line"/>
      <point x="217" y="279" type="line"/>
      <point x="217" y="93" type="line"/>
      <point x="124" y="93" type="line"/>
      <point x="124" y="155" type="line"/>
      <point x="62" y="155" type="line"/>
    </contour>
    <contour>
      <point x="124" y="341" type="line"/>
      <point x="124" y="527" type="line"/>
      <point x="217" y="527" type="line"/>
      <point x="217" y="341" type="line"/>
    </contour>
    <contour>
      <point x="279" y="93" type="line"/>
      <point x="279" y="279" type="line"/>
      <point x="372" y="279" type="line"/>
      <point x="372" y="93" type="line"/>
    </contour>
  </outline>
</glyph>
<glyph name="percent" format="2">
  <advance width="500"/>
  <unicode hex="0025"/>
  <outline>
    <contour>
      <point x="62" y="465" type="line"/>
      <point x="93" y="465" type="line"/>
      <point x="93" y="434" type="line"/>
      <point x="217" y="434" type="line"/>
      <point x="217" y="465" type="line"/>
      <point x="248" y="465" type="line"/>
      <point x="248" y="589" type="line"/>
      <point x="217" y="589" type="line"/>
      <point x="217" y="620" type="line"/>
      <point x="93" y="620" type="line"/>
      <point x="93" y="589" type="line"/>
      <point x="62" y="589" type="line"/>
    </contour>
    <contour>
      <point x="124" y="496" type="line"/>
      <point x="124" y="558" type="line"/>
      <point x="186" y="558" type="line"/>
      <point x="186" y="496" type="line"/>
    </contour>
    <contour>
      <point x="62" y="0" type="line"/>
      <point x="124" y="0" type="line"/>
      <point x="124" y="62" type="line"/>
      <point x="155" y="62" type="line"/>
      <point x="155" y="124" type="line"/>
      <point x="186" y="124" type="line"/>
      <point x="186" y="186" type="line"/>
      <point x="217" y="186" type="line"/>
      <point x="217" y="248" type="line"/>
      <point x="248" y="248" type="line"/>
      <point x="248" y="310" type="line"/>
      <point x="279" y="310" type="line"/>
      <point x="279" y="372" type="line"/>
      <point x="310" y="372" type="line"/>
      <point x="310" y="434" type="line"/>
      <point x="341" y="434" type="line"/>
      <point x="341" y="496" type="line"/>
      <point x="372" y="496" type="line"/>
      <point x="372" y="558" type="line"/>
      <point x="403" y="558" type="line"/>
      <point x="403" y="620" type="line"/>
      <point x="341" y="620" type="line"/>
      <point x="341" y="558" type="line"/>
      <point x="310" y="558" type="line"/>
      <point x="310" y="496" type="line"/>
      <point x="279" y="496" type="line"/>
      <point x="279" y="434" type="line"/>
      <point x="248" y="434" type="line"/>
      <point x="248" y="372" type="line"/>
      <point x="217" y="372" type="line"/>
      <point x="217" y="310" type="line"/>
      <point x="186" y="310" type="line"/>
      <point x="186" y="248" type="line"/>
      <point x="155" y="248" type="line"/>
      <point x="155" y="186" type="line"/>
      <point x="124" y="186" type="line"/>
      <point x="124" y="124" type="line"/>
      <point x="93" y="124" type="line"/>
      <point x="93" y="62" type="line"/>
      <point x="62" y="62" type="line"/>
    </contour>
    <contour>
      <point x="217" y="31" type="line"/>
      <point x="248" y="31" type="line"/>
      <point x="248" y="0" type="line"/>
      <point x="372" y="0" type="line"/>
      <point x="372" y="31" type="line"/>
      <point x="403" y="31" type="line"/>
      <point x="403" y="155" type="line"/>
      <point x="372" y="155" type="line"/>
      <point x="372" y="186" type="line"/>
      <point x="248" y="186" type="line"/>
      <point x="248" y="155" type="line"/>
      <point x="217" y="155" type="line"/>
    </contour>
    <contour>
      <point x="279" y="62" type="line"/>
      <point x="279" y="124" type="line"/>
      <point x="341" y="124" type="line"/>
      <point x="341" y="62" type="line"/>
    </contour>
  </outline>
</glyph>
<glyph name="ampersand" format="2">
  <advance width="500"/>
  <unicode hex="0026"/>
  <outline>
    <contour>
      <point x="31" y="62" type="line"/>
      <point x="62" y="62" type="line"/>
      <point x="62" y="31" type="line"/>
      <point x="93" y="31" type="line"/>
      <point x="93" y="0" type="line"/>
      <point x="279" y="0" type="line"/>
      <point x="279" y="31" type="line"/>
      <point x="310" y="31" type="line"/>
      <point x="310" y="62" type="line"/>
      <point x="372" y="62" type="line"/>
      <point x="372" y="0" type="line"/>
      <point x="434" y="0" type="line"/>
      <point x="434" y="62" type="line"/>
      <point x="403" y="62" type="line"/>
      <point x="403" y="93" type="line"/>
      <point x="372" y="93" type="line"/>
      <point x="372" y="217" type="line"/>
      <point x="403" y="217" type="line"/>
      <point x="403" y="248" type="line"/>
      <point x="434" y="248" type="line"/>
      <point x="434" y="310" type="line"/>
      <point x="372" y="310" type="line"/>
      <point x="372" y="248" type="line"/>
      <point x="310" y="248" type="line"/>
      <point x="310" y="279" type="line"/>
      <point x="279" y="279" type="line"/>
      <point x="279" y="310" type="line"/>
      <point x="248" y="310" type="line"/>
      <point x="248" y="341" type="line"/>
      <point x="279" y="341" type="line"/>
      <point x="279" y="372" type="line"/>
      <point x="310" y="372" type="line"/>
      <point x="310" y="403" type="line"/>
      <point x="341" y="403" type="line"/>
      <point x="341" y="558" type="line"/>
      <point x="310" y="558" type="line"/>
      <point x="310" y="589" type="line"/>
      <point x="279" y="589" type="line"/>
      <point x="279" y="620" type="line"/>
      <point x="124" y="620" type="line"/>
      <point x="124" y="589" type="line"/>
      <point x="93" y="589" type="line"/>
      <point x="93" y="558" type="line"/>
      <point x="62" y="558" type="line"/>
      <point x="62" y="403" type="line"/>
      <point x="93" y="403" type="line"/>
      <point x="93" y="372" type="line"/>
      <point x="124" y="372" type="line"/>
      <point x="124" y="310" type="line"/>
      <point x="93" y="310" type="line"/>
      <point x="93" y="279" type="line"/>
      <point x="62" y="279" type="line"/>
      <point x="62" y="248" type="line"/>
      <point x="31" y="248" type="line"/>
    </contour>
    <contour>
      <point x="124" y="403" type="line"/>
      <point x="124" y="558" type="line"/>
      <point x="279" y="558" type="line"/>
      <point x="279" y="403" type="line"/>
      <point x="248" y="403" type="line"/>
      <point x="248" y="372" type="line"/>
      <point x="155" y="372" type="line"/>
      <point x="155" y="403" type="line"/>
    </contour>
    <contour>
      <point x="93" y="62" type="line"/>
      <point x="93" y="248" type="line"/>
      <point x="124" y="248" type="line"/>
      <point x="124" y="279" type="line"/>
      <point x="248" y="279" type="line"/>
      <point x="248" y="248" type="line"/>
      <point x="279" y="248" type="line"/>
      <point x="279" y="217" type="line"/>
      <point x="310" y="217" type="line"/>
      <point x="310" y="93" type="line"/>
      <point x="279" y="93" type="line"/>
      <point x="279" y="62" type="line"/>
    </contour>
  </outline>
</glyph>
<glyph name="quotesingle" format="2">
  <advance width="500"/>
  <unicode hex="0027"/>
  <outline>
    <contour>
      <point x="186" y="527" type="line"/>
      <point x="248" y="527" type="line"/>
      <point x="248" y="589" type="line"/>
      <point x="279" y="589" type="line"/>
      <point x="279" y="713" type="line"/>
      <point x="217" y="713" type="line"/>
      <point x="217" y="589" type="line"/>
      <point x="186" y="589" type="line"/>
    </contour>
  </outline>
</glyph>
<glyph name="parenleft" format="2">
  <advance width="500"/>
  <unicode hex="0028"/>
  <outline>
    <contour>
      <point x="155" y="155" type="line"/>
      <point x="186" y="155" type="line"/>
      <point x="186" y="93" type="line"/>
      <point x="217" y="93" type="line"/>
      <point x="217" y="62" type="line"/>
      <point x="248" y="62" type="line"/>
      <point x="248" y="31" type="line"/>
      <point x="279" y="31" type="line"/>
      <point x="279" y="0" type="line"/>
      <point x="341" y="0" type="line"/>
      <point x="341" y="31" type="line"/>
      <point x="310" y="31" type="line"/>
      <point x="310" y="62" type="line"/>
      <point x="279" y="62" type="line"/>
      <point x="279" y="93" type="line"/>
      <point x="248" y="93" type="line"/>
      <point x="248" y="155" type="line"/>
      <point x="217" y="155" type="line"/>
      <point x="217" y="465" type="line"/>
      <point x="248" y="465" type="line"/>
      <point x="248" y="527" type="line"/>
      <point x="279" y="527" type="line"/>
      <point x="279" y="558" type="line"/>
      <point x="310" y="558" type="line"/>
      <point x="310" y="589" type="line"/>
      <point x="341" y="589" type="line"/>
      <point x="341" y="620" type="line"/>
      <point x="279" y="620" type="line"/>
      <point x="279" y="589" type="line"/>
      <point x="248" y="589" type="line"/>
      <point x="248" y="558" type="line"/>
      <point x="217" y="558" type="line"/>
      <point x="217" y="527" type="line"/>
      <point x="186" y="527" type="line"/>
      <point x="186" y="465" type="line"/>
      <point x="155" y="465" type="line"/>
    </contour>
  </outline>
</glyph>
<glyph name="parenright" format="2">
  <advance width="500"/>
  <unicode hex="0029"/>
  <outline>
    <contour>
      <point x="155" y="0" type="line"/>
      <point x="217" y="0" type="line"/>
      <point x="217" y="31" type="line"/>
      <point x="248" y="31" type="line"/>
      <point x="248" y="62" type="line"/>
      <point x="279" y="62" type="line"/>
      <point x="279" y="93" type="line"/>
      <point x="310" y="93" type="line"/>
      <point x="310" y="155" type="line"/>
      <point x="341" y="155" type="line"/>
      <point x="341" y="465" type="line"/>
      <point x="310" y="465" type="line"/>
      <point x="310" y="527" type="line"/>
      <point x="279" y="527" type="line"/>
      <point x="279" y="558" type="line"/>
      <point x="248" y="558" type="line"/>
      <point x="248" y="589" type="line"/>
      <point x="217" y="589" type="line"/>
      <point x="217" y="620" type="line"/>
      <point x="155" y="620" type="line"/>
      <point x="155" y="589" type="line"/>
      <point x="186" y="589" type="line"/>
      <point x="186" y="558" type="line"/>
      <point x="217" y="558" type="line"/>
      <point x="217" y="527" type="line"/>
      <point x="248" y="527" type="line"/>
      <point x="248" y="465" type="line"/>
      <point x="279" y="465" type="line"/>
      <point x="279" y="155" type="line"/>
      <point x="248" y="155" type="line"/>
      <point x="248" y="93" type="line"/>
      <point x="217" y="93" type="line"/>
      <point x="217" y="62" type="line"/>
      <point x="186" y="62" type="line"/>
      <point x="186" y="31" type="line"/>
      <point x="155" y="31" type="line"/>
    </contour>
  </outline>
</glyph>
<glyph name="asterisk" format="2">
  <advance width="500"/>
  <unicode hex="002A"/>
  <outline>
    <contour>
      <point x="62" y="124" type="line"/>
      <point x="155" y="124" type="line"/>
      <point x="155" y="155" type="line"/>
      <point x="186" y="155" type="line"/>
      <point x="186" y="186" type="line"/>
      <point x="217" y="186" type="line"/>
      <point x="217" y="217" type="line"/>
      <point x="248" y="217" type="line"/>
      <point x="248" y="186" type="line"/>
      <point x="279" y="186" type="line"/>
      <point x="279" y="155" type="line"/>
      <point x="310" y="155" type="line"/>
      <point x="310" y="124" type="line"/>
      <point x="403" y="124" type="line"/>
      <point x="403" y="155" type="line"/>
      <point x="372" y="155" type="line"/>
      <point x="372" y="186" type="line"/>
      <point x="341" y="186" type="line"/>
      <point x="341" y="217" type="line"/>
      <point x="310" y="217" type="line"/>
      <point x="310" y="248" type="line"/>
      <point x="279" y="248" type="line"/>
      <point x="279" y="279" type="line"/>
      <point x="434" y="279" type="line"/>
      <point x="434" y="341" type="line"/>
      <point x="279" y="341" type="line"/>
      <point x="279" y="372" type="line"/>
      <point x="310" y="372" type="line"/>
      <point x="310" y="403" type="line"/>
      <point x="341" y="403" type="line"/>
      <point x="341" y="434" type="line"/>
      <point x="372" y="434" type="line"/>
      <point x="372" y="465" type="line"/>
      <point x="403" y="465" type="line"/>
      <point x="403" y="496" type="line"/>
      <point x="310" y="496" type="line"/>
      <point x="310" y="465" type="line"/>
      <point x="279" y="465" type="line"/>
      <point x="279" y="434" type="line"/>
      <point x="248" y="434" type="line"/>
      <point x="248" y="403" type="line"/>
      <point x="217" y="403" type="line"/>
      <point x="217" y="434" type="line"/>
      <point x="186" y="434" type="line"/>
      <point x="186" y="465" type="line"/>
      <point x="155" y="465" type="line"/>
      <point x="155" y="496" type="line"/>
      <point x="62" y="496" type="line"/>
      <point x="62" y="465" type="line"/>
      <point x="93" y="465" type="line"/>
      <point x="93" y="434" type="line"/>
      <point x="124" y="434" type="line"/>
      <point x="124" y="403" type="line"/>
      <point x="155" y="403" type="line"/>
      <point x="155" y="372" type="line"/>
      <point x="186" y="372" type="line"/>
      <point x="186" y="341" type="line"/>
      <point x="31" y="341" type="line"/>
      <point x="31" y="279" type="line"/>
      <point x="186" y="279" type="line"/>
      <point x="186" y="248" type="line"/>
      <point x="155" y="248" type="line"/>
      <point x="155" y="217" type="line"/>
      <point x="124" y="217" type="line"/>
      <point x="124" y="186" type="line"/>
      <point x="93" y="186" type="line"/>
      <point x="93" y="155" type="line"/>
      <point x="62" y="155" type="line"/>
    </contour>
  </outline>
</glyph>
<glyph name="comma" format="2">
  <advance width="500"/>
  <unicode hex="002C"/>
  <outline>
    <contour>
      <point x="155" y="-62" type="line"/>
      <point x="217" y="-62" type="line"/>
      <point x="217" y="-31" type="line"/>
      <point x="248" y="-31" type="line"/>
      <point x="248" y="0" type="line"/>
      <point x="279" y="0" type="line"/>
      <point x="279" y="124" type="line"/>
      <point x="217" y="124" type="line"/>
      <point x="217" y="0" type="line"/>
      <point x="186" y="0" type="line"/>
      <point x="186" y="-31" type="line"/>
      <point x="155" y="-31" type="line"/>
    </contour>
  </outline>
</glyph>
<glyph name="hyphen" format="2">
  <advance width="500"/>
  <unicode hex="002D"/>
  <outline>
    <contour>
      <point x="62" y="279" type="line"/>
      <point x="434" y="279" type="line"/>
      <point x="434" y="341" type="line"/>
      <point x="62" y="341" type="line"/>
    </contour>
  </outline>
</glyph>
<glyph name="one" format="2">
  <advance width="500"/>
  <unicode hex="0031"/>
  <outline>
    <contour>
      <point x="124" y="0" type="line"/>
      <point x="372" y="0" type="line"/>
      <point x="372" y="62" type="line"/>
      <point x="279" y="62" type="line"/>
      <point x="279" y="620" type="line"/>
      <point x="217" y="620" type="line"/>
      <point x="217" y="589" type="line"/>
      <point x="186" y="589" type="line"/>
      <point x="186" y="558" type="line"/>
      <point x="155" y="558" type="line"/>
      <point x="155" y="527" type="line"/>
      <point x="124" y="527" type="line"/>
      <point x="124" y="465" type="line"/>
      <point x="186" y="465" type="line"/>
      <point x="186" y="527" type="line"/>
      <point x="217" y="527" type="line"/>
      <point x="217" y="62" type="line"/>
      <point x="124" y="62" type="line"/>
    </contour>
  </outline>
</glyph>
<glyph name="two" format="2">
  <advance width="500"/>
  <unicode hex="0032"/>
  <outline>
    <contour>
      <point x="62" y="0" type="line"/>
      <point x="434" y="0" type="line"/>
      <point x="434" y="62" type="line"/>
      <point x="124" y="62" type="line"/>
      <point x="124" y="93" type="line"/>
      <point x="155" y="93" type="line"/>
      <point x="155" y="124" type="line"/>
      <point x="186" y="124" type="line"/>
      <point x="186" y="155" type="line"/>
      <point x="217" y="155" type="line"/>
      <point x="217" y="186" type="line"/>
      <point x="248" y="186" type="line"/>
      <point x="248" y="217" type="line"/>
      <point x="279" y="217" type="line"/>
      <point x="279" y="248" type="line"/>
      <point x="310" y="248" type="line"/>
      <point x="310" y="279" type="line"/>
      <point x="341" y="279" type="line"/>
      <point x="341" y="310" type="line"/>
      <point x="372" y="310" type="line"/>
      <point x="372" y="341" type="line"/>
      <point x="403" y="341" type="line"/>
      <point x="403" y="372" type="line"/>
      <point x="434" y="372" type="line"/>
      <point x="434" y="558" type="line"/>
      <point x="403" y="558" type="line"/>
      <point x="403" y="589" type="line"/>
      <point x="372" y="589" type="line"/>
      <point x="372" y="620" type="line"/>
      <point x="124" y="620" type="line"/>
      <point x="124" y="589" type="line"/>
      <point x="93" y="589" type="line"/>
      <point x="93" y="558" type="line"/>
      <point x="62" y="558" type="line"/>
      <point x="62" y="403" type="line"/>
      <point x="124" y="403" type="line"/>
      <point x="124" y="558" type="line"/>
      <point x="372" y="558" type="line"/>
      <point x="372" y="372" type="line"/>
      <point x="341" y="372" type="line"/>
      <point x="341" y="341" type="line"/>
      <point x="310" y="341" type="line"/>
      <point x="310" y="310" type="line"/>
      <point x="279" y="310" type="line"/>
      <point x="279" y="279" type="line"/>
      <point x="248" y="279" type="line"/>
      <point x="248" y="248" type="line"/>
      <point x="217" y="248" type="line"/>
      <point x="217" y="217" type="line"/>
      <point x="186" y="217" type="line"/>
      <point x="186" y="186" type="line"/>
      <point x="155" y="186" type="line"/>
      <point x="155" y="155" type="line"/>
      <point x="124" y="155" type="line"/>
      <point x="124" y="124" type="line"/>
      <point x="93" y="124" type="line"/>
      <point x="93" y="93" type="line"/>
      <point x="62" y="93" type="line"/>
    </contour>
  </outline>
</glyph>
<glyph name="three" format="2">
  <advance width="500"/>
  <unicode hex="0033"/>
  <outline>
    <contour>
      <point x="62" y="62" type="line"/>
      <point x="93" y="62" type="line"/>
      <point x="93" y="31" type="line"/>
      <point x="124" y="31" type="line"/>
      <point x="124" y="0" type="line"/>
      <point x="372" y="0" type="line"/>
      <point x="372" y="31" type="line"/>
      <point x="403" y="31" type="line"/>
      <point x="403" y="62" type="line"/>
      <point x="434" y="62" type="line"/>
      <point x="434" y="279" type="line"/>
      <point x="403" y="279" type="line"/>
      <point x="403" y="341" type="line"/>
      <point x="434" y="341" type="line"/>
      <point x="434" y="558" type="line"/>
      <point x="403" y="558" type="line"/>
      <point x="403" y="589" type="line"/>
      <point x="372" y="589" type="line"/>
      <point x="372" y="620" type="line"/>
      <point x="124" y="620" type="line"/>
      <point x="124" y="589" type="line"/>
      <point x="93" y="589" type="line"/>
      <point x="93" y="558" type="line"/>
      <point x="62" y="558" type="line"/>
      <point x="62" y="496" type="line"/>
      <point x="124" y="496" type="line"/>
      <point x="124" y="558" type="line"/>
      <point x="372" y="558" type="line"/>
      <point x="372" y="341" type="line"/>
      <point x="155" y="341" type="line"/>
      <point x="155" y="279" type="line"/>
      <point x="372" y="279" type="line"/>
      <point x="372" y="62" type="line"/>
      <point x="124" y="62" type="line"/>
      <point x="124" y="124" type="line"/>
      <point x="62" y="124" type="line"/>
    </contour>
  </outline>
</glyph>
<glyph name="six" format="2">
  <advance width="500"/>
  <unicode hex="0036"/>
  <outline>
    <contour>
      <point x="62" y="62" type="line"/>
      <point x="93" y="62" type="line"/>
      <point x="93" y="31" type="line"/>
      <point x="124" y="31" type="line"/>
      <point x="124" y="0" type="line"/>
      <point x="372" y="0" type="line"/>
      <point x="372" y="31" type="line"/>
      <point x="403" y="31" type="line"/>
      <point x="403" y="62" type="line"/>
      <point x="434" y="62" type="line"/>
      <point x="434" y="310" type="line"/>
      <point x="403" y="310" type="line"/>
      <point x="403" y="341" type="line"/>
      <point x="372" y="341" type="line"/>
      <point x="372" y="372" type="line"/>
      <point x="124" y="372" type="line"/>
      <point x="124" y="558" type="line"/>
      <point x="403" y="558" type="line"/>
      <point x="403" y="620" type="line"/>
      <point x="124" y="620" type="line"/>
      <point x="124" y="589" type="line"/>
      <point x="93" y="589" type="line"/>
      <point x="93" y="558" type="line"/>
      <point x="62" y="558" type="line"/>
    </contour>
    <contour>
      <point x="124" y="62" type="line"/>
      <point x="124" y="310" type="line"/>
      <point x="372" y="310" type="line"/>
      <point x="372" y="62" type="line"/>
    </contour>
  </outline>
</glyph>
<glyph name="seven" format="2">
  <advance width="500"/>
  <unicode hex="0037"/>
  <outline>
    <contour>
      <point x="62" y="434" type="line"/>
      <point x="124" y="434" type="line"/>
      <point x="124" y="558" type="line"/>
      <point x="372" y="558" type="line"/>
      <point x="372" y="465" type="line"/>
      <point x="341" y="465" type="line"/>
      <point x="341" y="403" type="line"/>
      <point x="310" y="403" type="line"/>
      <point x="310" y="341" type="line"/>
      <point x="279" y="341" type="line"/>
      <point x="279" y="279" type="line"/>
      <point x="248" y="279" type="line"/>
      <point x="248" y="217" type="line"/>
      <point x="217" y="217" type="line"/>
      <point x="217" y="0" type="line"/>
      <point x="279" y="0" type="line"/>
      <point x="279" y="217" type="line"/>
      <point x="310" y="217" type="line"/>
      <point x="310" y="279" type="line"/>
      <point x="341" y="279" type="line"/>
      <point x="341" y="341" type="line"/>
      <point x="372" y="341" type="line"/>
      <point x="372" y="403" type="line"/>
      <point x="403" y="403" type="line"/>
      <point x="403" y="465" type="line"/>
      <point x="434" y="465" type="line"/>
      <point x="434" y="620" type="line"/>
      <point x="62" y="620" type="line"/>
    </contour>
  </outline>
</glyph>
<glyph name="eight" format="2">
  <advance width="500"/>
  <unicode hex="0038"/>
  <outline>
    <contour>
      <point x="62" y="62" type="line"/>
      <point x="93" y="62" type="line"/>
      <point x="93" y="31" type="line"/>
      <point x="124" y="31" type="line"/>
      <point x="124" y="0" type="line"/>
      <point x="372" y="0" type="line"/>
      <point x="372" y="31" type="line"/>
      <point x="403" y="31" type="line"/>
      <point x="403" y="62" type="line"/>
      <point x="434" y="62" type="line"/>
      <point x="434" y="279" type="line"/>
      <point x="403" y="279" type="line"/>
      <point x="403" y="341" type="line"/>
      <point x="434" y="341" type="line"/>
      <point x="434" y="558" type="line"/>
      <point x="403" y="558" type="line"/>
      <point x="403" y="589" type="line"/>
      <point x="372" y="589" type="line"/>
      <point x="372" y="620" type="line"/>
      <point x="124" y="620" type="line"/>
      <point x="124" y="589" type="line"/>
      <point x="93" y="589" type="line"/>
      <point x="93" y="558" type="line"/>
      <point x="62" y="558" type="line"/>
      <point x="62" y="341" type="line"/>
      <point x="93" y="341" type="line"/>
      <point x="93" y="279" type="line"/>
      <point x="62" y="279" type="line"/>
    </contour>
    <contour>
      <point x="124" y="341" type="line"/>
      <point x="124" y="558" type="line"/>
      <point x="372" y="558" type="line"/>
      <point x="372" y="341" type="line"/>
    </contour>
    <contour>
      <point x="124" y="62" type="line"/>
      <point x="124" y="279" type="line"/>
      <point x="372" y="279" type="line"/>
      <point x="372" y="62" type="line"/>
    </contour>
  </outline>
</glyph>
<glyph name="nine" format="2">
  <advance width="500"/>
  <unicode hex="0039"/>
  <outline>
    <contour>
      <point x="93" y="0" type="line"/>
      <point x="372" y="0" type="line"/>
      <point x="372" y="31" type="line"/>
      <point x="403" y="31" type="line"/>
      <point x="403" y="62" type="line"/>
      <point x="434" y="62" type="line"/>
      <point x="434" y="558" type="line"/>
      <point x="403" y="558" type="line"/>
      <point x="403" y="589" type="line"/>
      <point x="372" y="589" type="line"/>
      <point x="372" y="620" type="line"/>
      <point x="124" y="620" type="line"/>
      <point x="124" y="589" type="line"/>
      <point x="93" y="589" type="line"/>
      <point x="93" y="558" type="line"/>
      <point x="62" y="558" type="line"/>
      <point x="62" y="310" type="line"/>
      <point x="93" y="310" type="line"/>
      <point x="93" y="279" type="line"/>
      <point x="124" y="279" type="line"/>
      <point x="124" y="248" type="line"/>
      <point x="372" y="248" type="line"/>
      <point x="372" y="62" type="line"/>
      <point x="93" y="62" type="line"/>
    </contour>
    <contour>
      <point x="124" y="310" type="line"/>
      <point x="124" y="558" type="line"/>
      <point x="372" y="558" type="line"/>
      <point x="372" y="310" type="line"/>
    </contour>
  </outline>
</glyph>
<glyph name="colon" format="2">
  <advance width="500"/>
  <unicode hex="003A"/>
  <outline>
    <contour>
      <point x="217" y="310" type="line"/>
      <point x="279" y="310" type="line"/>
      <point x="279" y="434" type="line"/>
      <point x="217" y="434" type="line"/>
    </contour>
    <contour>
      <point x="217" y="0" type="line"/>
      <point x="279" y="0" type="line"/>
      <point x="279" y="124" type="line"/>
      <point x="217" y="124" type="line"/>
    </contour>
  </outline>
</glyph>
<glyph name="semicolon" format="2">
  <advance width="500"/>
  <unicode hex="003B"/>
  <outline>
    <contour>
      <point x="217" y="310" type="line"/>
      <point x="279" y="310" type="line"/>
      <point x="279" y="434" type="line"/>
      <point x="217" y="434" type="line"/>
    </contour>
    <contour>
      <point x="155" y="-62" type="line"/>
      <point x="217" y="-62" type="line"/>
      <point x="217" y="-31" type="line"/>
      <point x="248" y="-31" type="line"/>
      <point x="248" y="0" type="line"/>
      <point x="279" y="0" type="line"/>
      <point x="279" y="124" type="line"/>
      <point x="217" y="124" type="line"/>
      <point x="217" y="0" type="line"/>
      <point x="186" y="0" type="line"/>
      <point x="186" y="-31" type="line"/>
      <point x="155" y="-31" type="line"/>
    </contour>
  </outline>
</glyph>
<glyph name="less" format="2">
  <advance width="500"/>
  <unicode hex="003C"/>
  <outline>
    <contour>
      <point x="93" y="248" type="line"/>
      <point x="124" y="248" type="line"/>
      <point x="124" y="217" type="line"/>
      <point x="155" y="217" type="line"/>
      <point x="155" y="186" type="line"/>
      <point x="186" y="186" type="line"/>
      <point x="186" y="155" type="line"/>
      <point x="217" y="155" type="line"/>
      <point x="217" y="124" type="line"/>
      <point x="248" y="124" type="line"/>
      <point x="248" y="93" type="line"/>
      <point x="279" y="93" type="line"/>
      <point x="279" y="62" type="line"/>
      <point x="310" y="62" type="line"/>
      <point x="310" y="31" type="line"/>
      <point x="341" y="31" type="line"/>
      <point x="341" y="0" type="line"/>
      <point x="434" y="0" type="line"/>
      <point x="434" y="31" type="line"/>
      <point x="403" y="31" type="line"/>
      <point x="403" y="62" type="line"/>
      <point x="372" y="62" type="line"/>
      <point x="372" y="93" type="line"/>
      <point x="341" y="93" type="line"/>
      <point x="341" y="124" type="line"/>
      <point x="310" y="124" type="line"/>
      <point x="310" y="155" type="line"/>
      <point x="279" y="155" type="line"/>
      <point x="279" y="186" type="line"/>
      <point x="248" y="186" type="line"/>
      <point x="248" y="217" type="line"/>
      <point x="217" y="217" type="line"/>
      <point x="217" y="248" type="line"/>
      <point x="186" y="248" type="line"/>
      <point x="186" y="279" type="line"/>
      <point x="155" y="279" type="line"/>
      <point x="155" y="341" type="line"/>
      <point x="186" y="341" type="line"/>
      <point x="186" y="372" type="line"/>
      <point x="217" y="372" type="line"/>
      <point x="217" y="403" type="line"/>
      <point x="248" y="403" type="line"/>
      <point x="248" y="434" type="line"/>
      <point x="279" y="434" type="line"/>
      <point x="279" y="465" type="line"/>
      <point x="310" y="465" type="line"/>
      <point x="310" y="496" type="line"/>
      <point x="341" y="496" type="line"/>
      <point x="341" y="527" type="line"/>
      <point x="372" y="527" type="line"/>
      <point x="372" y="558" type="line"/>
      <point x="403" y="558" type="line"/>
      <point x="403" y="589" type="line"/>
      <point x="434" y="589" type="line"/>
      <point x="434" y="620" type="line"/>
      <point x="341" y="620" type="line"/>
      <point x="341" y="589" type="line"/>
      <point x="310" y="589" type="line"/>
      <point x="310" y="558" type="line"/>
      <point x="279" y="558" type="line"/>
      <point x="279" y="527" type="line"/>
      <point x="248" y="527" type="line"/>
      <point x="248" y="496" type="line"/>
      <point x="217" y="496" type="line"/>
      <point x="217" y="465" type="line"/>
      <point x="186" y="465" type="line"/>
      <point x="186" y="434" type="line"/>
      <point x="155" y="434" type="line"/>
      <point x="155" y="403" type="line"/>
      <point x="124" y="403" type="line"/>
      <point x="124" y="372" type="line"/>
      <point x="93" y="372" type="line"/>
      <point x="93" y="341" type="line"/>
      <point x="62" y="341" type="line"/>
      <point x="62" y="279" type="line"/>
      <point x="93" y="279" type="line"/>
    </contour>
  </outline>
</glyph>
<glyph name="equal" format="2">
  <advance width="500"/>
  <unicode hex="003D"/>
  <outline>
    <contour>
      <point x="62" y="372" type="line"/>
      <point x="434" y="372" type="line"/>
      <point x="434" y="434" type="line"/>
      <point x="62" y="434" type="line"/>
    </contour>
    <contour>
      <point x="62" y="186" type="line"/>
      <point x="434" y="186" type="line"/>
      <point x="434" y="248" type="line"/>
      <point x="62" y="248" type="line"/>
    </contour>
  </outline>
</glyph>
<glyph name="greater" format="2">
  <advance width="500"/>
  <unicode hex="003E"/>
  <outline>
    <component base="greaterequal" yOffset="58"/>
    <contour>
      <point x="64" y="-0.0119" type="line"/>
      <point x="436" y="-0.0119" type="line"/>
      <point x="436" y="61.9881" type="line"/>
      <point x="64" y="61.9881" type="line"/>
    </contour>
  </outline>
</glyph>
<glyph name="at" format="2">
  <advance width="500"/>
  <unicode hex="0040"/>
  <outline>
    <contour>
      <point x="31" y="62" type="line"/>
      <point x="62" y="62" type="line"/>
      <point x="62" y="31" type="line"/>
      <point x="93" y="31" type="line"/>
      <point x="93" y="0" type="line"/>
      <point x="434" y="0" type="line"/>
      <point x="434" y="62" type="line"/>
      <point x="93" y="62" type="line"/>
      <point x="93" y="558" type="line"/>
      <point x="341" y="558" type="line"/>
      <point x="341" y="527" type="line"/>
      <point x="372" y="527" type="line"/>
      <point x="372" y="496" type="line"/>
      <point x="217" y="496" type="line"/>
      <point x="217" y="465" type="line"/>
      <point x="186" y="465" type="line"/>
      <point x="186" y="434" type="line"/>
      <point x="155" y="434" type="line"/>
      <point x="155" y="186" type="line"/>
      <point x="186" y="186" type="line"/>
      <point x="186" y="155" type="line"/>
      <point x="217" y="155" type="line"/>
      <point x="217" y="124" type="line"/>
      <point x="372" y="124" type="line"/>
      <point x="372" y="155" type="line"/>
      <point x="403" y="155" type="line"/>
      <point x="403" y="124" type="line"/>
      <point x="434" y="124" type="line"/>
      <point x="434" y="558" type="line"/>
      <point x="403" y="558" type="line"/>
      <point x="403" y="589" type="line"/>
      <point x="372" y="589" type="line"/>
      <point x="372" y="620" type="line"/>
      <point x="93" y="620" type="line"/>
      <point x="93" y="589" type="line"/>
      <point x="62" y="589" type="line"/>
      <point x="62" y="558" type="line"/>
      <point x="31" y="558" type="line"/>
    </contour>
    <contour>
      <point x="217" y="186" type="line"/>
      <point x="217" y="434" type="line"/>
      <point x="372" y="434" type="line"/>
      <point x="372" y="217" type="line"/>
      <point x="341" y="217" type="line"/>
      <point x="341" y="186" type="line"/>
    </contour>
  </outline>
</glyph>
<glyph name="A" format="2">
  <advance width="500"/>
  <unicode hex="0041"/>
  <anchor x="248" y="651" name="top"/>
  <anchor x="248" y="690" name="t.macron"/>
  <outline>
    <contour>
      <point x="62" y="0" type="line"/>
      <point x="124" y="0" type="line"/>
      <point x="124" y="248" type="line"/>
      <point x="372" y="248" type="line"/>
      <point x="372" y="0" type="line"/>
      <point x="434" y="0" type="line"/>
      <point x="434" y="558" type="line"/>
      <point x="403" y="558" type="line"/>
      <point x="403" y="589" type="line"/>
      <point x="372" y="589" type="line"/>
      <point x="372" y="620" type="line"/>
      <point x="124" y="620" type="line"/>
      <point x="124" y="589" type="line"/>
      <point x="93" y="589" type="line"/>
      <point x="93" y="558" type="line"/>
      <point x="62" y="558" type="line"/>
    </contour>
    <contour>
      <point x="124" y="310" type="line"/>
      <point x="124" y="558" type="line"/>
      <point x="372" y="558" type="line"/>
      <point x="372" y="310" type="line"/>
    </contour>
  </outline>
  <guideline angle="90" x="62" y="0"/>
  <guideline angle="90" x="434" y="0"/>
  <guideline angle="90" x="248" y="0"/>
  <guideline angle="0" x="0" y="651"/>
</glyph>
<glyph name="B" format="2">
  <advance width="500"/>
  <unicode hex="0042"/>
  <outline>
    <contour>
      <point x="62" y="0" type="line"/>
      <point x="372" y="0" type="line"/>
      <point x="372" y="31" type="line"/>
      <point x="403" y="31" type="line"/>
      <point x="403" y="62" type="line"/>
      <point x="434" y="62" type="line"/>
      <point x="434" y="310" type="line"/>
      <point x="403" y="310" type="line"/>
      <point x="403" y="341" type="line"/>
      <point x="372" y="341" type="line"/>
      <point x="372" y="372" type="line"/>
      <point x="403" y="372" type="line"/>
      <point x="403" y="403" type="line"/>
      <point x="434" y="403" type="line"/>
      <point x="434" y="558" type="line"/>
      <point x="403" y="558" type="line"/>
      <point x="403" y="589" type="line"/>
      <point x="372" y="589" type="line"/>
      <point x="372" y="620" type="line"/>
      <point x="62" y="620" type="line"/>
    </contour>
    <contour>
      <point x="124" y="372" type="line"/>
      <point x="124" y="558" type="line"/>
      <point x="372" y="558" type="line"/>
      <point x="372" y="403" type="line"/>
      <point x="341" y="403" type="line"/>
      <point x="341" y="372" type="line"/>
    </contour>
    <contour>
      <point x="124" y="62" type="line"/>
      <point x="124" y="310" type="line"/>
      <point x="372" y="310" type="line"/>
      <point x="372" y="62" type="line"/>
    </contour>
  </outline>
</glyph>
<glyph name="D" format="2">
  <advance width="500"/>
  <unicode hex="0044"/>
  <anchor x="248" y="651" name="top"/>
  <outline>
    <contour>
      <point x="62" y="0" type="line"/>
      <point x="341" y="0" type="line"/>
      <point x="341" y="31" type="line"/>
      <point x="372" y="31" type="line"/>
      <point x="372" y="62" type="line"/>
      <point x="403" y="62" type="line"/>
      <point x="403" y="93" type="line"/>
      <point x="434" y="93" type="line"/>
      <point x="434" y="527" type="line"/>
      <point x="403" y="527" type="line"/>
      <point x="403" y="558" type="line"/>
      <point x="372" y="558" type="line"/>
      <point x="372" y="589" type="line"/>
      <point x="341" y="589" type="line"/>
      <point x="341" y="620" type="line"/>
      <point x="62" y="620" type="line"/>
    </contour>
    <contour>
      <point x="124" y="62" type="line"/>
      <point x="124" y="558" type="line"/>
      <point x="341" y="558" type="line"/>
      <point x="341" y="527" type="line"/>
      <point x="372" y="527" type="line"/>
      <point x="372" y="93" type="line"/>
      <point x="341" y="93" type="line"/>
      <point x="341" y="62" type="line"/>
    </contour>
  </outline>
  <guideline angle="0" x="0" y="651"/>
  <guideline angle="90" x="62" y="0"/>
  <guideline angle="90" x="434" y="0"/>
  <guideline angle="90" x="248" y="0"/>
</glyph>
<glyph name="E" format="2">
  <advance width="500"/>
  <unicode hex="0045"/>
  <anchor x="248" y="651" name="top"/>
  <anchor x="250" y="690" name="t.macron"/>
  <anchor x="356" y="0" name="b.ogonek"/>
  <outline>
    <contour>
      <point x="62" y="0" type="line"/>
      <point x="434" y="0" type="line"/>
      <point x="434" y="62" type="line"/>
      <point x="124" y="62" type="line"/>
      <point x="124" y="279" type="line"/>
      <point x="341" y="279" type="line"/>
      <point x="341" y="341" type="line"/>
      <point x="124" y="341" type="line"/>
      <point x="124" y="558" type="line"/>
      <point x="434" y="558" type="line"/>
      <point x="434" y="620" type="line"/>
      <point x="62" y="620" type="line"/>
    </contour>
  </outline>
  <guideline angle="0" x="0" y="651"/>
  <guideline angle="90" x="62" y="0"/>
  <guideline angle="90" x="434" y="0"/>
  <guideline angle="90" x="248" y="0"/>
</glyph>
<glyph name="F" format="2">
  <advance width="500"/>
  <unicode hex="0046"/>
  <outline>
    <contour>
      <point x="62" y="0" type="line"/>
      <point x="124" y="0" type="line"/>
      <point x="124" y="279" type="line"/>
      <point x="341" y="279" type="line"/>
      <point x="341" y="341" type="line"/>
      <point x="124" y="341" type="line"/>
      <point x="124" y="558" type="line"/>
      <point x="434" y="558" type="line"/>
      <point x="434" y="620" type="line"/>
      <point x="62" y="620" type="line"/>
    </contour>
  </outline>
</glyph>
<glyph name="G" format="2">
  <advance width="500"/>
  <unicode hex="0047"/>
  <anchor x="248" y="651" name="top"/>
  <anchor x="248" y="-31" name="bottom"/>
  <outline>
    <contour>
      <point x="62" y="62" type="line"/>
      <point x="93" y="62" type="line"/>
      <point x="93" y="31" type="line"/>
      <point x="124" y="31" type="line"/>
      <point x="124" y="0" type="line"/>
      <point x="372" y="0" type="line"/>
      <point x="372" y="31" type="line"/>
      <point x="403" y="31" type="line"/>
      <point x="403" y="62" type="line"/>
      <point x="434" y="62" type="line"/>
      <point x="434" y="341" type="line"/>
      <point x="248" y="341" type="line"/>
      <point x="248" y="279" type="line"/>
      <point x="372" y="279" type="line"/>
      <point x="372" y="62" type="line"/>
      <point x="124" y="62" type="line"/>
      <point x="124" y="558" type="line"/>
      <point x="372" y="558" type="line"/>
      <point x="372" y="465" type="line"/>
      <point x="434" y="465" type="line"/>
      <point x="434" y="558" type="line"/>
      <point x="403" y="558" type="line"/>
      <point x="403" y="589" type="line"/>
      <point x="372" y="589" type="line"/>
      <point x="372" y="620" type="line"/>
      <point x="124" y="620" type="line"/>
      <point x="124" y="589" type="line"/>
      <point x="93" y="589" type="line"/>
      <point x="93" y="558" type="line"/>
      <point x="62" y="558" type="line"/>
    </contour>
  </outline>
  <guideline angle="0" x="0" y="651"/>
  <guideline angle="90" x="62" y="0"/>
  <guideline angle="90" x="434" y="0"/>
  <guideline angle="90" x="248" y="0"/>
</glyph>
<glyph name="I" format="2">
  <advance width="500"/>
  <unicode hex="0049"/>
  <anchor x="248" y="651" name="top"/>
  <anchor x="248" y="-31" name="bottom"/>
  <anchor x="248" y="690" name="t.macron"/>
  <outline>
    <contour>
      <point x="155" y="0" type="line"/>
      <point x="341" y="0" type="line"/>
      <point x="341" y="62" type="line"/>
      <point x="279" y="62" type="line"/>
      <point x="279" y="558" type="line"/>
      <point x="341" y="558" type="line"/>
      <point x="341" y="620" type="line"/>
      <point x="155" y="620" type="line"/>
      <point x="155" y="558" type="line"/>
      <point x="217" y="558" type="line"/>
      <point x="217" y="62" type="line"/>
      <point x="155" y="62" type="line"/>
    </contour>
  </outline>
  <guideline angle="0" x="0" y="651"/>
  <guideline angle="90" x="155" y="0"/>
  <guideline angle="90" x="341" y="0"/>
  <guideline angle="90" x="248" y="0"/>
  <guideline angle="0" x="0" y="-31"/>
</glyph>
<glyph name="J" format="2">
  <advance width="500"/>
  <unicode hex="004A"/>
  <outline>
    <contour>
      <point x="62" y="62" type="line"/>
      <point x="93" y="62" type="line"/>
      <point x="93" y="31" type="line"/>
      <point x="124" y="31" type="line"/>
      <point x="124" y="0" type="line"/>
      <point x="341" y="0" type="line"/>
      <point x="341" y="31" type="line"/>
      <point x="372" y="31" type="line"/>
      <point x="372" y="62" type="line"/>
      <point x="403" y="62" type="line"/>
      <point x="403" y="558" type="line"/>
      <point x="465" y="558" type="line"/>
      <point x="465" y="620" type="line"/>
      <point x="279" y="620" type="line"/>
      <point x="279" y="558" type="line"/>
      <point x="341" y="558" type="line"/>
      <point x="341" y="62" type="line"/>
      <point x="124" y="62" type="line"/>
      <point x="124" y="186" type="line"/>
      <point x="62" y="186" type="line"/>
    </contour>
  </outline>
</glyph>
<glyph name="K" format="2">
  <advance width="500"/>
  <unicode hex="004B"/>
  <anchor x="248" y="-31" name="bottom"/>
  <outline>
    <contour>
      <point x="155" y="341" type="line"/>
      <point x="186" y="341" type="line"/>
      <point x="186" y="372" type="line"/>
      <point x="217" y="372" type="line"/>
      <point x="217" y="403" type="line"/>
      <point x="248" y="403" type="line"/>
      <point x="248" y="434" type="line"/>
      <point x="279" y="434" type="line"/>
      <point x="279" y="465" type="line"/>
      <point x="310" y="465" type="line"/>
      <point x="310" y="496" type="line"/>
      <point x="341" y="496" type="line"/>
      <point x="341" y="527" type="line"/>
      <point x="372" y="527" type="line"/>
      <point x="372" y="558" type="line"/>
      <point x="403" y="558" type="line"/>
      <point x="403" y="589" type="line"/>
      <point x="434" y="589" type="line"/>
      <point x="434" y="620" type="line"/>
      <point x="372" y="620" type="line"/>
      <point x="372" y="589" type="line"/>
      <point x="341" y="589" type="line"/>
      <point x="341" y="558" type="line"/>
      <point x="310" y="558" type="line"/>
      <point x="310" y="527" type="line"/>
      <point x="279" y="527" type="line"/>
      <point x="279" y="496" type="line"/>
      <point x="248" y="496" type="line"/>
      <point x="248" y="465" type="line"/>
      <point x="217" y="465" type="line"/>
      <point x="217" y="434" type="line"/>
      <point x="186" y="434" type="line"/>
      <point x="186" y="403" type="line"/>
      <point x="155" y="403" type="line"/>
    </contour>
    <contour>
      <point x="186" y="186" type="line"/>
      <point x="217" y="186" type="line"/>
      <point x="217" y="155" type="line"/>
      <point x="248" y="155" type="line"/>
      <point x="248" y="124" type="line"/>
      <point x="279" y="124" type="line"/>
      <point x="279" y="93" type="line"/>
      <point x="310" y="93" type="line"/>
      <point x="310" y="62" type="line"/>
      <point x="341" y="62" type="line"/>
      <point x="341" y="31" type="line"/>
      <point x="372" y="31" type="line"/>
      <point x="372" y="0" type="line"/>
      <point x="434" y="0" type="line"/>
      <point x="434" y="31" type="line"/>
      <point x="403" y="31" type="line"/>
      <point x="403" y="62" type="line"/>
      <point x="372" y="62" type="line"/>
      <point x="372" y="93" type="line"/>
      <point x="341" y="93" type="line"/>
      <point x="341" y="124" type="line"/>
      <point x="310" y="124" type="line"/>
      <point x="310" y="155" type="line"/>
      <point x="279" y="155" type="line"/>
      <point x="279" y="186" type="line"/>
      <point x="248" y="186" type="line"/>
      <point x="248" y="217" type="line"/>
      <point x="217" y="217" type="line"/>
      <point x="217" y="248" type="line"/>
      <point x="186" y="248" type="line"/>
      <point x="186" y="279" type="line"/>
      <point x="155" y="279" type="line"/>
      <point x="155" y="217" type="line"/>
      <point x="186" y="217" type="line"/>
    </contour>
    <contour>
      <point x="62" y="0" type="line"/>
      <point x="124" y="0" type="line"/>
      <point x="124" y="248" type="line"/>
      <point x="154.55" y="248.106" type="line"/>
      <point x="154.55" y="370" type="line"/>
      <point x="124" y="370" type="line"/>
      <point x="124" y="620" type="line"/>
      <point x="62" y="620" type="line"/>
    </contour>
  </outline>
  <guideline angle="90" x="62" y="0"/>
  <guideline angle="90" x="434" y="0"/>
  <guideline angle="90" x="248" y="0"/>
  <guideline angle="0" x="0" y="-31"/>
</glyph>
<glyph name="M" format="2">
  <advance width="500"/>
  <unicode hex="004D"/>
  <outline>
    <contour>
      <point x="31" y="0" type="line"/>
      <point x="93" y="0" type="line"/>
      <point x="93" y="496" type="line"/>
      <point x="124" y="496" type="line"/>
      <point x="124" y="465" type="line"/>
      <point x="155" y="465" type="line"/>
      <point x="155" y="434" type="line"/>
      <point x="186" y="434" type="line"/>
      <point x="186" y="403" type="line"/>
      <point x="217" y="403" type="line"/>
      <point x="217" y="372" type="line"/>
      <point x="248" y="372" type="line"/>
      <point x="248" y="403" type="line"/>
      <point x="279" y="403" type="line"/>
      <point x="279" y="434" type="line"/>
      <point x="310" y="434" type="line"/>
      <point x="310" y="465" type="line"/>
      <point x="341" y="465" type="line"/>
      <point x="341" y="496" type="line"/>
      <point x="372" y="496" type="line"/>
      <point x="372" y="0" type="line"/>
      <point x="434" y="0" type="line"/>
      <point x="434" y="620" type="line"/>
      <point x="403" y="620" type="line"/>
      <point x="403" y="589" type="line"/>
      <point x="372" y="589" type="line"/>
      <point x="372" y="558" type="line"/>
      <point x="341" y="558" type="line"/>
      <point x="341" y="527" type="line"/>
      <point x="310" y="527" type="line"/>
      <point x="310" y="496" type="line"/>
      <point x="279" y="496" type="line"/>
      <point x="279" y="465" type="line"/>
      <point x="186" y="465" type="line"/>
      <point x="186" y="496" type="line"/>
      <point x="155" y="496" type="line"/>
      <point x="155" y="527" type="line"/>
      <point x="124" y="527" type="line"/>
      <point x="124" y="558" type="line"/>
      <point x="93" y="558" type="line"/>
      <point x="93" y="589" type="line"/>
      <point x="62" y="589" type="line"/>
      <point x="62" y="620" type="line"/>
      <point x="31" y="620" type="line"/>
    </contour>
  </outline>
</glyph>
<glyph name="N" format="2">
  <advance width="500"/>
  <unicode hex="004E"/>
  <anchor x="248" y="651" name="top"/>
  <anchor x="248" y="-31" name="bottom"/>
  <outline>
    <contour>
      <point x="62" y="0" type="line"/>
      <point x="124" y="0" type="line"/>
      <point x="124" y="403" type="line"/>
      <point x="155" y="403" type="line"/>
      <point x="155" y="372" type="line"/>
      <point x="186" y="372" type="line"/>
      <point x="186" y="341" type="line"/>
      <point x="217" y="341" type="line"/>
      <point x="217" y="310" type="line"/>
      <point x="248" y="310" type="line"/>
      <point x="248" y="279" type="line"/>
      <point x="279" y="279" type="line"/>
      <point x="279" y="248" type="line"/>
      <point x="310" y="248" type="line"/>
      <point x="310" y="217" type="line"/>
      <point x="341" y="217" type="line"/>
      <point x="341" y="186" type="line"/>
      <point x="372" y="186" type="line"/>
      <point x="372" y="0" type="line"/>
      <point x="434" y="0" type="line"/>
      <point x="434" y="620" type="line"/>
      <point x="372" y="620" type="line"/>
      <point x="372" y="248" type="line"/>
      <point x="341" y="248" type="line"/>
      <point x="341" y="279" type="line"/>
      <point x="310" y="279" type="line"/>
      <point x="310" y="310" type="line"/>
      <point x="279" y="310" type="line"/>
      <point x="279" y="341" type="line"/>
      <point x="248" y="341" type="line"/>
      <point x="248" y="372" type="line"/>
      <point x="217" y="372" type="line"/>
      <point x="217" y="403" type="line"/>
      <point x="186" y="403" type="line"/>
      <point x="186" y="434" type="line"/>
      <point x="155" y="434" type="line"/>
      <point x="155" y="465" type="line"/>
      <point x="124" y="465" type="line"/>
      <point x="124" y="620" type="line"/>
      <point x="62" y="620" type="line"/>
    </contour>
  </outline>
  <guideline angle="90" x="62" y="0"/>
  <guideline angle="90" x="434" y="0"/>
  <guideline angle="90" x="248" y="0"/>
  <guideline angle="0" x="0" y="651"/>
</glyph>
<glyph name="P" format="2">
  <advance width="500"/>
  <unicode hex="0050"/>
  <outline>
    <contour>
      <point x="62" y="0" type="line"/>
      <point x="124" y="0" type="line"/>
      <point x="124" y="248" type="line"/>
      <point x="372" y="248" type="line"/>
      <point x="372" y="279" type="line"/>
      <point x="403" y="279" type="line"/>
      <point x="403" y="310" type="line"/>
      <point x="434" y="310" type="line"/>
      <point x="434" y="558" type="line"/>
      <point x="403" y="558" type="line"/>
      <point x="403" y="589" type="line"/>
      <point x="372" y="589" type="line"/>
      <point x="372" y="620" type="line"/>
      <point x="62" y="620" type="line"/>
    </contour>
    <contour>
      <point x="124" y="310" type="line"/>
      <point x="124" y="558" type="line"/>
      <point x="372" y="558" type="line"/>
      <point x="372" y="310" type="line"/>
    </contour>
  </outline>
</glyph>
<glyph name="Q" format="2">
  <advance width="500"/>
  <unicode hex="0051"/>
  <outline>
    <contour>
      <point x="62" y="62" type="line"/>
      <point x="93" y="62" type="line"/>
      <point x="93" y="31" type="line"/>
      <point x="124" y="31" type="line"/>
      <point x="124" y="0" type="line"/>
      <point x="341" y="0" type="line"/>
      <point x="341" y="-31" type="line"/>
      <point x="372" y="-31" type="line"/>
      <point x="372" y="-62" type="line"/>
      <point x="434" y="-62" type="line"/>
      <point x="434" y="-31" type="line"/>
      <point x="403" y="-31" type="line"/>
      <point x="403" y="0" type="line"/>
      <point x="372" y="0" type="line"/>
      <point x="372" y="31" type="line"/>
      <point x="403" y="31" type="line"/>
      <point x="403" y="62" type="line"/>
      <point x="434" y="62" type="line"/>
      <point x="434" y="558" type="line"/>
      <point x="403" y="558" type="line"/>
      <point x="403" y="589" type="line"/>
      <point x="372" y="589" type="line"/>
      <point x="372" y="620" type="line"/>
      <point x="124" y="620" type="line"/>
      <point x="124" y="589" type="line"/>
      <point x="93" y="589" type="line"/>
      <point x="93" y="558" type="line"/>
      <point x="62" y="558" type="line"/>
    </contour>
    <contour>
      <point x="124" y="62" type="line"/>
      <point x="124" y="558" type="line"/>
      <point x="372" y="558" type="line"/>
      <point x="372" y="62" type="line"/>
      <point x="310" y="62" type="line"/>
      <point x="310" y="93" type="line"/>
      <point x="279" y="93" type="line"/>
      <point x="279" y="124" type="line"/>
      <point x="217" y="124" type="line"/>
      <point x="217" y="93" type="line"/>
      <point x="248" y="93" type="line"/>
      <point x="248" y="62" type="line"/>
    </contour>
  </outline>
</glyph>
<glyph name="S" format="2">
  <advance width="500"/>
  <unicode hex="0053"/>
  <anchor x="248" y="651" name="top"/>
  <anchor x="248" y="0" name="cedilla"/>
  <anchor x="248" y="-31" name="bottom"/>
  <outline>
    <contour>
      <point x="62" y="62" type="line"/>
      <point x="93" y="62" type="line"/>
      <point x="93" y="31" type="line"/>
      <point x="124" y="31" type="line"/>
      <point x="124" y="0" type="line"/>
      <point x="372" y="0" type="line"/>
      <point x="372" y="31" type="line"/>
      <point x="403" y="31" type="line"/>
      <point x="403" y="62" type="line"/>
      <point x="434" y="62" type="line"/>
      <point x="434" y="279" type="line"/>
      <point x="403" y="279" type="line"/>
      <point x="403" y="310" type="line"/>
      <point x="372" y="310" type="line"/>
      <point x="372" y="341" type="line"/>
      <point x="124" y="341" type="line"/>
      <point x="124" y="558" type="line"/>
      <point x="372" y="558" type="line"/>
      <point x="372" y="496" type="line"/>
      <point x="434" y="496" type="line"/>
      <point x="434" y="558" type="line"/>
      <point x="403" y="558" type="line"/>
      <point x="403" y="589" type="line"/>
      <point x="372" y="589" type="line"/>
      <point x="372" y="620" type="line"/>
      <point x="124" y="620" type="line"/>
      <point x="124" y="589" type="line"/>
      <point x="93" y="589" type="line"/>
      <point x="93" y="558" type="line"/>
      <point x="62" y="558" type="line"/>
      <point x="62" y="341" type="line"/>
      <point x="93" y="341" type="line"/>
      <point x="93" y="310" type="line"/>
      <point x="124" y="310" type="line"/>
      <point x="124" y="279" type="line"/>
      <point x="372" y="279" type="line"/>
      <point x="372" y="62" type="line"/>
      <point x="124" y="62" type="line"/>
      <point x="124" y="124" type="line"/>
      <point x="62" y="124" type="line"/>
    </contour>
  </outline>
  <guideline angle="0" x="0" y="651"/>
  <guideline angle="90" x="62" y="0"/>
  <guideline angle="90" x="434" y="0"/>
  <guideline angle="90" x="248" y="0"/>
  <guideline angle="0" x="0" y="-31"/>
</glyph>
<glyph name="T" format="2">
  <advance width="500"/>
  <unicode hex="0054"/>
  <anchor x="248" y="0" name="cedilla"/>
  <anchor x="248" y="-31" name="bottom"/>
  <outline>
    <contour>
      <point x="217" y="0" type="line"/>
      <point x="279" y="0" type="line"/>
      <point x="279" y="558" type="line"/>
      <point x="434" y="558" type="line"/>
      <point x="434" y="620" type="line"/>
      <point x="62" y="620" type="line"/>
      <point x="62" y="558" type="line"/>
      <point x="217" y="558" type="line"/>
    </contour>
  </outline>
</glyph>
<glyph name="V" format="2">
  <advance width="500"/>
  <unicode hex="0056"/>
  <outline>
    <contour>
      <point x="124" y="248" type="line"/>
      <point x="155" y="248" type="line"/>
      <point x="155" y="124" type="line"/>
      <point x="186" y="124" type="line"/>
      <point x="186" y="31" type="line"/>
      <point x="217" y="31" type="line"/>
      <point x="217" y="0" type="line"/>
      <point x="279" y="0" type="line"/>
      <point x="279" y="31" type="line"/>
      <point x="310" y="31" type="line"/>
      <point x="310" y="124" type="line"/>
      <point x="341" y="124" type="line"/>
      <point x="341" y="248" type="line"/>
      <point x="372" y="248" type="line"/>
      <point x="372" y="372" type="line"/>
      <point x="403" y="372" type="line"/>
      <point x="403" y="496" type="line"/>
      <point x="434" y="496" type="line"/>
      <point x="434" y="620" type="line"/>
      <point x="372" y="620" type="line"/>
      <point x="372" y="496" type="line"/>
      <point x="341" y="496" type="line"/>
      <point x="341" y="372" type="line"/>
      <point x="310" y="372" type="line"/>
      <point x="310" y="248" type="line"/>
      <point x="279" y="248" type="line"/>
      <point x="279" y="124" type="line"/>
      <point x="217" y="124" type="line"/>
      <point x="217" y="248" type="line"/>
      <point x="186" y="248" type="line"/>
      <point x="186" y="372" type="line"/>
      <point x="155" y="372" type="line"/>
      <point x="155" y="496" type="line"/>
      <point x="124" y="496" type="line"/>
      <point x="124" y="620" type="line"/>
      <point x="62" y="620" type="line"/>
      <point x="62" y="496" type="line"/>
      <point x="93" y="496" type="line"/>
      <point x="93" y="372" type="line"/>
      <point x="124" y="372" type="line"/>
    </contour>
  </outline>
</glyph>
<glyph name="W" format="2">
  <advance width="500"/>
  <unicode hex="0057"/>
  <outline>
    <contour>
      <point x="31" y="0" type="line"/>
      <point x="62" y="0" type="line"/>
      <point x="62" y="31" type="line"/>
      <point x="93" y="31" type="line"/>
      <point x="93" y="62" type="line"/>
      <point x="124" y="62" type="line"/>
      <point x="124" y="93" type="line"/>
      <point x="155" y="93" type="line"/>
      <point x="155" y="124" type="line"/>
      <point x="186" y="124" type="line"/>
      <point x="186" y="155" type="line"/>
      <point x="279" y="155" type="line"/>
      <point x="279" y="124" type="line"/>
      <point x="310" y="124" type="line"/>
      <point x="310" y="93" type="line"/>
      <point x="341" y="93" type="line"/>
      <point x="341" y="62" type="line"/>
      <point x="372" y="62" type="line"/>
      <point x="372" y="31" type="line"/>
      <point x="403" y="31" type="line"/>
      <point x="403" y="0" type="line"/>
      <point x="434" y="0" type="line"/>
      <point x="434" y="620" type="line"/>
      <point x="372" y="620" type="line"/>
      <point x="372" y="124" type="line"/>
      <point x="341" y="124" type="line"/>
      <point x="341" y="155" type="line"/>
      <point x="310" y="155" type="line"/>
      <point x="310" y="186" type="line"/>
      <point x="279" y="186" type="line"/>
      <point x="279" y="217" type="line"/>
      <point x="248" y="217" type="line"/>
      <point x="248" y="248" type="line"/>
      <point x="217" y="248" type="line"/>
      <point x="217" y="217" type="line"/>
      <point x="186" y="217" type="line"/>
      <point x="186" y="186" type="line"/>
      <point x="155" y="186" type="line"/>
      <point x="155" y="155" type="line"/>
      <point x="124" y="155" type="line"/>
      <point x="124" y="124" type="line"/>
      <point x="93" y="124" type="line"/>
      <point x="93" y="620" type="line"/>
      <point x="31" y="620" type="line"/>
    </contour>
  </outline>
</glyph>
<glyph name="Y" format="2">
  <advance width="500"/>
  <unicode hex="0059"/>
  <anchor x="248" y="651" name="top"/>
  <outline>
    <contour>
      <point x="124" y="403" type="line"/>
      <point x="155" y="403" type="line"/>
      <point x="155" y="341" type="line"/>
      <point x="186" y="341" type="line"/>
      <point x="186" y="279" type="line"/>
      <point x="217" y="279" type="line"/>
      <point x="217" y="0" type="line"/>
      <point x="279" y="0" type="line"/>
      <point x="279" y="279" type="line"/>
      <point x="310" y="279" type="line"/>
      <point x="310" y="341" type="line"/>
      <point x="341" y="341" type="line"/>
      <point x="341" y="403" type="line"/>
      <point x="372" y="403" type="line"/>
      <point x="372" y="465" type="line"/>
      <point x="403" y="465" type="line"/>
      <point x="403" y="527" type="line"/>
      <point x="434" y="527" type="line"/>
      <point x="434" y="620" type="line"/>
      <point x="372" y="620" type="line"/>
      <point x="372" y="527" type="line"/>
      <point x="341" y="527" type="line"/>
      <point x="341" y="465" type="line"/>
      <point x="310" y="465" type="line"/>
      <point x="310" y="403" type="line"/>
      <point x="279" y="403" type="line"/>
      <point x="279" y="341" type="line"/>
      <point x="217" y="341" type="line"/>
      <point x="217" y="403" type="line"/>
      <point x="186" y="403" type="line"/>
      <point x="186" y="465" type="line"/>
      <point x="155" y="465" type="line"/>
      <point x="155" y="527" type="line"/>
      <point x="124" y="527" type="line"/>
      <point x="124" y="620" type="line"/>
      <point x="62" y="620" type="line"/>
      <point x="62" y="527" type="line"/>
      <point x="93" y="527" type="line"/>
      <point x="93" y="465" type="line"/>
      <point x="124" y="465" type="line"/>
    </contour>
  </outline>
  <guideline angle="0" x="0" y="651"/>
  <guideline angle="90" x="62" y="0"/>
  <guideline angle="90" x="434" y="0"/>
  <guideline angle="90" x="248" y="0"/>
</glyph>
<glyph name="bracketleft" format="2">
  <advance width="500"/>
  <unicode hex="005B"/>
  <outline>
    <contour>
      <point x="124" y="0" type="line"/>
      <point x="341" y="0" type="line"/>
      <point x="341" y="62" type="line"/>
      <point x="186" y="62" type="line"/>
      <point x="186" y="558" type="line"/>
      <point x="341" y="558" type="line"/>
      <point x="341" y="620" type="line"/>
      <point x="124" y="620" type="line"/>
    </contour>
  </outline>
</glyph>
<glyph name="bracketright" format="2">
  <advance width="500"/>
  <unicode hex="005D"/>
  <outline>
    <contour>
      <point x="124" y="0" type="line"/>
      <point x="341" y="0" type="line"/>
      <point x="341" y="620" type="line"/>
      <point x="124" y="620" type="line"/>
      <point x="124" y="558" type="line"/>
      <point x="279" y="558" type="line"/>
      <point x="279" y="62" type="line"/>
      <point x="124" y="62" type="line"/>
    </contour>
  </outline>
</glyph>
<glyph name="asciicircum" format="2">
  <advance width="500"/>
  <unicode hex="005E"/>
  <outline>
    <contour>
      <point x="62" y="527" type="line"/>
      <point x="124" y="527" type="line"/>
      <point x="124" y="558" type="line"/>
      <point x="155" y="558" type="line"/>
      <point x="155" y="589" type="line"/>
      <point x="186" y="589" type="line"/>
      <point x="186" y="620" type="line"/>
      <point x="217" y="620" type="line"/>
      <point x="217" y="651" type="line"/>
      <point x="279" y="651" type="line"/>
      <point x="279" y="620" type="line"/>
      <point x="310" y="620" type="line"/>
      <point x="310" y="589" type="line"/>
      <point x="341" y="589" type="line"/>
      <point x="341" y="558" type="line"/>
      <point x="372" y="558" type="line"/>
      <point x="372" y="527" type="line"/>
      <point x="434" y="527" type="line"/>
      <point x="434" y="558" type="line"/>
      <point x="403" y="558" type="line"/>
      <point x="403" y="589" type="line"/>
      <point x="372" y="589" type="line"/>
      <point x="372" y="620" type="line"/>
      <point x="341" y="620" type="line"/>
      <point x="341" y="651" type="line"/>
      <point x="310" y="651" type="line"/>
      <point x="310" y="682" type="line"/>
      <point x="279" y="682" type="line"/>
      <point x="279" y="713" type="line"/>
      <point x="217" y="713" type="line"/>
      <point x="217" y="682" type="line"/>
      <point x="186" y="682" type="line"/>
      <point x="186" y="651" type="line"/>
      <point x="155" y="651" type="line"/>
      <point x="155" y="620" type="line"/>
      <point x="124" y="620" type="line"/>
      <point x="124" y="589" type="line"/>
      <point x="93" y="589" type="line"/>
      <point x="93" y="558" type="line"/>
      <point x="62" y="558" type="line"/>
    </contour>
  </outline>
</glyph>
<glyph name="underscore" format="2">
  <advance width="500"/>
  <unicode hex="005F"/>
  <outline>
    <contour>
      <point x="62" y="-93" type="line"/>
      <point x="434" y="-93" type="line"/>
      <point x="434" y="-31" type="line"/>
      <point x="62" y="-31" type="line"/>
    </contour>
  </outline>
</glyph>
<glyph name="grave" format="2">
  <advance width="500"/>
  <unicode hex="0060"/>
  <outline>
    <contour>
      <point x="124" y="589" type="line"/>
      <point x="155" y="589" type="line"/>
      <point x="155" y="558" type="line"/>
      <point x="186" y="558" type="line"/>
      <point x="186" y="527" type="line"/>
      <point x="279" y="527" type="line"/>
      <point x="279" y="558" type="line"/>
      <point x="248" y="558" type="line"/>
      <point x="248" y="589" type="line"/>
      <point x="217" y="589" type="line"/>
      <point x="217" y="620" type="line"/>
      <point x="186" y="620" type="line"/>
      <point x="186" y="651" type="line"/>
      <point x="93" y="651" type="line"/>
      <point x="93" y="620" type="line"/>
      <point x="124" y="620" type="line"/>
    </contour>
  </outline>
  <guideline angle="0" x="0" y="527"/>
</glyph>
<glyph name="c" format="2">
  <advance width="500"/>
  <unicode hex="0063"/>
  <anchor x="248" y="496" name="top"/>
  <anchor x="248" y="0" name="cedilla"/>
  <outline>
    <contour>
      <point x="62" y="62" type="line"/>
      <point x="93" y="62" type="line"/>
      <point x="93" y="31" type="line"/>
      <point x="124" y="31" type="line"/>
      <point x="124" y="0" type="line"/>
      <point x="372" y="0" type="line"/>
      <point x="372" y="31" type="line"/>
      <point x="403" y="31" type="line"/>
      <point x="403" y="62" type="line"/>
      <point x="434" y="62" type="line"/>
      <point x="434" y="124" type="line"/>
      <point x="372" y="124" type="line"/>
      <point x="372" y="62" type="line"/>
      <point x="124" y="62" type="line"/>
      <point x="124" y="372" type="line"/>
      <point x="372" y="372" type="line"/>
      <point x="372" y="310" type="line"/>
      <point x="434" y="310" type="line"/>
      <point x="434" y="372" type="line"/>
      <point x="403" y="372" type="line"/>
      <point x="403" y="403" type="line"/>
      <point x="372" y="403" type="line"/>
      <point x="372" y="434" type="line"/>
      <point x="124" y="434" type="line"/>
      <point x="124" y="403" type="line"/>
      <point x="93" y="403" type="line"/>
      <point x="93" y="372" type="line"/>
      <point x="62" y="372" type="line"/>
    </contour>
  </outline>
  <guideline angle="0" x="0" y="496"/>
  <guideline angle="90" x="62" y="0"/>
  <guideline angle="90" x="434" y="0"/>
  <guideline angle="90" x="248" y="0"/>
</glyph>
<glyph name="d" format="2">
  <advance width="500"/>
  <unicode hex="0064"/>
  <anchor x="248" y="651" name="top"/>
  <outline>
    <contour>
      <point x="62" y="62" type="line"/>
      <point x="93" y="62" type="line"/>
      <point x="93" y="31" type="line"/>
      <point x="124" y="31" type="line"/>
      <point x="124" y="0" type="line"/>
      <point x="434" y="0" type="line"/>
      <point x="434" y="620" type="line"/>
      <point x="372" y="620" type="line"/>
      <point x="372" y="434" type="line"/>
      <point x="124" y="434" type="line"/>
      <point x="124" y="403" type="line"/>
      <point x="93" y="403" type="line"/>
      <point x="93" y="372" type="line"/>
      <point x="62" y="372" type="line"/>
    </contour>
    <contour>
      <point x="124" y="62" type="line"/>
      <point x="124" y="372" type="line"/>
      <point x="372" y="372" type="line"/>
      <point x="372" y="62" type="line"/>
    </contour>
  </outline>
  <guideline angle="0" x="0" y="651"/>
  <guideline angle="90" x="62" y="0"/>
  <guideline angle="90" x="434" y="0"/>
  <guideline angle="90" x="248" y="0"/>
</glyph>
<glyph name="f" format="2">
  <advance width="500"/>
  <unicode hex="0066"/>
  <outline>
    <contour>
      <point x="62" y="372" type="line"/>
      <point x="186" y="372" type="line"/>
      <point x="186" y="0" type="line"/>
      <point x="248" y="0" type="line"/>
      <point x="248" y="372" type="line"/>
      <point x="372" y="372" type="line"/>
      <point x="372" y="434" type="line"/>
      <point x="248" y="434" type="line"/>
      <point x="248" y="558" type="line"/>
      <point x="434" y="558" type="line"/>
      <point x="434" y="620" type="line"/>
      <point x="248" y="620" type="line"/>
      <point x="248" y="589" type="line"/>
      <point x="217" y="589" type="line"/>
      <point x="217" y="558" type="line"/>
      <point x="186" y="558" type="line"/>
      <point x="186" y="434" type="line"/>
      <point x="62" y="434" type="line"/>
    </contour>
  </outline>
</glyph>
<glyph name="i" format="2">
  <advance width="500"/>
  <unicode hex="0069"/>
  <outline>
    <contour>
      <point x="217" y="496" type="line"/>
      <point x="279" y="496" type="line"/>
      <point x="279" y="620" type="line"/>
      <point x="217" y="620" type="line"/>
    </contour>
    <contour>
      <point x="155" y="0" type="line"/>
      <point x="341" y="0" type="line"/>
      <point x="341" y="62" type="line"/>
      <point x="279" y="62" type="line"/>
      <point x="279" y="434" type="line"/>
      <point x="155" y="434" type="line"/>
      <point x="155" y="372" type="line"/>
      <point x="217" y="372" type="line"/>
      <point x="217" y="62" type="line"/>
      <point x="155" y="62" type="line"/>
    </contour>
  </outline>
</glyph>
<glyph name="j" format="2">
  <advance width="500"/>
  <unicode hex="006A"/>
  <outline>
    <contour>
      <point x="341" y="496" type="line"/>
      <point x="403" y="496" type="line"/>
      <point x="403" y="620" type="line"/>
      <point x="341" y="620" type="line"/>
    </contour>
    <contour>
      <point x="93" y="-93" type="line"/>
      <point x="124" y="-93" type="line"/>
      <point x="124" y="-124" type="line"/>
      <point x="155" y="-124" type="line"/>
      <point x="155" y="-155" type="line"/>
      <point x="341" y="-155" type="line"/>
      <point x="341" y="-124" type="line"/>
      <point x="372" y="-124" type="line"/>
      <point x="372" y="-93" type="line"/>
      <point x="403" y="-93" type="line"/>
      <point x="403" y="434" type="line"/>
      <point x="279" y="434" type="line"/>
      <point x="279" y="372" type="line"/>
      <point x="341" y="372" type="line"/>
      <point x="341" y="-93" type="line"/>
      <point x="155" y="-93" type="line"/>
      <point x="155" y="0" type="line"/>
      <point x="93" y="0" type="line"/>
    </contour>
  </outline>
</glyph>
<glyph name="l" format="2">
  <advance width="500"/>
  <unicode hex="006C"/>
  <anchor x="248" y="682" name="top"/>
  <anchor x="248" y="-31" name="bottom"/>
  <outline>
    <contour>
      <point x="155" y="0" type="line"/>
      <point x="341" y="0" type="line"/>
      <point x="341" y="62" type="line"/>
      <point x="279" y="62" type="line"/>
      <point x="279" y="620" type="line"/>
      <point x="155" y="620" type="line"/>
      <point x="155" y="558" type="line"/>
      <point x="217" y="558" type="line"/>
      <point x="217" y="62" type="line"/>
      <point x="155" y="62" type="line"/>
    </contour>
  </outline>
  <guideline angle="0" x="0" y="682"/>
  <guideline angle="90" x="155" y="0"/>
  <guideline angle="90" x="341" y="0"/>
  <guideline angle="90" x="248" y="0"/>
  <guideline angle="0" x="0" y="-31"/>
</glyph>
<glyph name="m" format="2">
  <advance width="500"/>
  <unicode hex="006D"/>
  <outline>
    <contour>
      <point x="62" y="0" type="line"/>
      <point x="124" y="0" type="line"/>
      <point x="124" y="372" type="line"/>
      <point x="217" y="372" type="line"/>
      <point x="217" y="0" type="line"/>
      <point x="279" y="0" type="line"/>
      <point x="279" y="372" type="line"/>
      <point x="372" y="372" type="line"/>
      <point x="372" y="0" type="line"/>
      <point x="434" y="0" type="line"/>
      <point x="434" y="372" type="line"/>
      <point x="403" y="372" type="line"/>
      <point x="403" y="403" type="line"/>
      <point x="372" y="403" type="line"/>
      <point x="372" y="434" type="line"/>
      <point x="62" y="434" type="line"/>
    </contour>
  </outline>
</glyph>
<glyph name="p" format="2">
  <advance width="500"/>
  <unicode hex="0070"/>
  <outline>
    <contour>
      <point x="62" y="-155" type="line"/>
      <point x="124" y="-155" type="line"/>
      <point x="124" y="0" type="line"/>
      <point x="372" y="0" type="line"/>
      <point x="372" y="31" type="line"/>
      <point x="403" y="31" type="line"/>
      <point x="403" y="62" type="line"/>
      <point x="434" y="62" type="line"/>
      <point x="434" y="372" type="line"/>
      <point x="403" y="372" type="line"/>
      <point x="403" y="403" type="line"/>
      <point x="372" y="403" type="line"/>
      <point x="372" y="434" type="line"/>
      <point x="62" y="434" type="line"/>
    </contour>
    <contour>
      <point x="124" y="62" type="line"/>
      <point x="124" y="372" type="line"/>
      <point x="372" y="372" type="line"/>
      <point x="372" y="62" type="line"/>
    </contour>
  </outline>
</glyph>
<glyph name="r" format="2">
  <advance width="500"/>
  <unicode hex="0072"/>
  <anchor x="248" y="496" name="top"/>
  <outline>
    <contour>
      <point x="62" y="0" type="line"/>
      <point x="124" y="0" type="line"/>
      <point x="124" y="279" type="line"/>
      <point x="155" y="279" type="line"/>
      <point x="155" y="310" type="line"/>
      <point x="186" y="310" type="line"/>
      <point x="186" y="341" type="line"/>
      <point x="217" y="341" type="line"/>
      <point x="217" y="372" type="line"/>
      <point x="434" y="372" type="line"/>
      <point x="434" y="434" type="line"/>
      <point x="217" y="434" type="line"/>
      <point x="217" y="403" type="line"/>
      <point x="186" y="403" type="line"/>
      <point x="186" y="372" type="line"/>
      <point x="155" y="372" type="line"/>
      <point x="155" y="341" type="line"/>
      <point x="124" y="341" type="line"/>
      <point x="124" y="434" type="line"/>
      <point x="62" y="434" type="line"/>
    </contour>
  </outline>
  <guideline angle="0" x="0" y="496"/>
  <guideline angle="90" x="62" y="0"/>
  <guideline angle="90" x="434" y="0"/>
  <guideline angle="90" x="248" y="0"/>
</glyph>
<glyph name="t" format="2">
  <advance width="500"/>
  <unicode hex="0074"/>
  <anchor x="248" y="0" name="cedilla"/>
  <anchor x="248" y="-31" name="bottom"/>
  <outline>
    <contour>
      <point x="62" y="372" type="line"/>
      <point x="186" y="372" type="line"/>
      <point x="186" y="62" type="line"/>
      <point x="217" y="62" type="line"/>
      <point x="217" y="31" type="line"/>
      <point x="248" y="31" type="line"/>
      <point x="248" y="0" type="line"/>
      <point x="434" y="0" type="line"/>
      <point x="434" y="62" type="line"/>
      <point x="248" y="62" type="line"/>
      <point x="248" y="372" type="line"/>
      <point x="372" y="372" type="line"/>
      <point x="372" y="434" type="line"/>
      <point x="248" y="434" type="line"/>
      <point x="248" y="620" type="line"/>
      <point x="186" y="620" type="line"/>
      <point x="186" y="434" type="line"/>
      <point x="62" y="434" type="line"/>
    </contour>
  </outline>
</glyph>
<glyph name="u" format="2">
  <advance width="500"/>
  <unicode hex="0075"/>
  <anchor x="248" y="496" name="top"/>
  <anchor x="248" y="504" name="t.macron"/>
  <outline>
    <contour>
      <point x="62" y="62" type="line"/>
      <point x="93" y="62" type="line"/>
      <point x="93" y="31" type="line"/>
      <point x="124" y="31" type="line"/>
      <point x="124" y="0" type="line"/>
      <point x="434" y="0" type="line"/>
      <point x="434" y="434" type="line"/>
      <point x="372" y="434" type="line"/>
      <point x="372" y="62" type="line"/>
      <point x="124" y="62" type="line"/>
      <point x="124" y="434" type="line"/>
      <point x="62" y="434" type="line"/>
    </contour>
  </outline>
  <guideline angle="0" x="0" y="496"/>
  <guideline angle="90" x="62" y="0"/>
  <guideline angle="90" x="434" y="0"/>
  <guideline angle="90" x="248" y="0"/>
</glyph>
<glyph name="v" format="2">
  <advance width="500"/>
  <unicode hex="0076"/>
  <outline>
    <contour>
      <point x="124" y="155" type="line"/>
      <point x="155" y="155" type="line"/>
      <point x="155" y="62" type="line"/>
      <point x="186" y="62" type="line"/>
      <point x="186" y="0" type="line"/>
      <point x="310" y="0" type="line"/>
      <point x="310" y="62" type="line"/>
      <point x="341" y="62" type="line"/>
      <point x="341" y="155" type="line"/>
      <point x="372" y="155" type="line"/>
      <point x="372" y="248" type="line"/>
      <point x="403" y="248" type="line"/>
      <point x="403" y="341" type="line"/>
      <point x="434" y="341" type="line"/>
      <point x="434" y="434" type="line"/>
      <point x="372" y="434" type="line"/>
      <point x="372" y="341" type="line"/>
      <point x="341" y="341" type="line"/>
      <point x="341" y="248" type="line"/>
      <point x="310" y="248" type="line"/>
      <point x="310" y="155" type="line"/>
      <point x="279" y="155" type="line"/>
      <point x="279" y="62" type="line"/>
      <point x="217" y="62" type="line"/>
      <point x="217" y="155" type="line"/>
      <point x="186" y="155" type="line"/>
      <point x="186" y="248" type="line"/>
      <point x="155" y="248" type="line"/>
      <point x="155" y="341" type="line"/>
      <point x="124" y="341" type="line"/>
      <point x="124" y="434" type="line"/>
      <point x="62" y="434" type="line"/>
      <point x="62" y="341" type="line"/>
      <point x="93" y="341" type="line"/>
      <point x="93" y="248" type="line"/>
      <point x="124" y="248" type="line"/>
    </contour>
  </outline>
</glyph>
<glyph name="x" format="2">
  <advance width="500"/>
  <unicode hex="0078"/>
  <outline>
    <contour>
      <point x="62" y="0" type="line"/>
      <point x="124" y="0" type="line"/>
      <point x="124" y="93" type="line"/>
      <point x="155" y="93" type="line"/>
      <point x="155" y="124" type="line"/>
      <point x="186" y="124" type="line"/>
      <point x="186" y="155" type="line"/>
      <point x="217" y="155" type="line"/>
      <point x="217" y="186" type="line"/>
      <point x="279" y="186" type="line"/>
      <point x="279" y="155" type="line"/>
      <point x="310" y="155" type="line"/>
      <point x="310" y="124" type="line"/>
      <point x="341" y="124" type="line"/>
      <point x="341" y="93" type="line"/>
      <point x="372" y="93" type="line"/>
      <point x="372" y="0" type="line"/>
      <point x="434" y="0" type="line"/>
      <point x="434" y="93" type="line"/>
      <point x="403" y="93" type="line"/>
      <point x="403" y="124" type="line"/>
      <point x="372" y="124" type="line"/>
      <point x="372" y="155" type="line"/>
      <point x="341" y="155" type="line"/>
      <point x="341" y="186" type="line"/>
      <point x="310" y="186" type="line"/>
      <point x="310" y="248" type="line"/>
      <point x="341" y="248" type="line"/>
      <point x="341" y="279" type="line"/>
      <point x="372" y="279" type="line"/>
      <point x="372" y="310" type="line"/>
      <point x="403" y="310" type="line"/>
      <point x="403" y="341" type="line"/>
      <point x="434" y="341" type="line"/>
      <point x="434" y="434" type="line"/>
      <point x="372" y="434" type="line"/>
      <point x="372" y="341" type="line"/>
      <point x="341" y="341" type="line"/>
      <point x="341" y="310" type="line"/>
      <point x="310" y="310" type="line"/>
      <point x="310" y="279" type="line"/>
      <point x="279" y="279" type="line"/>
      <point x="279" y="248" type="line"/>
      <point x="217" y="248" type="line"/>
      <point x="217" y="279" type="line"/>
      <point x="186" y="279" type="line"/>
      <point x="186" y="310" type="line"/>
      <point x="155" y="310" type="line"/>
      <point x="155" y="341" type="line"/>
      <point x="124" y="341" type="line"/>
      <point x="124" y="434" type="line"/>
      <point x="62" y="434" type="line"/>
      <point x="62" y="341" type="line"/>
      <point x="93" y="341" type="line"/>
      <point x="93" y="310" type="line"/>
      <point x="124" y="310" type="line"/>
      <point x="124" y="279" type="line"/>
      <point x="155" y="279" type="line"/>
      <point x="155" y="248" type="line"/>
      <point x="186" y="248" type="line"/>
      <point x="186" y="186" type="line"/>
      <point x="155" y="186" type="line"/>
      <point x="155" y="155" type="line"/>
      <point x="124" y="155" type="line"/>
      <point x="124" y="124" type="line"/>
      <point x="93" y="124" type="line"/>
      <point x="93" y="93" type="line"/>
      <point x="62" y="93" type="line"/>
    </contour>
  </outline>
</glyph>
<glyph name="y" format="2">
  <advance width="500"/>
  <unicode hex="0079"/>
  <anchor x="248" y="496" name="top"/>
  <outline>
    <contour>
      <point x="93" y="-155" type="line"/>
      <point x="372" y="-155" type="line"/>
      <point x="372" y="-124" type="line"/>
      <point x="403" y="-124" type="line"/>
      <point x="403" y="-93" type="line"/>
      <point x="434" y="-93" type="line"/>
      <point x="434" y="434" type="line"/>
      <point x="372" y="434" type="line"/>
      <point x="372" y="62" type="line"/>
      <point x="124" y="62" type="line"/>
      <point x="124" y="434" type="line"/>
      <point x="62" y="434" type="line"/>
      <point x="62" y="62" type="line"/>
      <point x="93" y="62" type="line"/>
      <point x="93" y="31" type="line"/>
      <point x="124" y="31" type="line"/>
      <point x="124" y="0" type="line"/>
      <point x="372" y="0" type="line"/>
      <point x="372" y="-93" type="line"/>
      <point x="93" y="-93" type="line"/>
    </contour>
  </outline>
  <guideline angle="0" x="0" y="496"/>
  <guideline angle="90" x="62" y="0"/>
  <guideline angle="90" x="434" y="0"/>
  <guideline angle="90" x="248" y="0"/>
</glyph>
<glyph name="z" format="2">
  <advance width="500"/>
  <unicode hex="007A"/>
  <anchor x="248" y="496" name="top"/>
  <outline>
    <contour>
      <point x="62" y="0" type="line"/>
      <point x="434" y="0" type="line"/>
      <point x="434" y="62" type="line"/>
      <point x="124" y="62" type="line"/>
      <point x="124" y="93" type="line"/>
      <point x="155" y="93" type="line"/>
      <point x="155" y="124" type="line"/>
      <point x="186" y="124" type="line"/>
      <point x="186" y="155" type="line"/>
      <point x="217" y="155" type="line"/>
      <point x="217" y="186" type="line"/>
      <point x="248" y="186" type="line"/>
      <point x="248" y="217" type="line"/>
      <point x="279" y="217" type="line"/>
      <point x="279" y="248" type="line"/>
      <point x="310" y="248" type="line"/>
      <point x="310" y="279" type="line"/>
      <point x="341" y="279" type="line"/>
      <point x="341" y="310" type="line"/>
      <point x="372" y="310" type="line"/>
      <point x="372" y="341" type="line"/>
      <point x="403" y="341" type="line"/>
      <point x="403" y="372" type="line"/>
      <point x="434" y="372" type="line"/>
      <point x="434" y="434" type="line"/>
      <point x="62" y="434" type="line"/>
      <point x="62" y="372" type="line"/>
      <point x="341" y="372" type="line"/>
      <point x="341" y="341" type="line"/>
      <point x="310" y="341" type="line"/>
      <point x="310" y="310" type="line"/>
      <point x="279" y="310" type="line"/>
      <point x="279" y="279" type="line"/>
      <point x="248" y="279" type="line"/>
      <point x="248" y="248" type="line"/>
      <point x="217" y="248" type="line"/>
      <point x="217" y="217" type="line"/>
      <point x="186" y="217" type="line"/>
      <point x="186" y="186" type="line"/>
      <point x="155" y="186" type="line"/>
      <point x="155" y="155" type="line"/>
      <point x="124" y="155" type="line"/>
      <point x="124" y="124" type="line"/>
      <point x="93" y="124" type="line"/>
      <point x="93" y="93" type="line"/>
      <point x="62" y="93" type="line"/>
    </contour>
  </outline>
  <guideline angle="0" x="0" y="496"/>
  <guideline angle="90" x="62" y="0"/>
  <guideline angle="90" x="434" y="0"/>
  <guideline angle="90" x="248" y="0"/>
</glyph>
<glyph name="braceleft" format="2">
  <advance width="500"/>
  <unicode hex="007B"/>
  <outline>
    <contour>
      <point x="124" y="279" type="line"/>
      <point x="186" y="279" type="line"/>
      <point x="186" y="62" type="line"/>
      <point x="217" y="62" type="line"/>
      <point x="217" y="31" type="line"/>
      <point x="248" y="31" type="line"/>
      <point x="248" y="0" type="line"/>
      <point x="372" y="0" type="line"/>
      <point x="372" y="62" type="line"/>
      <point x="248" y="62" type="line"/>
      <point x="248" y="279" type="line"/>
      <point x="217" y="279" type="line"/>
      <point x="217" y="341" type="line"/>
      <point x="248" y="341" type="line"/>
      <point x="248" y="558" type="line"/>
      <point x="372" y="558" type="line"/>
      <point x="372" y="620" type="line"/>
      <point x="248" y="620" type="line"/>
      <point x="248" y="589" type="line"/>
      <point x="217" y="589" type="line"/>
      <point x="217" y="558" type="line"/>
      <point x="186" y="558" type="line"/>
      <point x="186" y="341" type="line"/>
      <point x="124" y="341" type="line"/>
    </contour>
  </outline>
</glyph>
<glyph name="bar" format="2">
  <advance width="500"/>
  <unicode hex="007C"/>
  <outline>
    <contour>
      <point x="217" y="0" type="line"/>
      <point x="279" y="0" type="line"/>
      <point x="279" y="620" type="line"/>
      <point x="217" y="620" type="line"/>
    </contour>
  </outline>
</glyph>
<glyph name="braceright" format="2">
  <advance width="500"/>
  <unicode hex="007D"/>
  <outline>
    <contour>
      <point x="124" y="0" type="line"/>
      <point x="248" y="0" type="line"/>
      <point x="248" y="31" type="line"/>
      <point x="279" y="31" type="line"/>
      <point x="279" y="62" type="line"/>
      <point x="310" y="62" type="line"/>
      <point x="310" y="279" type="line"/>
      <point x="372" y="279" type="line"/>
      <point x="372" y="341" type="line"/>
      <point x="310" y="341" type="line"/>
      <point x="310" y="558" type="line"/>
      <point x="279" y="558" type="line"/>
      <point x="279" y="589" type="line"/>
      <point x="248" y="589" type="line"/>
      <point x="248" y="620" type="line"/>
      <point x="124" y="620" type="line"/>
      <point x="124" y="558" type="line"/>
      <point x="248" y="558" type="line"/>
      <point x="248" y="341" type="line"/>
      <point x="279" y="341" type="line"/>
      <point x="279" y="279" type="line"/>
      <point x="248" y="279" type="line"/>
      <point x="248" y="62" type="line"/>
      <point x="124" y="62" type="line"/>
    </contour>
  </outline>
</glyph>
<glyph name="asciitilde" format="2">
  <advance width="500"/>
  <unicode hex="007E"/>
  <outline>
    <contour>
      <point x="62" y="527" type="line"/>
      <point x="124" y="527" type="line"/>
      <point x="124" y="651" type="line"/>
      <point x="217" y="651" type="line"/>
      <point x="217" y="589" type="line"/>
      <point x="248" y="589" type="line"/>
      <point x="248" y="558" type="line"/>
      <point x="279" y="558" type="line"/>
      <point x="279" y="527" type="line"/>
      <point x="372" y="527" type="line"/>
      <point x="372" y="558" type="line"/>
      <point x="403" y="558" type="line"/>
      <point x="403" y="589" type="line"/>
      <point x="434" y="589" type="line"/>
      <point x="434" y="713" type="line"/>
      <point x="372" y="713" type="line"/>
      <point x="372" y="589" type="line"/>
      <point x="279" y="589" type="line"/>
      <point x="279" y="651" type="line"/>
      <point x="248" y="651" type="line"/>
      <point x="248" y="682" type="line"/>
      <point x="217" y="682" type="line"/>
      <point x="217" y="713" type="line"/>
      <point x="124" y="713" type="line"/>
      <point x="124" y="682" type="line"/>
      <point x="93" y="682" type="line"/>
      <point x="93" y="651" type="line"/>
      <point x="62" y="651" type="line"/>
    </contour>
  </outline>
</glyph>
<glyph name="exclamdown" format="2">
  <advance width="500"/>
  <unicode hex="00A1"/>
  <outline>
    <contour>
      <point x="217" y="496" type="line"/>
      <point x="279" y="496" type="line"/>
      <point x="279" y="620" type="line"/>
      <point x="217" y="620" type="line"/>
    </contour>
    <contour>
      <point x="217" y="0" type="line"/>
      <point x="279" y="0" type="line"/>
      <point x="279" y="434" type="line"/>
      <point x="217" y="434" type="line"/>
    </contour>
  </outline>
</glyph>
<glyph name="cent" format="2">
  <advance width="500"/>
  <unicode hex="00A2"/>
  <outline>
    <contour>
      <point x="62" y="62" type="line"/>
      <point x="93" y="62" type="line"/>
      <point x="93" y="31" type="line"/>
      <point x="124" y="31" type="line"/>
      <point x="124" y="0" type="line"/>
      <point x="217" y="0" type="line"/>
      <point x="217" y="-93" type="line"/>
      <point x="279" y="-93" type="line"/>
      <point x="279" y="0" type="line"/>
      <point x="372" y="0" type="line"/>
      <point x="372" y="31" type="line"/>
      <point x="403" y="31" type="line"/>
      <point x="403" y="62" type="line"/>
      <point x="434" y="62" type="line"/>
      <point x="434" y="124" type="line"/>
      <point x="372" y="124" type="line"/>
      <point x="372" y="62" type="line"/>
      <point x="279" y="62" type="line"/>
      <point x="279" y="372" type="line"/>
      <point x="372" y="372" type="line"/>
      <point x="372" y="310" type="line"/>
      <point x="434" y="310" type="line"/>
      <point x="434" y="372" type="line"/>
      <point x="403" y="372" type="line"/>
      <point x="403" y="403" type="line"/>
      <point x="372" y="403" type="line"/>
      <point x="372" y="434" type="line"/>
      <point x="279" y="434" type="line"/>
      <point x="279" y="527" type="line"/>
      <point x="217" y="527" type="line"/>
      <point x="217" y="434" type="line"/>
      <point x="124" y="434" type="line"/>
      <point x="124" y="403" type="line"/>
      <point x="93" y="403" type="line"/>
      <point x="93" y="372" type="line"/>
      <point x="62" y="372" type="line"/>
    </contour>
    <contour>
      <point x="124" y="62" type="line"/>
      <point x="124" y="372" type="line"/>
      <point x="217" y="372" type="line"/>
      <point x="217" y="62" type="line"/>
    </contour>
  </outline>
</glyph>
<glyph name="sterling" format="2">
  <advance width="500"/>
  <unicode hex="00A3"/>
  <outline>
    <contour>
      <point x="62" y="0" type="line"/>
      <point x="434" y="0" type="line"/>
      <point x="434" y="124" type="line"/>
      <point x="372" y="124" type="line"/>
      <point x="372" y="62" type="line"/>
      <point x="186" y="62" type="line"/>
      <point x="186" y="279" type="line"/>
      <point x="341" y="279" type="line"/>
      <point x="341" y="341" type="line"/>
      <point x="186" y="341" type="line"/>
      <point x="186" y="558" type="line"/>
      <point x="341" y="558" type="line"/>
      <point x="341" y="496" type="line"/>
      <point x="403" y="496" type="line"/>
      <point x="403" y="558" type="line"/>
      <point x="372" y="558" type="line"/>
      <point x="372" y="589" type="line"/>
      <point x="341" y="589" type="line"/>
      <point x="341" y="620" type="line"/>
      <point x="186" y="620" type="line"/>
      <point x="186" y="589" type="line"/>
      <point x="155" y="589" type="line"/>
      <point x="155" y="558" type="line"/>
      <point x="124" y="558" type="line"/>
      <point x="124" y="341" type="line"/>
      <point x="62" y="341" type="line"/>
      <point x="62" y="279" type="line"/>
      <point x="124" y="279" type="line"/>
      <point x="124" y="62" type="line"/>
      <point x="62" y="62" type="line"/>
    </contour>
  </outline>
</glyph>
<glyph name="currency" format="2">
  <advance width="500"/>
  <unicode hex="00A4"/>
  <outline>
    <contour>
      <point x="62" y="93" type="line"/>
      <point x="124" y="93" type="line"/>
      <point x="124" y="124" type="line"/>
      <point x="155" y="124" type="line"/>
      <point x="155" y="155" type="line"/>
      <point x="341" y="155" type="line"/>
      <point x="341" y="124" type="line"/>
      <point x="372" y="124" type="line"/>
      <point x="372" y="93" type="line"/>
      <point x="434" y="93" type="line"/>
      <point x="434" y="124" type="line"/>
      <point x="403" y="124" type="line"/>
      <point x="403" y="155" type="line"/>
      <point x="372" y="155" type="line"/>
      <point x="372" y="217" type="line"/>
      <point x="403" y="217" type="line"/>
      <point x="403" y="403" type="line"/>
      <point x="372" y="403" type="line"/>
      <point x="372" y="465" type="line"/>
      <point x="403" y="465" type="line"/>
      <point x="403" y="496" type="line"/>
      <point x="434" y="496" type="line"/>
      <point x="434" y="527" type="line"/>
      <point x="372" y="527" type="line"/>
      <point x="372" y="496" type="line"/>
      <point x="341" y="496" type="line"/>
      <point x="341" y="465" type="line"/>
      <point x="155" y="465" type="line"/>
      <point x="155" y="496" type="line"/>
      <point x="124" y="496" type="line"/>
      <point x="124" y="527" type="line"/>
      <point x="62" y="527" type="line"/>
      <point x="62" y="496" type="line"/>
      <point x="93" y="496" type="line"/>
      <point x="93" y="465" type="line"/>
      <point x="124" y="465" type="line"/>
      <point x="124" y="403" type="line"/>
      <point x="93" y="403" type="line"/>
      <point x="93" y="217" type="line"/>
      <point x="124" y="217" type="line"/>
      <point x="124" y="155" type="line"/>
      <point x="93" y="155" type="line"/>
      <point x="93" y="124" type="line"/>
      <point x="62" y="124" type="line"/>
    </contour>
    <contour>
      <point x="155" y="217" type="line"/>
      <point x="155" y="403" type="line"/>
      <point x="341" y="403" type="line"/>
      <point x="341" y="217" type="line"/>
    </contour>
  </outline>
</glyph>
<glyph name="brokenbar" format="2">
  <advance width="500"/>
  <unicode hex="00A6"/>
  <outline>
    <contour>
      <point x="217" y="372" type="line"/>
      <point x="279" y="372" type="line"/>
      <point x="279" y="620" type="line"/>
      <point x="217" y="620" type="line"/>
    </contour>
    <contour>
      <point x="217" y="0" type="line"/>
      <point x="279" y="0" type="line"/>
      <point x="279" y="248" type="line"/>
      <point x="217" y="248" type="line"/>
    </contour>
  </outline>
</glyph>
<glyph name="section" format="2">
  <advance width="500"/>
  <unicode hex="00A7"/>
  <outline>
    <contour>
      <point x="93" y="31" type="line"/>
      <point x="124" y="31" type="line"/>
      <point x="124" y="0" type="line"/>
      <point x="155" y="0" type="line"/>
      <point x="155" y="-31" type="line"/>
      <point x="341" y="-31" type="line"/>
      <point x="341" y="0" type="line"/>
      <point x="372" y="0" type="line"/>
      <point x="372" y="31" type="line"/>
      <point x="403" y="31" type="line"/>
      <point x="403" y="155" type="line"/>
      <point x="372" y="155" type="line"/>
      <point x="372" y="217" type="line"/>
      <point x="403" y="217" type="line"/>
      <point x="403" y="403" type="line"/>
      <point x="372" y="403" type="line"/>
      <point x="372" y="434" type="line"/>
      <point x="341" y="434" type="line"/>
      <point x="341" y="465" type="line"/>
      <point x="310" y="465" type="line"/>
      <point x="310" y="496" type="line"/>
      <point x="186" y="496" type="line"/>
      <point x="186" y="527" type="line"/>
      <point x="155" y="527" type="line"/>
      <point x="155" y="620" type="line"/>
      <point x="341" y="620" type="line"/>
      <point x="341" y="558" type="line"/>
      <point x="403" y="558" type="line"/>
      <point x="403" y="620" type="line"/>
      <point x="372" y="620" type="line"/>
      <point x="372" y="651" type="line"/>
      <point x="341" y="651" type="line"/>
      <point x="341" y="682" type="line"/>
      <point x="155" y="682" type="line"/>
      <point x="155" y="651" type="line"/>
      <point x="124" y="651" type="line"/>
      <point x="124" y="620" type="line"/>
      <point x="93" y="620" type="line"/>
      <point x="93" y="496" type="line"/>
      <point x="124" y="496" type="line"/>
      <point x="124" y="434" type="line"/>
      <point x="93" y="434" type="line"/>
      <point x="93" y="248" type="line"/>
      <point x="124" y="248" type="line"/>
      <point x="124" y="217" type="line"/>
      <point x="155" y="217" type="line"/>
      <point x="155" y="186" type="line"/>
      <point x="186" y="186" type="line"/>
      <point x="186" y="155" type="line"/>
      <point x="310" y="155" type="line"/>
      <point x="310" y="124" type="line"/>
      <point x="341" y="124" type="line"/>
      <point x="341" y="31" type="line"/>
      <point x="155" y="31" type="line"/>
      <point x="155" y="93" type="line"/>
      <point x="93" y="93" type="line"/>
    </contour>
    <contour>
      <point x="155" y="248" type="line"/>
      <point x="155" y="434" type="line"/>
      <point x="310" y="434" type="line"/>
      <point x="310" y="403" type="line"/>
      <point x="341" y="403" type="line"/>
      <point x="341" y="217" type="line"/>
      <point x="186" y="217" type="line"/>
      <point x="186" y="248" type="line"/>
    </contour>
  </outline>
</glyph>
<glyph name="dieresis" format="2">
  <advance width="500"/>
  <unicode hex="00A8"/>
  <outline>
    <contour>
      <point x="124" y="527" type="line"/>
      <point x="186" y="527" type="line"/>
      <point x="186" y="651" type="line"/>
      <point x="124" y="651" type="line"/>
    </contour>
    <contour>
      <point x="310" y="527" type="line"/>
      <point x="372" y="527" type="line"/>
      <point x="372" y="651" type="line"/>
      <point x="310" y="651" type="line"/>
    </contour>
  </outline>
  <guideline angle="0" x="0" y="527"/>
</glyph>
<glyph name="guillemotleft" format="2">
  <advance width="500"/>
  <unicode hex="00AB"/>
  <outline>
    <contour>
      <point x="62" y="155" type="line"/>
      <point x="93" y="155" type="line"/>
      <point x="93" y="124" type="line"/>
      <point x="124" y="124" type="line"/>
      <point x="124" y="93" type="line"/>
      <point x="155" y="93" type="line"/>
      <point x="155" y="62" type="line"/>
      <point x="186" y="62" type="line"/>
      <point x="186" y="31" type="line"/>
      <point x="217" y="31" type="line"/>
      <point x="217" y="0" type="line"/>
      <point x="310" y="0" type="line"/>
      <point x="310" y="31" type="line"/>
      <point x="279" y="31" type="line"/>
      <point x="279" y="62" type="line"/>
      <point x="248" y="62" type="line"/>
      <point x="248" y="93" type="line"/>
      <point x="217" y="93" type="line"/>
      <point x="217" y="124" type="line"/>
      <point x="186" y="124" type="line"/>
      <point x="186" y="155" type="line"/>
      <point x="155" y="155" type="line"/>
      <point x="155" y="186" type="line"/>
      <point x="124" y="186" type="line"/>
      <point x="124" y="248" type="line"/>
      <point x="155" y="248" type="line"/>
      <point x="155" y="279" type="line"/>
      <point x="186" y="279" type="line"/>
      <point x="186" y="310" type="line"/>
      <point x="217" y="310" type="line"/>
      <point x="217" y="341" type="line"/>
      <point x="248" y="341" type="line"/>
      <point x="248" y="372" type="line"/>
      <point x="279" y="372" type="line"/>
      <point x="279" y="403" type="line"/>
      <point x="310" y="403" type="line"/>
      <point x="310" y="434" type="line"/>
      <point x="217" y="434" type="line"/>
      <point x="217" y="403" type="line"/>
      <point x="186" y="403" type="line"/>
      <point x="186" y="372" type="line"/>
      <point x="155" y="372" type="line"/>
      <point x="155" y="341" type="line"/>
      <point x="124" y="341" type="line"/>
      <point x="124" y="310" type="line"/>
      <point x="93" y="310" type="line"/>
      <point x="93" y="279" type="line"/>
      <point x="62" y="279" type="line"/>
      <point x="62" y="248" type="line"/>
      <point x="31" y="248" type="line"/>
      <point x="31" y="186" type="line"/>
      <point x="62" y="186" type="line"/>
    </contour>
    <contour>
      <point x="217" y="155" type="line"/>
      <point x="248" y="155" type="line"/>
      <point x="248" y="124" type="line"/>
      <point x="279" y="124" type="line"/>
      <point x="279" y="93" type="line"/>
      <point x="310" y="93" type="line"/>
      <point x="310" y="62" type="line"/>
      <point x="341" y="62" type="line"/>
      <point x="341" y="31" type="line"/>
      <point x="372" y="31" type="line"/>
      <point x="372" y="0" type="line"/>
      <point x="465" y="0" type="line"/>
      <point x="465" y="31" type="line"/>
      <point x="434" y="31" type="line"/>
      <point x="434" y="62" type="line"/>
      <point x="403" y="62" type="line"/>
      <point x="403" y="93" type="line"/>
      <point x="372" y="93" type="line"/>
      <point x="372" y="124" type="line"/>
      <point x="341" y="124" type="line"/>
      <point x="341" y="155" type="line"/>
      <point x="310" y="155" type="line"/>
      <point x="310" y="186" type="line"/>
      <point x="279" y="186" type="line"/>
      <point x="279" y="248" type="line"/>
      <point x="310" y="248" type="line"/>
      <point x="310" y="279" type="line"/>
      <point x="341" y="279" type="line"/>
      <point x="341" y="310" type="line"/>
      <point x="372" y="310" type="line"/>
      <point x="372" y="341" type="line"/>
      <point x="403" y="341" type="line"/>
      <point x="403" y="372" type="line"/>
      <point x="434" y="372" type="line"/>
      <point x="434" y="403" type="line"/>
      <point x="465" y="403" type="line"/>
      <point x="465" y="434" type="line"/>
      <point x="372" y="434" type="line"/>
      <point x="372" y="403" type="line"/>
      <point x="341" y="403" type="line"/>
      <point x="341" y="372" type="line"/>
      <point x="310" y="372" type="line"/>
      <point x="310" y="341" type="line"/>
      <point x="279" y="341" type="line"/>
      <point x="279" y="310" type="line"/>
      <point x="248" y="310" type="line"/>
      <point x="248" y="279" type="line"/>
      <point x="217" y="279" type="line"/>
      <point x="217" y="248" type="line"/>
      <point x="186" y="248" type="line"/>
      <point x="186" y="186" type="line"/>
      <point x="217" y="186" type="line"/>
    </contour>
  </outline>
</glyph>
<glyph name="logicalnot" format="2">
  <advance width="500"/>
  <unicode hex="00AC"/>
  <outline>
    <contour>
      <point x="62" y="372" type="line"/>
      <point x="372" y="372" type="line"/>
      <point x="372" y="186" type="line"/>
      <point x="434" y="186" type="line"/>
      <point x="434" y="434" type="line"/>
      <point x="62" y="434" type="line"/>
    </contour>
  </outline>
</glyph>
<glyph name="uni00AD" format="2">
  <advance width="500"/>
  <unicode hex="00AD"/>
  <outline>
    <contour>
      <point x="93" y="279" type="line"/>
      <point x="403" y="279" type="line"/>
      <point x="403" y="341" type="line"/>
      <point x="93" y="341" type="line"/>
    </contour>
  </outline>
</glyph>
<glyph name="registered" format="2">
  <advance width="500"/>
  <unicode hex="00AE"/>
  <outline>
    <contour>
      <point x="31" y="124" type="line"/>
      <point x="62" y="124" type="line"/>
      <point x="62" y="93" type="line"/>
      <point x="93" y="93" type="line"/>
      <point x="93" y="62" type="line"/>
      <point x="407" y="62" type="line"/>
      <point x="407" y="93" type="line"/>
      <point x="438" y="93" type="line"/>
      <point x="438" y="124" type="line"/>
      <point x="469" y="124" type="line"/>
      <point x="469" y="496" type="line"/>
      <point x="438" y="496" type="line"/>
      <point x="438" y="527" type="line"/>
      <point x="407" y="527" type="line"/>
      <point x="407" y="558" type="line"/>
      <point x="93" y="558" type="line"/>
      <point x="93" y="527" type="line"/>
      <point x="62" y="527" type="line"/>
      <point x="62" y="496" type="line"/>
      <point x="31" y="496" type="line"/>
    </contour>
    <contour>
      <point x="93" y="124" type="line"/>
      <point x="93" y="496" type="line"/>
      <point x="407" y="496" type="line"/>
      <point x="407" y="124" type="line"/>
    </contour>
    <contour>
      <point x="124" y="155" type="line"/>
      <point x="186" y="155" type="line"/>
      <point x="186" y="248" type="line"/>
      <point x="217" y="248" type="line"/>
      <point x="217" y="217" type="line"/>
      <point x="248" y="217" type="line"/>
      <point x="248" y="186" type="line"/>
      <point x="279" y="186" type="line"/>
      <point x="279" y="155" type="line"/>
      <point x="372" y="155" type="line"/>
      <point x="372" y="186" type="line"/>
      <point x="341" y="186" type="line"/>
      <point x="341" y="217" type="line"/>
      <point x="310" y="217" type="line"/>
      <point x="310" y="279" type="line"/>
      <point x="341" y="279" type="line"/>
      <point x="341" y="310" type="line"/>
      <point x="372" y="310" type="line"/>
      <point x="372" y="434" type="line"/>
      <point x="341" y="434" type="line"/>
      <point x="341" y="465" type="line"/>
      <point x="124" y="465" type="line"/>
    </contour>
    <contour>
      <point x="186" y="310" type="line"/>
      <point x="186" y="403" type="line"/>
      <point x="310" y="403" type="line"/>
      <point x="310" y="310" type="line"/>
    </contour>
  </outline>
</glyph>
<glyph name="macron" format="2">
  <advance width="500"/>
  <unicode hex="00AF"/>
  <outline>
    <contour>
      <point x="95" y="527" type="line"/>
      <point x="405" y="527" type="line"/>
      <point x="405" y="589" type="line"/>
      <point x="95" y="589" type="line"/>
    </contour>
  </outline>
  <guideline angle="0" x="0" y="527"/>
</glyph>
<glyph name="degree" format="2">
  <advance width="500"/>
  <unicode hex="00B0"/>
  <outline>
    <contour>
      <point x="124" y="496" type="line"/>
      <point x="155" y="496" type="line"/>
      <point x="155" y="465" type="line"/>
      <point x="341" y="465" type="line"/>
      <point x="341" y="496" type="line"/>
      <point x="372" y="496" type="line"/>
      <point x="372" y="682" type="line"/>
      <point x="341" y="682" type="line"/>
      <point x="341" y="713" type="line"/>
      <point x="155" y="713" type="line"/>
      <point x="155" y="682" type="line"/>
      <point x="124" y="682" type="line"/>
    </contour>
    <contour>
      <point x="186" y="527" type="line"/>
      <point x="186" y="651" type="line"/>
      <point x="310" y="651" type="line"/>
      <point x="310" y="527" type="line"/>
    </contour>
  </outline>
</glyph>
<glyph name="plusminus" format="2">
  <advance width="500"/>
  <unicode hex="00B1"/>
  <outline>
    <contour>
      <point x="62" y="279" type="line"/>
      <point x="217" y="279" type="line"/>
      <point x="217" y="124" type="line"/>
      <point x="279" y="124" type="line"/>
      <point x="279" y="279" type="line"/>
      <point x="434" y="279" type="line"/>
      <point x="434" y="341" type="line"/>
      <point x="279" y="341" type="line"/>
      <point x="279" y="496" type="line"/>
      <point x="217" y="496" type="line"/>
      <point x="217" y="341" type="line"/>
      <point x="62" y="341" type="line"/>
    </contour>
    <contour>
      <point x="62" y="0" type="line"/>
      <point x="434" y="0" type="line"/>
      <point x="434" y="62" type="line"/>
      <point x="62" y="62" type="line"/>
    </contour>
  </outline>
</glyph>
<glyph name="uni00B3" format="2">
  <advance width="500"/>
  <unicode hex="00B3"/>
  <outline>
    <contour>
      <point x="124" y="465" type="line"/>
      <point x="155" y="465" type="line"/>
      <point x="155" y="434" type="line"/>
      <point x="341" y="434" type="line"/>
      <point x="341" y="465" type="line"/>
      <point x="372" y="465" type="line"/>
      <point x="372" y="558" type="line"/>
      <point x="341" y="558" type="line"/>
      <point x="341" y="620" type="line"/>
      <point x="372" y="620" type="line"/>
      <point x="372" y="682" type="line"/>
      <point x="341" y="682" type="line"/>
      <point x="341" y="713" type="line"/>
      <point x="155" y="713" type="line"/>
      <point x="155" y="682" type="line"/>
      <point x="124" y="682" type="line"/>
      <point x="124" y="620" type="line"/>
      <point x="186" y="620" type="line"/>
      <point x="186" y="651" type="line"/>
      <point x="310" y="651" type="line"/>
      <point x="310" y="620" type="line"/>
      <point x="217" y="620" type="line"/>
      <point x="217" y="558" type="line"/>
      <point x="310" y="558" type="line"/>
      <point x="310" y="496" type="line"/>
      <point x="186" y="496" type="line"/>
      <point x="186" y="527" type="line"/>
      <point x="124" y="527" type="line"/>
    </contour>
  </outline>
</glyph>
<glyph name="acute" format="2">
  <advance width="500"/>
  <unicode hex="00B4"/>
  <outline>
    <contour>
      <point x="186" y="526.687" type="line"/>
      <point x="279" y="526.687" type="line"/>
      <point x="279" y="557.687" type="line"/>
      <point x="310" y="557.687" type="line"/>
      <point x="310" y="588.687" type="line"/>
      <point x="341" y="588.687" type="line"/>
      <point x="341" y="619.687" type="line"/>
      <point x="372" y="619.687" type="line"/>
      <point x="372" y="650.687" type="line"/>
      <point x="279" y="650.687" type="line"/>
      <point x="279" y="619.687" type="line"/>
      <point x="248" y="619.687" type="line"/>
      <point x="248" y="588.687" type="line"/>
      <point x="217" y="588.687" type="line"/>
      <point x="217" y="557.687" type="line"/>
      <point x="186" y="557.687" type="line"/>
    </contour>
  </outline>
  <guideline angle="0" x="0" y="527"/>
</glyph>
<glyph name="mu" format="2">
  <advance width="500"/>
  <unicode hex="00B5"/>
  <outline>
    <contour>
      <point x="62" y="-155" type="line"/>
      <point x="124" y="-155" type="line"/>
      <point x="124" y="0" type="line"/>
      <point x="310" y="0" type="line"/>
      <point x="310" y="31" type="line"/>
      <point x="341" y="31" type="line"/>
      <point x="341" y="62" type="line"/>
      <point x="372" y="62" type="line"/>
      <point x="372" y="0" type="line"/>
      <point x="434" y="0" type="line"/>
      <point x="434" y="434" type="line"/>
      <point x="372" y="434" type="line"/>
      <point x="372" y="155" type="line"/>
      <point x="372" y="155" type="line"/>
      <point x="372" y="124" type="line"/>
      <point x="341" y="124" type="line"/>
      <point x="341" y="93" type="line"/>
      <point x="303.8" y="93" type="line"/>
      <point x="303.8" y="62" type="line"/>
      <point x="124" y="62" type="line"/>
      <point x="124" y="434" type="line"/>
      <point x="62" y="434" type="line"/>
    </contour>
  </outline>
</glyph>
<glyph name="paragraph" format="2">
  <advance width="500"/>
  <unicode hex="00B6"/>
  <outline>
    <contour>
      <point x="62" y="279" type="line"/>
      <point x="217" y="279" type="line"/>
      <point x="217" y="0" type="line"/>
      <point x="279" y="0" type="line"/>
      <point x="279" y="558" type="line"/>
      <point x="372" y="558" type="line"/>
      <point x="372" y="0" type="line"/>
      <point x="434" y="0" type="line"/>
      <point x="434" y="620" type="line"/>
      <point x="62" y="620" type="line"/>
      <point x="62" y="589" type="line"/>
      <point x="31" y="589" type="line"/>
      <point x="31" y="310" type="line"/>
      <point x="62" y="310" type="line"/>
    </contour>
    <contour>
      <point x="93" y="341" type="line"/>
      <point x="93" y="558" type="line"/>
      <point x="217" y="558" type="line"/>
      <point x="217" y="341" type="line"/>
    </contour>
  </outline>
</glyph>
<glyph name="cedilla" format="2">
  <advance width="500"/>
  <unicode hex="00B8"/>
  <outline>
    <contour>
      <point x="155" y="-155" type="line"/>
      <point x="217" y="-155" type="line"/>
      <point x="217" y="-124" type="line"/>
      <point x="248" y="-124" type="line"/>
      <point x="248" y="-93" type="line"/>
      <point x="279" y="-93" type="line"/>
      <point x="279" y="0" type="line"/>
      <point x="217" y="0" type="line"/>
      <point x="217" y="-93" type="line"/>
      <point x="186" y="-93" type="line"/>
      <point x="186" y="-124" type="line"/>
      <point x="155" y="-124" type="line"/>
    </contour>
  </outline>
</glyph>
<glyph name="uni00B9" format="2">
  <advance width="500"/>
  <unicode hex="00B9"/>
  <outline>
    <contour>
      <point x="155" y="434" type="line"/>
      <point x="341" y="434" type="line"/>
      <point x="341" y="465" type="line"/>
      <point x="279" y="465" type="line"/>
      <point x="279" y="713" type="line"/>
      <point x="217" y="713" type="line"/>
      <point x="217" y="682" type="line"/>
      <point x="186" y="682" type="line"/>
      <point x="186" y="651" type="line"/>
      <point x="155" y="651" type="line"/>
      <point x="155" y="620" type="line"/>
      <point x="217" y="620" type="line"/>
      <point x="217" y="465" type="line"/>
      <point x="155" y="465" type="line"/>
    </contour>
  </outline>
</glyph>
<glyph name="ordmasculine" format="2">
  <advance width="500"/>
  <unicode hex="00BA"/>
  <outline>
    <contour>
      <point x="93" y="465" type="line"/>
      <point x="124" y="465" type="line"/>
      <point x="124" y="434" type="line"/>
      <point x="155" y="434" type="line"/>
      <point x="155" y="403" type="line"/>
      <point x="341" y="403" type="line"/>
      <point x="341" y="434" type="line"/>
      <point x="372" y="434" type="line"/>
      <point x="372" y="465" type="line"/>
      <point x="403" y="465" type="line"/>
      <point x="403" y="682" type="line"/>
      <point x="372" y="682" type="line"/>
      <point x="372" y="713" type="line"/>
      <point x="341" y="713" type="line"/>
      <point x="341" y="744" type="line"/>
      <point x="155" y="744" type="line"/>
      <point x="155" y="713" type="line"/>
      <point x="124" y="713" type="line"/>
      <point x="124" y="682" type="line"/>
      <point x="93" y="682" type="line"/>
    </contour>
    <contour>
      <point x="155" y="465" type="line"/>
      <point x="155" y="682" type="line"/>
      <point x="341" y="682" type="line"/>
      <point x="341" y="465" type="line"/>
    </contour>
    <contour>
      <point x="93" y="279" type="line"/>
      <point x="403" y="279" type="line"/>
      <point x="403" y="341" type="line"/>
      <point x="93" y="341" type="line"/>
    </contour>
  </outline>
</glyph>
<glyph name="guillemotright" format="2">
  <advance width="500"/>
  <unicode hex="00BB"/>
  <outline>
    <contour>
      <point x="31" y="0" type="line"/>
      <point x="124" y="0" type="line"/>
      <point x="124" y="31" type="line"/>
      <point x="155" y="31" type="line"/>
      <point x="155" y="62" type="line"/>
      <point x="186" y="62" type="line"/>
      <point x="186" y="93" type="line"/>
      <point x="217" y="93" type="line"/>
      <point x="217" y="124" type="line"/>
      <point x="248" y="124" type="line"/>
      <point x="248" y="155" type="line"/>
      <point x="279" y="155" type="line"/>
      <point x="279" y="186" type="line"/>
      <point x="310" y="186" type="line"/>
      <point x="310" y="248" type="line"/>
      <point x="279" y="248" type="line"/>
      <point x="279" y="279" type="line"/>
      <point x="248" y="279" type="line"/>
      <point x="248" y="310" type="line"/>
      <point x="217" y="310" type="line"/>
      <point x="217" y="341" type="line"/>
      <point x="186" y="341" type="line"/>
      <point x="186" y="372" type="line"/>
      <point x="155" y="372" type="line"/>
      <point x="155" y="403" type="line"/>
      <point x="124" y="403" type="line"/>
      <point x="124" y="434" type="line"/>
      <point x="31" y="434" type="line"/>
      <point x="31" y="403" type="line"/>
      <point x="62" y="403" type="line"/>
      <point x="62" y="372" type="line"/>
      <point x="93" y="372" type="line"/>
      <point x="93" y="341" type="line"/>
      <point x="124" y="341" type="line"/>
      <point x="124" y="310" type="line"/>
      <point x="155" y="310" type="line"/>
      <point x="155" y="279" type="line"/>
      <point x="186" y="279" type="line"/>
      <point x="186" y="248" type="line"/>
      <point x="217" y="248" type="line"/>
      <point x="217" y="186" type="line"/>
      <point x="186" y="186" type="line"/>
      <point x="186" y="155" type="line"/>
      <point x="155" y="155" type="line"/>
      <point x="155" y="124" type="line"/>
      <point x="124" y="124" type="line"/>
      <point x="124" y="93" type="line"/>
      <point x="93" y="93" type="line"/>
      <point x="93" y="62" type="line"/>
      <point x="62" y="62" type="line"/>
      <point x="62" y="31" type="line"/>
      <point x="31" y="31" type="line"/>
    </contour>
    <contour>
      <point x="186" y="0" type="line"/>
      <point x="279" y="0" type="line"/>
      <point x="279" y="31" type="line"/>
      <point x="310" y="31" type="line"/>
      <point x="310" y="62" type="line"/>
      <point x="341" y="62" type="line"/>
      <point x="341" y="93" type="line"/>
      <point x="372" y="93" type="line"/>
      <point x="372" y="124" type="line"/>
      <point x="403" y="124" type="line"/>
      <point x="403" y="155" type="line"/>
      <point x="434" y="155" type="line"/>
      <point x="434" y="186" type="line"/>
      <point x="465" y="186" type="line"/>
      <point x="465" y="248" type="line"/>
      <point x="434" y="248" type="line"/>
      <point x="434" y="279" type="line"/>
      <point x="403" y="279" type="line"/>
      <point x="403" y="310" type="line"/>
      <point x="372" y="310" type="line"/>
      <point x="372" y="341" type="line"/>
      <point x="341" y="341" type="line"/>
      <point x="341" y="372" type="line"/>
      <point x="310" y="372" type="line"/>
      <point x="310" y="403" type="line"/>
      <point x="279" y="403" type="line"/>
      <point x="279" y="434" type="line"/>
      <point x="186" y="434" type="line"/>
      <point x="186" y="403" type="line"/>
      <point x="217" y="403" type="line"/>
      <point x="217" y="372" type="line"/>
      <point x="248" y="372" type="line"/>
      <point x="248" y="341" type="line"/>
      <point x="279" y="341" type="line"/>
      <point x="279" y="310" type="line"/>
      <point x="310" y="310" type="line"/>
      <point x="310" y="279" type="line"/>
      <point x="341" y="279" type="line"/>
      <point x="341" y="248" type="line"/>
      <point x="372" y="248" type="line"/>
      <point x="372" y="186" type="line"/>
      <point x="341" y="186" type="line"/>
      <point x="341" y="155" type="line"/>
      <point x="310" y="155" type="line"/>
      <point x="310" y="124" type="line"/>
      <point x="279" y="124" type="line"/>
      <point x="279" y="93" type="line"/>
      <point x="248" y="93" type="line"/>
      <point x="248" y="62" type="line"/>
      <point x="217" y="62" type="line"/>
      <point x="217" y="31" type="line"/>
      <point x="186" y="31" type="line"/>
    </contour>
  </outline>
</glyph>
<glyph name="questiondown" format="2">
  <advance width="500"/>
  <unicode hex="00BF"/>
  <outline>
    <contour>
      <point x="217" y="496" type="line"/>
      <point x="279" y="496" type="line"/>
      <point x="279" y="620" type="line"/>
      <point x="217" y="620" type="line"/>
    </contour>
    <contour>
      <point x="62" y="62" type="line"/>
      <point x="93" y="62" type="line"/>
      <point x="93" y="31" type="line"/>
      <point x="124" y="31" type="line"/>
      <point x="124" y="0" type="line"/>
      <point x="372" y="0" type="line"/>
      <point x="372" y="31" type="line"/>
      <point x="403" y="31" type="line"/>
      <point x="403" y="62" type="line"/>
      <point x="434" y="62" type="line"/>
      <point x="434" y="217" type="line"/>
      <point x="372" y="217" type="line"/>
      <point x="372" y="62" type="line"/>
      <point x="124" y="62" type="line"/>
      <point x="124" y="217" type="line"/>
      <point x="155" y="217" type="line"/>
      <point x="155" y="248" type="line"/>
      <point x="186" y="248" type="line"/>
      <point x="186" y="279" type="line"/>
      <point x="217" y="279" type="line"/>
      <point x="217" y="310" type="line"/>
      <point x="248" y="310" type="line"/>
      <point x="248" y="341" type="line"/>
      <point x="279" y="341" type="line"/>
      <point x="279" y="434" type="line"/>
      <point x="217" y="434" type="line"/>
      <point x="217" y="341" type="line"/>
      <point x="186" y="341" type="line"/>
      <point x="186" y="310" type="line"/>
      <point x="155" y="310" type="line"/>
      <point x="155" y="279" type="line"/>
      <point x="124" y="279" type="line"/>
      <point x="124" y="248" type="line"/>
      <point x="93" y="248" type="line"/>
      <point x="93" y="217" type="line"/>
      <point x="62" y="217" type="line"/>
    </contour>
  </outline>
</glyph>
<glyph name="Aring" format="2">
  <advance width="500"/>
  <unicode hex="00C5"/>
  <outline>
    <contour>
      <point x="62" y="0" type="line"/>
      <point x="124" y="0" type="line"/>
      <point x="124" y="248" type="line"/>
      <point x="372" y="248" type="line"/>
      <point x="372" y="0" type="line"/>
      <point x="434" y="0" type="line"/>
      <point x="434" y="558" type="line"/>
      <point x="403" y="558" type="line"/>
      <point x="403" y="589" type="line"/>
      <point x="372" y="589" type="line"/>
      <point x="372" y="620" type="line"/>
      <point x="310" y="620" type="line"/>
      <point x="310" y="651" type="line"/>
      <point x="341" y="651" type="line"/>
      <point x="341" y="744" type="line"/>
      <point x="310" y="744" type="line"/>
      <point x="310" y="775" type="line"/>
      <point x="186" y="775" type="line"/>
      <point x="186" y="744" type="line"/>
      <point x="155" y="744" type="line"/>
      <point x="155" y="651" type="line"/>
      <point x="186" y="651" type="line"/>
      <point x="186" y="620" type="line"/>
      <point x="124" y="620" type="line"/>
      <point x="124" y="589" type="line"/>
      <point x="93" y="589" type="line"/>
      <point x="93" y="558" type="line"/>
      <point x="62" y="558" type="line"/>
    </contour>
    <contour>
      <point x="217" y="651" type="line"/>
      <point x="217" y="744" type="line"/>
      <point x="279" y="744" type="line"/>
      <point x="279" y="651" type="line"/>
    </contour>
    <contour>
      <point x="124" y="310" type="line"/>
      <point x="124" y="558" type="line"/>
      <point x="372" y="558" type="line"/>
      <point x="372" y="310" type="line"/>
    </contour>
  </outline>
</glyph>
<glyph name="Eth" format="2">
  <advance width="500"/>
  <unicode hex="00D0"/>
  <outline>
    <contour>
      <point x="62" y="0" type="line"/>
      <point x="341" y="0" type="line"/>
      <point x="341" y="31" type="line"/>
      <point x="372" y="31" type="line"/>
      <point x="372" y="62" type="line"/>
      <point x="403" y="62" type="line"/>
      <point x="403" y="93" type="line"/>
      <point x="434" y="93" type="line"/>
      <point x="434" y="527" type="line"/>
      <point x="403" y="527" type="line"/>
      <point x="403" y="558" type="line"/>
      <point x="372" y="558" type="line"/>
      <point x="372" y="589" type="line"/>
      <point x="341" y="589" type="line"/>
      <point x="341" y="620" type="line"/>
      <point x="62" y="620" type="line"/>
      <point x="62" y="341" type="line"/>
      <point x="31" y="341" type="line"/>
      <point x="31" y="279" type="line"/>
      <point x="62" y="279" type="line"/>
    </contour>
    <contour>
      <point x="124" y="62" type="line"/>
      <point x="124" y="279" type="line"/>
      <point x="279" y="279" type="line"/>
      <point x="279" y="341" type="line"/>
      <point x="124" y="341" type="line"/>
      <point x="124" y="558" type="line"/>
      <point x="341" y="558" type="line"/>
      <point x="341" y="527" type="line"/>
      <point x="372" y="527" type="line"/>
      <point x="372" y="93" type="line"/>
      <point x="341" y="93" type="line"/>
      <point x="341" y="62" type="line"/>
    </contour>
  </outline>
</glyph>
<glyph name="Thorn" format="2">
  <advance width="500"/>
  <unicode hex="00DE"/>
  <outline>
    <contour>
      <point x="62" y="-31" type="line"/>
      <point x="124" y="-31" type="line"/>
      <point x="124" y="93" type="line"/>
      <point x="372" y="93" type="line"/>
      <point x="372" y="124" type="line"/>
      <point x="403" y="124" type="line"/>
      <point x="403" y="155" type="line"/>
      <point x="434" y="155" type="line"/>
      <point x="434" y="434" type="line"/>
      <point x="403" y="434" type="line"/>
      <point x="403" y="465" type="line"/>
      <point x="372" y="465" type="line"/>
      <point x="372" y="496" type="line"/>
      <point x="124" y="496" type="line"/>
      <point x="124" y="620" type="line"/>
      <point x="62" y="620" type="line"/>
    </contour>
    <contour>
      <point x="124" y="155" type="line"/>
      <point x="124" y="434" type="line"/>
      <point x="372" y="434" type="line"/>
      <point x="372" y="155" type="line"/>
    </contour>
  </outline>
</glyph>
<glyph name="germandbls" format="2">
  <advance width="500"/>
  <unicode hex="00DF"/>
  <outline>
    <contour>
      <point x="62" y="0" type="line"/>
      <point x="124" y="0" type="line"/>
      <point x="124" y="62" type="line"/>
      <point x="155" y="62" type="line"/>
      <point x="155" y="31" type="line"/>
      <point x="186" y="31" type="line"/>
      <point x="186" y="0" type="line"/>
      <point x="372" y="0" type="line"/>
      <point x="372" y="31" type="line"/>
      <point x="403" y="31" type="line"/>
      <point x="403" y="62" type="line"/>
      <point x="434" y="62" type="line"/>
      <point x="434" y="310" type="line"/>
      <point x="403" y="310" type="line"/>
      <point x="403" y="341" type="line"/>
      <point x="372" y="341" type="line"/>
      <point x="372" y="372" type="line"/>
      <point x="341" y="372" type="line"/>
      <point x="341" y="403" type="line"/>
      <point x="372" y="403" type="line"/>
      <point x="372" y="434" type="line"/>
      <point x="403" y="434" type="line"/>
      <point x="403" y="558" type="line"/>
      <point x="372" y="558" type="line"/>
      <point x="372" y="589" type="line"/>
      <point x="341" y="589" type="line"/>
      <point x="341" y="620" type="line"/>
      <point x="93" y="620" type="line"/>
      <point x="93" y="589" type="line"/>
      <point x="62" y="589" type="line"/>
    </contour>
    <contour>
      <point x="124" y="403" type="line"/>
      <point x="124" y="558" type="line"/>
      <point x="341" y="558" type="line"/>
      <point x="341" y="434" type="line"/>
      <point x="310" y="434" type="line"/>
      <point x="310" y="403" type="line"/>
    </contour>
    <contour>
      <point x="124" y="124" type="line"/>
      <point x="124" y="341" type="line"/>
      <point x="341" y="341" type="line"/>
      <point x="341" y="310" type="line"/>
      <point x="372" y="310" type="line"/>
      <point x="372" y="62" type="line"/>
      <point x="186" y="62" type="line"/>
      <point x="186" y="93" type="line"/>
      <point x="155" y="93" type="line"/>
      <point x="155" y="124" type="line"/>
    </contour>
  </outline>
</glyph>
<glyph name="ae" format="2">
  <advance width="500"/>
  <unicode hex="00E6"/>
  <outline>
    <contour>
      <point x="31" y="62" type="line"/>
      <point x="62" y="62" type="line"/>
      <point x="62" y="31" type="line"/>
      <point x="93" y="31" type="line"/>
      <point x="93" y="0" type="line"/>
      <point x="248" y="0" type="line"/>
      <point x="248" y="31" type="line"/>
      <point x="279" y="31" type="line"/>
      <point x="279" y="0" type="line"/>
      <point x="434" y="0" type="line"/>
      <point x="434" y="31" type="line"/>
      <point x="465" y="31" type="line"/>
      <point x="465" y="93" type="line"/>
      <point x="403" y="93" type="line"/>
      <point x="403" y="62" type="line"/>
      <point x="279" y="62" type="line"/>
      <point x="279" y="186" type="line"/>
      <point x="465" y="186" type="line"/>
      <point x="465" y="372" type="line"/>
      <point x="434" y="372" type="line"/>
      <point x="434" y="403" type="line"/>
      <point x="403" y="403" type="line"/>
      <point x="403" y="434" type="line"/>
      <point x="248" y="434" type="line"/>
      <point x="248" y="403" type="line"/>
      <point x="217" y="403" type="line"/>
      <point x="217" y="434" type="line"/>
      <point x="62" y="434" type="line"/>
      <point x="62" y="372" type="line"/>
      <point x="217" y="372" type="line"/>
      <point x="217" y="279" type="line"/>
      <point x="93" y="279" type="line"/>
      <point x="93" y="248" type="line"/>
      <point x="62" y="248" type="line"/>
      <point x="62" y="217" type="line"/>
      <point x="31" y="217" type="line"/>
    </contour>
    <contour>
      <point x="279" y="248" type="line"/>
      <point x="279" y="372" type="line"/>
      <point x="403" y="372" type="line"/>
      <point x="403" y="248" type="line"/>
    </contour>
    <contour>
      <point x="93" y="62" type="line"/>
      <point x="93" y="217" type="line"/>
      <point x="217" y="217" type="line"/>
      <point x="217" y="62" type="line"/>
    </contour>
  </outline>
</glyph>
<glyph name="eth" format="2">
  <advance width="500"/>
  <unicode hex="00F0"/>
  <outline>
    <contour>
      <point x="62" y="62" type="line"/>
      <point x="93" y="62" type="line"/>
      <point x="93" y="31" type="line"/>
      <point x="124" y="31" type="line"/>
      <point x="124" y="0" type="line"/>
      <point x="372" y="0" type="line"/>
      <point x="372" y="31" type="line"/>
      <point x="403" y="31" type="line"/>
      <point x="403" y="62" type="line"/>
      <point x="434" y="62" type="line"/>
      <point x="434" y="372" type="line"/>
      <point x="403" y="372" type="line"/>
      <point x="403" y="403" type="line"/>
      <point x="372" y="403" type="line"/>
      <point x="372" y="434" type="line"/>
      <point x="341" y="434" type="line"/>
      <point x="341" y="465" type="line"/>
      <point x="310" y="465" type="line"/>
      <point x="310" y="496" type="line"/>
      <point x="279" y="496" type="line"/>
      <point x="279" y="527" type="line"/>
      <point x="248" y="527" type="line"/>
      <point x="248" y="558" type="line"/>
      <point x="279" y="558" type="line"/>
      <point x="279" y="589" type="line"/>
      <point x="310" y="589" type="line"/>
      <point x="310" y="620" type="line"/>
      <point x="217" y="620" type="line"/>
      <point x="217" y="589" type="line"/>
      <point x="186" y="589" type="line"/>
      <point x="186" y="620" type="line"/>
      <point x="93" y="620" type="line"/>
      <point x="93" y="589" type="line"/>
      <point x="124" y="589" type="line"/>
      <point x="124" y="558" type="line"/>
      <point x="93" y="558" type="line"/>
      <point x="93" y="527" type="line"/>
      <point x="62" y="527" type="line"/>
      <point x="62" y="496" type="line"/>
      <point x="155" y="496" type="line"/>
      <point x="155" y="527" type="line"/>
      <point x="186" y="527" type="line"/>
      <point x="186" y="496" type="line"/>
      <point x="217" y="496" type="line"/>
      <point x="217" y="465" type="line"/>
      <point x="248" y="465" type="line"/>
      <point x="248" y="434" type="line"/>
      <point x="124" y="434" type="line"/>
      <point x="124" y="403" type="line"/>
      <point x="93" y="403" type="line"/>
      <point x="93" y="372" type="line"/>
      <point x="62" y="372" type="line"/>
    </contour>
    <contour>
      <point x="124" y="62" type="line"/>
      <point x="124" y="372" type="line"/>
      <point x="372" y="372" type="line"/>
      <point x="372" y="62" type="line"/>
    </contour>
  </outline>
</glyph>
<glyph name="divide" format="2">
  <advance width="500"/>
  <unicode hex="00F7"/>
  <outline>
    <contour>
      <point x="217" y="403" type="line"/>
      <point x="279" y="403" type="line"/>
      <point x="279" y="527" type="line"/>
      <point x="217" y="527" type="line"/>
    </contour>
    <contour>
      <point x="62" y="279" type="line"/>
      <point x="434" y="279" type="line"/>
      <point x="434" y="341" type="line"/>
      <point x="62" y="341" type="line"/>
    </contour>
    <contour>
      <point x="217" y="93" type="line"/>
      <point x="279" y="93" type="line"/>
      <point x="279" y="217" type="line"/>
      <point x="217" y="217" type="line"/>
    </contour>
  </outline>
</glyph>
<glyph name="Aogonek" format="2">
  <advance width="500"/>
  <unicode hex="0104"/>
  <outline>
    <contour>
      <point x="62" y="0" type="line"/>
      <point x="124" y="0" type="line"/>
      <point x="124" y="248" type="line"/>
      <point x="372" y="248" type="line"/>
      <point x="372" y="0" type="line"/>
      <point x="310" y="0" type="line"/>
      <point x="310" y="-31" type="line"/>
      <point x="279" y="-31" type="line"/>
      <point x="279" y="-124" type="line"/>
      <point x="310" y="-124" type="line"/>
      <point x="310" y="-155" type="line"/>
      <point x="434" y="-155" type="line"/>
      <point x="434" y="-93" type="line"/>
      <point x="341" y="-93" type="line"/>
      <point x="341" y="-62" type="line"/>
      <point x="372" y="-62" type="line"/>
      <point x="372" y="-31" type="line"/>
      <point x="434" y="-31" type="line"/>
      <point x="434" y="558" type="line"/>
      <point x="403" y="558" type="line"/>
      <point x="403" y="589" type="line"/>
      <point x="372" y="589" type="line"/>
      <point x="372" y="620" type="line"/>
      <point x="124" y="620" type="line"/>
      <point x="124" y="589" type="line"/>
      <point x="93" y="589" type="line"/>
      <point x="93" y="558" type="line"/>
      <point x="62" y="558" type="line"/>
    </contour>
    <contour>
      <point x="124" y="310" type="line"/>
      <point x="124" y="558" type="line"/>
      <point x="372" y="558" type="line"/>
      <point x="372" y="310" type="line"/>
    </contour>
  </outline>
</glyph>
<glyph name="aogonek" format="2">
  <advance width="500"/>
  <unicode hex="0105"/>
  <outline>
    <contour>
      <point x="93" y="31" type="line"/>
      <point x="124" y="31" type="line"/>
      <point x="124" y="0" type="line"/>
      <point x="310" y="0" type="line"/>
      <point x="310" y="-31" type="line"/>
      <point x="279" y="-31" type="line"/>
      <point x="279" y="-124" type="line"/>
      <point x="310" y="-124" type="line"/>
      <point x="310" y="-155" type="line"/>
      <point x="434" y="-155" type="line"/>
      <point x="434" y="-93" type="line"/>
      <point x="341" y="-93" type="line"/>
      <point x="341" y="-62" type="line"/>
      <point x="372" y="-62" type="line"/>
      <point x="372" y="-31" type="line"/>
      <point x="434" y="-31" type="line"/>
      <point x="434" y="372" type="line"/>
      <point x="403" y="372" type="line"/>
      <point x="403" y="403" type="line"/>
      <point x="372" y="403" type="line"/>
      <point x="372" y="434" type="line"/>
      <point x="93" y="434" type="line"/>
      <point x="93" y="372" type="line"/>
      <point x="372" y="372" type="line"/>
      <point x="372" y="279" type="line"/>
      <point x="124" y="279" type="line"/>
      <point x="124" y="248" type="line"/>
      <point x="93" y="248" type="line"/>
      <point x="93" y="217" type="line"/>
      <point x="62" y="217" type="line"/>
      <point x="62" y="62" type="line"/>
      <point x="93" y="62" type="line"/>
    </contour>
    <contour>
      <point x="124" y="62" type="line"/>
      <point x="124" y="217" type="line"/>
      <point x="372" y="217" type="line"/>
      <point x="372" y="62" type="line"/>
    </contour>
  </outline>
</glyph>
<glyph name="dcroat" format="2">
  <advance width="500"/>
  <unicode hex="0111"/>
  <outline>
    <contour>
      <point x="62" y="62" type="line"/>
      <point x="93" y="62" type="line"/>
      <point x="93" y="31" type="line"/>
      <point x="124" y="31" type="line"/>
      <point x="124" y="0" type="line"/>
      <point x="434" y="0" type="line"/>
      <point x="434" y="496" type="line"/>
      <point x="496" y="496" type="line"/>
      <point x="496" y="558" type="line"/>
      <point x="434" y="558" type="line"/>
      <point x="434" y="620" type="line"/>
      <point x="372" y="620" type="line"/>
      <point x="372" y="558" type="line"/>
      <point x="186" y="558" type="line"/>
      <point x="186" y="496" type="line"/>
      <point x="372" y="496" type="line"/>
      <point x="372" y="434" type="line"/>
      <point x="124" y="434" type="line"/>
      <point x="124" y="403" type="line"/>
      <point x="93" y="403" type="line"/>
      <point x="93" y="372" type="line"/>
      <point x="62" y="372" type="line"/>
    </contour>
    <contour>
      <point x="124" y="62" type="line"/>
      <point x="124" y="372" type="line"/>
      <point x="372" y="372" type="line"/>
      <point x="372" y="62" type="line"/>
    </contour>
  </outline>
</glyph>
<glyph name="Edotaccent" format="2">
  <advance width="500"/>
  <unicode hex="0116"/>
  <outline>
    <contour>
      <point x="217" y="651" type="line"/>
      <point x="279" y="651" type="line"/>
      <point x="279" y="775" type="line"/>
      <point x="217" y="775" type="line"/>
    </contour>
    <contour>
      <point x="62" y="0" type="line"/>
      <point x="434" y="0" type="line"/>
      <point x="434" y="62" type="line"/>
      <point x="124" y="62" type="line"/>
      <point x="124" y="279" type="line"/>
      <point x="341" y="279" type="line"/>
      <point x="341" y="341" type="line"/>
      <point x="124" y="341" type="line"/>
      <point x="124" y="558" type="line"/>
      <point x="434" y="558" type="line"/>
      <point x="434" y="620" type="line"/>
      <point x="62" y="620" type="line"/>
    </contour>
  </outline>
</glyph>
<glyph name="edotaccent" format="2">
  <advance width="500"/>
  <unicode hex="0117"/>
  <outline>
    <contour>
      <point x="217" y="496" type="line"/>
      <point x="279" y="496" type="line"/>
      <point x="279" y="620" type="line"/>
      <point x="217" y="620" type="line"/>
    </contour>
    <contour>
      <point x="62" y="62" type="line"/>
      <point x="93" y="62" type="line"/>
      <point x="93" y="31" type="line"/>
      <point x="124" y="31" type="line"/>
      <point x="124" y="0" type="line"/>
      <point x="372" y="0" type="line"/>
      <point x="372" y="31" type="line"/>
      <point x="403" y="31" type="line"/>
      <point x="403" y="62" type="line"/>
      <point x="434" y="62" type="line"/>
      <point x="434" y="93" type="line"/>
      <point x="372" y="93" type="line"/>
      <point x="372" y="62" type="line"/>
      <point x="124" y="62" type="line"/>
      <point x="124" y="186" type="line"/>
      <point x="434" y="186" type="line"/>
      <point x="434" y="372" type="line"/>
      <point x="403" y="372" type="line"/>
      <point x="403" y="403" type="line"/>
      <point x="372" y="403" type="line"/>
      <point x="372" y="434" type="line"/>
      <point x="124" y="434" type="line"/>
      <point x="124" y="403" type="line"/>
      <point x="93" y="403" type="line"/>
      <point x="93" y="372" type="line"/>
      <point x="62" y="372" type="line"/>
    </contour>
    <contour>
      <point x="124" y="248" type="line"/>
      <point x="124" y="372" type="line"/>
      <point x="372" y="372" type="line"/>
      <point x="372" y="248" type="line"/>
    </contour>
  </outline>
</glyph>
<glyph name="Eogonek" format="2">
  <advance width="500"/>
  <unicode hex="0118"/>
  <outline>
    <contour>
      <point x="62" y="0" type="line"/>
      <point x="310" y="0" type="line"/>
      <point x="310" y="-31" type="line"/>
      <point x="279" y="-31" type="line"/>
      <point x="279" y="-124" type="line"/>
      <point x="310" y="-124" type="line"/>
      <point x="310" y="-155" type="line"/>
      <point x="434" y="-155" type="line"/>
      <point x="434" y="-93" type="line"/>
      <point x="341" y="-93" type="line"/>
      <point x="341" y="-62" type="line"/>
      <point x="372" y="-62" type="line"/>
      <point x="372" y="-31" type="line"/>
      <point x="434" y="-31" type="line"/>
      <point x="434" y="62" type="line"/>
      <point x="124" y="62" type="line"/>
      <point x="124" y="279" type="line"/>
      <point x="341" y="279" type="line"/>
      <point x="341" y="341" type="line"/>
      <point x="124" y="341" type="line"/>
      <point x="124" y="558" type="line"/>
      <point x="434" y="558" type="line"/>
      <point x="434" y="620" type="line"/>
      <point x="62" y="620" type="line"/>
    </contour>
  </outline>
</glyph>
<glyph name="Gcommaaccent" format="2">
  <advance width="500"/>
  <unicode hex="0122"/>
  <outline>
    <contour>
      <point x="62" y="62" type="line"/>
      <point x="93" y="62" type="line"/>
      <point x="93" y="31" type="line"/>
      <point x="124" y="31" type="line"/>
      <point x="124" y="0" type="line"/>
      <point x="372" y="0" type="line"/>
      <point x="372" y="31" type="line"/>
      <point x="403" y="31" type="line"/>
      <point x="403" y="62" type="line"/>
      <point x="434" y="62" type="line"/>
      <point x="434" y="341" type="line"/>
      <point x="248" y="341" type="line"/>
      <point x="248" y="279" type="line"/>
      <point x="372" y="279" type="line"/>
      <point x="372" y="62" type="line"/>
      <point x="124" y="62" type="line"/>
      <point x="124" y="558" type="line"/>
      <point x="372" y="558" type="line"/>
      <point x="372" y="465" type="line"/>
      <point x="434" y="465" type="line"/>
      <point x="434" y="558" type="line"/>
      <point x="403" y="558" type="line"/>
      <point x="403" y="589" type="line"/>
      <point x="372" y="589" type="line"/>
      <point x="372" y="620" type="line"/>
      <point x="124" y="620" type="line"/>
      <point x="124" y="589" type="line"/>
      <point x="93" y="589" type="line"/>
      <point x="93" y="558" type="line"/>
      <point x="62" y="558" type="line"/>
    </contour>
    <contour>
      <point x="155" y="-186" type="line"/>
      <point x="217" y="-186" type="line"/>
      <point x="217" y="-155" type="line"/>
      <point x="248" y="-155" type="line"/>
      <point x="248" y="-124" type="line"/>
      <point x="279" y="-124" type="line"/>
      <point x="279" y="-31" type="line"/>
      <point x="217" y="-31" type="line"/>
      <point x="217" y="-124" type="line"/>
      <point x="186" y="-124" type="line"/>
      <point x="186" y="-155" type="line"/>
      <point x="155" y="-155" type="line"/>
    </contour>
  </outline>
</glyph>
<glyph name="Iogonek" format="2">
  <advance width="500"/>
  <unicode hex="012E"/>
  <outline>
    <contour>
      <point x="155" y="0" type="line"/>
      <point x="217" y="0" type="line"/>
      <point x="217" y="-31" type="line"/>
      <point x="186" y="-31" type="line"/>
      <point x="186" y="-124" type="line"/>
      <point x="217" y="-124" type="line"/>
      <point x="217" y="-155" type="line"/>
      <point x="341" y="-155" type="line"/>
      <point x="341" y="-93" type="line"/>
      <point x="248" y="-93" type="line"/>
      <point x="248" y="-62" type="line"/>
      <point x="279" y="-62" type="line"/>
      <point x="279" y="0" type="line"/>
      <point x="341" y="0" type="line"/>
      <point x="341" y="62" type="line"/>
      <point x="279" y="62" type="line"/>
      <point x="279" y="558" type="line"/>
      <point x="341" y="558" type="line"/>
      <point x="341" y="620" type="line"/>
      <point x="155" y="620" type="line"/>
      <point x="155" y="558" type="line"/>
      <point x="217" y="558" type="line"/>
      <point x="217" y="62" type="line"/>
      <point x="155" y="62" type="line"/>
    </contour>
  </outline>
</glyph>
<glyph name="iogonek" format="2">
  <advance width="500"/>
  <unicode hex="012F"/>
  <outline>
    <contour>
      <point x="217" y="496" type="line"/>
      <point x="279" y="496" type="line"/>
      <point x="279" y="620" type="line"/>
      <point x="217" y="620" type="line"/>
    </contour>
    <contour>
      <point x="155" y="0" type="line"/>
      <point x="217" y="0" type="line"/>
      <point x="217" y="-31" type="line"/>
      <point x="186" y="-31" type="line"/>
      <point x="186" y="-124" type="line"/>
      <point x="217" y="-124" type="line"/>
      <point x="217" y="-155" type="line"/>
      <point x="341" y="-155" type="line"/>
      <point x="341" y="-93" type="line"/>
      <point x="248" y="-93" type="line"/>
      <point x="248" y="-62" type="line"/>
      <point x="279" y="-62" type="line"/>
      <point x="279" y="0" type="line"/>
      <point x="341" y="0" type="line"/>
      <point x="341" y="62" type="line"/>
      <point x="279" y="62" type="line"/>
      <point x="279" y="434" type="line"/>
      <point x="155" y="434" type="line"/>
      <point x="155" y="372" type="line"/>
      <point x="217" y="372" type="line"/>
      <point x="217" y="62" type="line"/>
      <point x="155" y="62" type="line"/>
    </contour>
  </outline>
</glyph>
<glyph name="Idotaccent" format="2">
  <advance width="500"/>
  <unicode hex="0130"/>
  <outline>
    <contour>
      <point x="217" y="651" type="line"/>
      <point x="279" y="651" type="line"/>
      <point x="279" y="775" type="line"/>
      <point x="217" y="775" type="line"/>
    </contour>
    <contour>
      <point x="155" y="0" type="line"/>
      <point x="341" y="0" type="line"/>
      <point x="341" y="62" type="line"/>
      <point x="279" y="62" type="line"/>
      <point x="279" y="558" type="line"/>
      <point x="341" y="558" type="line"/>
      <point x="341" y="620" type="line"/>
      <point x="155" y="620" type="line"/>
      <point x="155" y="558" type="line"/>
      <point x="217" y="558" type="line"/>
      <point x="217" y="62" type="line"/>
      <point x="155" y="62" type="line"/>
    </contour>
  </outline>
</glyph>
<glyph name="dotlessi" format="2">
  <advance width="500"/>
  <unicode hex="0131"/>
  <anchor x="248" y="496" name="top"/>
  <anchor x="248" y="504" name="t.macron"/>
  <outline>
    <contour>
      <point x="155" y="0" type="line"/>
      <point x="341" y="0" type="line"/>
      <point x="341" y="62" type="line"/>
      <point x="279" y="62" type="line"/>
      <point x="279" y="434" type="line"/>
      <point x="155" y="434" type="line"/>
      <point x="155" y="372" type="line"/>
      <point x="217" y="372" type="line"/>
      <point x="217" y="62" type="line"/>
      <point x="155" y="62" type="line"/>
    </contour>
  </outline>
  <guideline angle="0" x="0" y="496"/>
  <guideline angle="90" x="155" y="0"/>
  <guideline angle="90" x="341" y="0"/>
  <guideline angle="90" x="248" y="0"/>
</glyph>
<glyph name="Jcircumflex" format="2">
  <advance width="500"/>
  <unicode hex="0134"/>
  <outline>
    <contour>
      <point x="248" y="651" type="line"/>
      <point x="310" y="651" type="line"/>
      <point x="310" y="682" type="line"/>
      <point x="341" y="682" type="line"/>
      <point x="341" y="713" type="line"/>
      <point x="403" y="713" type="line"/>
      <point x="403" y="682" type="line"/>
      <point x="434" y="682" type="line"/>
      <point x="434" y="651" type="line"/>
      <point x="496" y="651" type="line"/>
      <point x="496" y="682" type="line"/>
      <point x="465" y="682" type="line"/>
      <point x="465" y="713" type="line"/>
      <point x="434" y="713" type="line"/>
      <point x="434" y="744" type="line"/>
      <point x="403" y="744" type="line"/>
      <point x="403" y="775" type="line"/>
      <point x="341" y="775" type="line"/>
      <point x="341" y="744" type="line"/>
      <point x="310" y="744" type="line"/>
      <point x="310" y="713" type="line"/>
      <point x="279" y="713" type="line"/>
      <point x="279" y="682" type="line"/>
      <point x="248" y="682" type="line"/>
    </contour>
    <contour>
      <point x="62" y="62" type="line"/>
      <point x="93" y="62" type="line"/>
      <point x="93" y="31" type="line"/>
      <point x="124" y="31" type="line"/>
      <point x="124" y="0" type="line"/>
      <point x="341" y="0" type="line"/>
      <point x="341" y="31" type="line"/>
      <point x="372" y="31" type="line"/>
      <point x="372" y="62" type="line"/>
      <point x="403" y="62" type="line"/>
      <point x="403" y="558" type="line"/>
      <point x="465" y="558" type="line"/>
      <point x="465" y="620" type="line"/>
      <point x="279" y="620" type="line"/>
      <point x="279" y="558" type="line"/>
      <point x="341" y="558" type="line"/>
      <point x="341" y="62" type="line"/>
      <point x="124" y="62" type="line"/>
      <point x="124" y="186" type="line"/>
      <point x="62" y="186" type="line"/>
    </contour>
  </outline>
</glyph>
<glyph name="Lslash" format="2">
  <advance width="500"/>
  <unicode hex="0141"/>
  <outline>
    <contour>
      <point x="124" y="0" type="line"/>
      <point x="465" y="0" type="line"/>
      <point x="465" y="62" type="line"/>
      <point x="186" y="62" type="line"/>
      <point x="186" y="620" type="line"/>
      <point x="124" y="620" type="line"/>
    </contour>
    <contour>
      <point x="173.6" y="310" type="line"/>
      <point x="217" y="310" type="line"/>
      <point x="217" y="341" type="line"/>
      <point x="248" y="341" type="line"/>
      <point x="248" y="372" type="line"/>
      <point x="279" y="372" type="line"/>
      <point x="279" y="403" type="line"/>
      <point x="310" y="403" type="line"/>
      <point x="310" y="434" type="line"/>
      <point x="248" y="434" type="line"/>
      <point x="248" y="403" type="line"/>
      <point x="217" y="403" type="line"/>
      <point x="217" y="372" type="line"/>
      <point x="173.6" y="372" type="line"/>
    </contour>
    <contour>
      <point x="0" y="186" type="line"/>
      <point x="62" y="186" type="line"/>
      <point x="62" y="217" type="line"/>
      <point x="93" y="217" type="line"/>
      <point x="93" y="248" type="line"/>
      <point x="136.4" y="248" type="line"/>
      <point x="136.4" y="310" type="line"/>
      <point x="93" y="310" type="line"/>
      <point x="93" y="279" type="line"/>
      <point x="62" y="279" type="line"/>
      <point x="62" y="248" type="line"/>
      <point x="31" y="248" type="line"/>
      <point x="31" y="217" type="line"/>
      <point x="0" y="217" type="line"/>
    </contour>
  </outline>
</glyph>
<glyph name="lslash" format="2">
  <advance width="500"/>
  <unicode hex="0142"/>
  <outline>
    <contour>
      <point x="93" y="186" type="line"/>
      <point x="155" y="186" type="line"/>
      <point x="155" y="217" type="line"/>
      <point x="186" y="217" type="line"/>
      <point x="186" y="248" type="line"/>
      <point x="217" y="248" type="line"/>
      <point x="217" y="62" type="line"/>
      <point x="155" y="62" type="line"/>
      <point x="155" y="0" type="line"/>
      <point x="341" y="0" type="line"/>
      <point x="341" y="62" type="line"/>
      <point x="279" y="62" type="line"/>
      <point x="279" y="310" type="line"/>
      <point x="310" y="310" type="line"/>
      <point x="310" y="341" type="line"/>
      <point x="341" y="341" type="line"/>
      <point x="341" y="372" type="line"/>
      <point x="372" y="372" type="line"/>
      <point x="372" y="403" type="line"/>
      <point x="403" y="403" type="line"/>
      <point x="403" y="434" type="line"/>
      <point x="341" y="434" type="line"/>
      <point x="341" y="403" type="line"/>
      <point x="310" y="403" type="line"/>
      <point x="310" y="372" type="line"/>
      <point x="279" y="372" type="line"/>
      <point x="279" y="620" type="line"/>
      <point x="155" y="620" type="line"/>
      <point x="155" y="558" type="line"/>
      <point x="217" y="558" type="line"/>
      <point x="217" y="310" type="line"/>
      <point x="186" y="310" type="line"/>
      <point x="186" y="279" type="line"/>
      <point x="155" y="279" type="line"/>
      <point x="155" y="248" type="line"/>
      <point x="124" y="248" type="line"/>
      <point x="124" y="217" type="line"/>
      <point x="93" y="217" type="line"/>
    </contour>
  </outline>
</glyph>
<glyph name="Ohungarumlaut" format="2">
  <advance width="500"/>
  <unicode hex="0150"/>
  <outline>
    <contour>
      <point x="93" y="651" type="line"/>
      <point x="186" y="651" type="line"/>
      <point x="186" y="682" type="line"/>
      <point x="217" y="682" type="line"/>
      <point x="217" y="713" type="line"/>
      <point x="248" y="713" type="line"/>
      <point x="248" y="744" type="line"/>
      <point x="279" y="744" type="line"/>
      <point x="279" y="775" type="line"/>
      <point x="186" y="775" type="line"/>
      <point x="186" y="744" type="line"/>
      <point x="155" y="744" type="line"/>
      <point x="155" y="713" type="line"/>
      <point x="124" y="713" type="line"/>
      <point x="124" y="682" type="line"/>
      <point x="93" y="682" type="line"/>
    </contour>
    <contour>
      <point x="279" y="651" type="line"/>
      <point x="372" y="651" type="line"/>
      <point x="372" y="682" type="line"/>
      <point x="403" y="682" type="line"/>
      <point x="403" y="713" type="line"/>
      <point x="434" y="713" type="line"/>
      <point x="434" y="744" type="line"/>
      <point x="465" y="744" type="line"/>
      <point x="465" y="775" type="line"/>
      <point x="372" y="775" type="line"/>
      <point x="372" y="744" type="line"/>
      <point x="341" y="744" type="line"/>
      <point x="341" y="713" type="line"/>
      <point x="310" y="713" type="line"/>
      <point x="310" y="682" type="line"/>
      <point x="279" y="682" type="line"/>
    </contour>
    <contour>
      <point x="62" y="62" type="line"/>
      <point x="93" y="62" type="line"/>
      <point x="93" y="31" type="line"/>
      <point x="124" y="31" type="line"/>
      <point x="124" y="0" type="line"/>
      <point x="372" y="0" type="line"/>
      <point x="372" y="31" type="line"/>
      <point x="403" y="31" type="line"/>
      <point x="403" y="62" type="line"/>
      <point x="434" y="62" type="line"/>
      <point x="434" y="558" type="line"/>
      <point x="403" y="558" type="line"/>
      <point x="403" y="589" type="line"/>
      <point x="372" y="589" type="line"/>
      <point x="372" y="620" type="line"/>
      <point x="124" y="620" type="line"/>
      <point x="124" y="589" type="line"/>
      <point x="93" y="589" type="line"/>
      <point x="93" y="558" type="line"/>
      <point x="62" y="558" type="line"/>
    </contour>
    <contour>
      <point x="124" y="62" type="line"/>
      <point x="124" y="558" type="line"/>
      <point x="372" y="558" type="line"/>
      <point x="372" y="62" type="line"/>
    </contour>
  </outline>
</glyph>
<glyph name="OE" format="2">
  <advance width="500"/>
  <unicode hex="0152"/>
  <outline>
    <contour>
      <point x="31" y="62" type="line"/>
      <point x="62" y="62" type="line"/>
      <point x="62" y="31" type="line"/>
      <point x="93" y="31" type="line"/>
      <point x="93" y="0" type="line"/>
      <point x="496" y="0" type="line"/>
      <point x="496" y="62" type="line"/>
      <point x="310" y="62" type="line"/>
      <point x="310" y="279" type="line"/>
      <point x="465" y="279" type="line"/>
      <point x="465" y="341" type="line"/>
      <point x="310" y="341" type="line"/>
      <point x="310" y="558" type="line"/>
      <point x="496" y="558" type="line"/>
      <point x="496" y="620" type="line"/>
      <point x="93" y="620" type="line"/>
      <point x="93" y="589" type="line"/>
      <point x="62" y="589" type="line"/>
      <point x="62" y="558" type="line"/>
      <point x="31" y="558" type="line"/>
    </contour>
    <contour>
      <point x="93" y="62" type="line"/>
      <point x="93" y="558" type="line"/>
      <point x="248" y="558" type="line"/>
      <point x="248" y="62" type="line"/>
    </contour>
  </outline>
</glyph>
<glyph name="rcommaaccent" format="2">
  <advance width="500"/>
  <unicode hex="0157"/>
  <outline>
    <component base="r"/>
    <contour>
      <point x="0" y="-186" type="line"/>
      <point x="62" y="-186" type="line"/>
      <point x="62" y="-155" type="line"/>
      <point x="93" y="-155" type="line"/>
      <point x="93" y="-124" type="line"/>
      <point x="124" y="-124" type="line"/>
      <point x="124" y="-31" type="line"/>
      <point x="62" y="-31" type="line"/>
      <point x="62" y="-124" type="line"/>
      <point x="31" y="-124" type="line"/>
      <point x="31" y="-155" type="line"/>
      <point x="0" y="-155" type="line"/>
    </contour>
  </outline>
</glyph>
<glyph name="Tcaron" format="2">
  <advance width="500"/>
  <unicode hex="0164"/>
  <outline>
    <contour>
      <point x="155" y="713" type="line"/>
      <point x="186" y="713" type="line"/>
      <point x="186" y="682" type="line"/>
      <point x="217" y="682" type="line"/>
      <point x="217" y="651" type="line"/>
      <point x="279" y="651" type="line"/>
      <point x="279" y="682" type="line"/>
      <point x="310" y="682" type="line"/>
      <point x="310" y="713" type="line"/>
      <point x="341" y="713" type="line"/>
      <point x="341" y="744" type="line"/>
      <point x="372" y="744" type="line"/>
      <point x="372" y="775" type="line"/>
      <point x="310" y="775" type="line"/>
      <point x="310" y="744" type="line"/>
      <point x="279" y="744" type="line"/>
      <point x="279" y="713" type="line"/>
      <point x="217" y="713" type="line"/>
      <point x="217" y="744" type="line"/>
      <point x="186" y="744" type="line"/>
      <point x="186" y="775" type="line"/>
      <point x="124" y="775" type="line"/>
      <point x="124" y="744" type="line"/>
      <point x="155" y="744" type="line"/>
    </contour>
    <contour>
      <point x="217" y="0" type="line"/>
      <point x="279" y="0" type="line"/>
      <point x="279" y="558" type="line"/>
      <point x="434" y="558" type="line"/>
      <point x="434" y="620" type="line"/>
      <point x="62" y="620" type="line"/>
      <point x="62" y="558" type="line"/>
      <point x="217" y="558" type="line"/>
    </contour>
  </outline>
</glyph>
<glyph name="tcaron" format="2">
  <advance width="500"/>
  <unicode hex="0165"/>
  <outline>
    <contour>
      <point x="155" y="713" type="line"/>
      <point x="186" y="713" type="line"/>
      <point x="186" y="682" type="line"/>
      <point x="217" y="682" type="line"/>
      <point x="217" y="651" type="line"/>
      <point x="279" y="651" type="line"/>
      <point x="279" y="682" type="line"/>
      <point x="310" y="682" type="line"/>
      <point x="310" y="713" type="line"/>
      <point x="341" y="713" type="line"/>
      <point x="341" y="744" type="line"/>
      <point x="372" y="744" type="line"/>
      <point x="372" y="775" type="line"/>
      <point x="310" y="775" type="line"/>
      <point x="310" y="744" type="line"/>
      <point x="279" y="744" type="line"/>
      <point x="279" y="713" type="line"/>
      <point x="217" y="713" type="line"/>
      <point x="217" y="744" type="line"/>
      <point x="186" y="744" type="line"/>
      <point x="186" y="775" type="line"/>
      <point x="124" y="775" type="line"/>
      <point x="124" y="744" type="line"/>
      <point x="155" y="744" type="line"/>
    </contour>
    <contour>
      <point x="93" y="372" type="line"/>
      <point x="217" y="372" type="line"/>
      <point x="217" y="62" type="line"/>
      <point x="248" y="62" type="line"/>
      <point x="248" y="31" type="line"/>
      <point x="279" y="31" type="line"/>
      <point x="279" y="0" type="line"/>
      <point x="465" y="0" type="line"/>
      <point x="465" y="62" type="line"/>
      <point x="279" y="62" type="line"/>
      <point x="279" y="372" type="line"/>
      <point x="403" y="372" type="line"/>
      <point x="403" y="434" type="line"/>
      <point x="279" y="434" type="line"/>
      <point x="279" y="620" type="line"/>
      <point x="217" y="620" type="line"/>
      <point x="217" y="434" type="line"/>
      <point x="93" y="434" type="line"/>
    </contour>
  </outline>
</glyph>
<glyph name="Uring" format="2">
  <advance width="500"/>
  <unicode hex="016E"/>
  <outline>
    <contour>
      <point x="155" y="651" type="line"/>
      <point x="186" y="651" type="line"/>
      <point x="186" y="620" type="line"/>
      <point x="310" y="620" type="line"/>
      <point x="310" y="651" type="line"/>
      <point x="341" y="651" type="line"/>
      <point x="341" y="744" type="line"/>
      <point x="310" y="744" type="line"/>
      <point x="310" y="775" type="line"/>
      <point x="186" y="775" type="line"/>
      <point x="186" y="744" type="line"/>
      <point x="155" y="744" type="line"/>
    </contour>
    <contour>
      <point x="217" y="651" type="line"/>
      <point x="217" y="744" type="line"/>
      <point x="279" y="744" type="line"/>
      <point x="279" y="651" type="line"/>
    </contour>
    <contour>
      <point x="62" y="62" type="line"/>
      <point x="93" y="62" type="line"/>
      <point x="93" y="31" type="line"/>
      <point x="124" y="31" type="line"/>
      <point x="124" y="0" type="line"/>
      <point x="372" y="0" type="line"/>
      <point x="372" y="31" type="line"/>
      <point x="403" y="31" type="line"/>
      <point x="403" y="62" type="line"/>
      <point x="434" y="62" type="line"/>
      <point x="434" y="620" type="line"/>
      <point x="372" y="620" type="line"/>
      <point x="372" y="62" type="line"/>
      <point x="124" y="62" type="line"/>
      <point x="124" y="620" type="line"/>
      <point x="62" y="620" type="line"/>
    </contour>
  </outline>
</glyph>
<glyph name="uring" format="2">
  <advance width="500"/>
  <unicode hex="016F"/>
  <outline>
    <contour>
      <point x="155" y="496" type="line"/>
      <point x="186" y="496" type="line"/>
      <point x="186" y="465" type="line"/>
      <point x="310" y="465" type="line"/>
      <point x="310" y="496" type="line"/>
      <point x="341" y="496" type="line"/>
      <point x="341" y="589" type="line"/>
      <point x="310" y="589" type="line"/>
      <point x="310" y="620" type="line"/>
      <point x="186" y="620" type="line"/>
      <point x="186" y="589" type="line"/>
      <point x="155" y="589" type="line"/>
    </contour>
    <contour>
      <point x="217" y="496" type="line"/>
      <point x="217" y="589" type="line"/>
      <point x="279" y="589" type="line"/>
      <point x="279" y="496" type="line"/>
    </contour>
    <contour>
      <point x="62" y="62" type="line"/>
      <point x="93" y="62" type="line"/>
      <point x="93" y="31" type="line"/>
      <point x="124" y="31" type="line"/>
      <point x="124" y="0" type="line"/>
      <point x="434" y="0" type="line"/>
      <point x="434" y="434" type="line"/>
      <point x="372" y="434" type="line"/>
      <point x="372" y="62" type="line"/>
      <point x="124" y="62" type="line"/>
      <point x="124" y="434" type="line"/>
      <point x="62" y="434" type="line"/>
    </contour>
  </outline>
</glyph>
<glyph name="Uhungarumlaut" format="2">
  <advance width="500"/>
  <unicode hex="0170"/>
  <outline>
    <contour>
      <point x="93" y="651" type="line"/>
      <point x="186" y="651" type="line"/>
      <point x="186" y="682" type="line"/>
      <point x="217" y="682" type="line"/>
      <point x="217" y="713" type="line"/>
      <point x="248" y="713" type="line"/>
      <point x="248" y="744" type="line"/>
      <point x="279" y="744" type="line"/>
      <point x="279" y="775" type="line"/>
      <point x="186" y="775" type="line"/>
      <point x="186" y="744" type="line"/>
      <point x="155" y="744" type="line"/>
      <point x="155" y="713" type="line"/>
      <point x="124" y="713" type="line"/>
      <point x="124" y="682" type="line"/>
      <point x="93" y="682" type="line"/>
    </contour>
    <contour>
      <point x="279" y="651" type="line"/>
      <point x="372" y="651" type="line"/>
      <point x="372" y="682" type="line"/>
      <point x="403" y="682" type="line"/>
      <point x="403" y="713" type="line"/>
      <point x="434" y="713" type="line"/>
      <point x="434" y="744" type="line"/>
      <point x="465" y="744" type="line"/>
      <point x="465" y="775" type="line"/>
      <point x="372" y="775" type="line"/>
      <point x="372" y="744" type="line"/>
      <point x="341" y="744" type="line"/>
      <point x="341" y="713" type="line"/>
      <point x="310" y="713" type="line"/>
      <point x="310" y="682" type="line"/>
      <point x="279" y="682" type="line"/>
    </contour>
    <contour>
      <point x="62" y="62" type="line"/>
      <point x="93" y="62" type="line"/>
      <point x="93" y="31" type="line"/>
      <point x="124" y="31" type="line"/>
      <point x="124" y="0" type="line"/>
      <point x="372" y="0" type="line"/>
      <point x="372" y="31" type="line"/>
      <point x="403" y="31" type="line"/>
      <point x="403" y="62" type="line"/>
      <point x="434" y="62" type="line"/>
      <point x="434" y="620" type="line"/>
      <point x="372" y="620" type="line"/>
      <point x="372" y="62" type="line"/>
      <point x="124" y="62" type="line"/>
      <point x="124" y="620" type="line"/>
      <point x="62" y="620" type="line"/>
    </contour>
  </outline>
</glyph>
<glyph name="Uogonek" format="2">
  <advance width="500"/>
  <unicode hex="0172"/>
  <outline>
    <contour>
      <point x="62" y="62" type="line"/>
      <point x="93" y="62" type="line"/>
      <point x="93" y="31" type="line"/>
      <point x="124" y="31" type="line"/>
      <point x="124" y="0" type="line"/>
      <point x="217" y="0" type="line"/>
      <point x="217" y="-31" type="line"/>
      <point x="186" y="-31" type="line"/>
      <point x="186" y="-124" type="line"/>
      <point x="217" y="-124" type="line"/>
      <point x="217" y="-155" type="line"/>
      <point x="341" y="-155" type="line"/>
      <point x="341" y="-93" type="line"/>
      <point x="248" y="-93" type="line"/>
      <point x="248" y="-62" type="line"/>
      <point x="279" y="-62" type="line"/>
      <point x="279" y="-31" type="line"/>
      <point x="310" y="-31" type="line"/>
      <point x="310" y="0" type="line"/>
      <point x="372" y="0" type="line"/>
      <point x="372" y="31" type="line"/>
      <point x="403" y="31" type="line"/>
      <point x="403" y="62" type="line"/>
      <point x="434" y="62" type="line"/>
      <point x="434" y="620" type="line"/>
      <point x="372" y="620" type="line"/>
      <point x="372" y="62" type="line"/>
      <point x="124" y="62" type="line"/>
      <point x="124" y="620" type="line"/>
      <point x="62" y="620" type="line"/>
    </contour>
  </outline>
</glyph>
<glyph name="Zdotaccent" format="2">
  <advance width="500"/>
  <unicode hex="017B"/>
  <outline>
    <contour>
      <point x="217" y="651" type="line"/>
      <point x="279" y="651" type="line"/>
      <point x="279" y="775" type="line"/>
      <point x="217" y="775" type="line"/>
    </contour>
    <contour>
      <point x="62" y="0" type="line"/>
      <point x="434" y="0" type="line"/>
      <point x="434" y="62" type="line"/>
      <point x="124" y="62" type="line"/>
      <point x="124" y="186" type="line"/>
      <point x="155" y="186" type="line"/>
      <point x="155" y="217" type="line"/>
      <point x="186" y="217" type="line"/>
      <point x="186" y="248" type="line"/>
      <point x="217" y="248" type="line"/>
      <point x="217" y="279" type="line"/>
      <point x="248" y="279" type="line"/>
      <point x="248" y="310" type="line"/>
      <point x="279" y="310" type="line"/>
      <point x="279" y="341" type="line"/>
      <point x="310" y="341" type="line"/>
      <point x="310" y="372" type="line"/>
      <point x="341" y="372" type="line"/>
      <point x="341" y="403" type="line"/>
      <point x="372" y="403" type="line"/>
      <point x="372" y="434" type="line"/>
      <point x="403" y="434" type="line"/>
      <point x="403" y="465" type="line"/>
      <point x="434" y="465" type="line"/>
      <point x="434" y="620" type="line"/>
      <point x="62" y="620" type="line"/>
      <point x="62" y="558" type="line"/>
      <point x="372" y="558" type="line"/>
      <point x="372" y="465" type="line"/>
      <point x="341" y="465" type="line"/>
      <point x="341" y="434" type="line"/>
      <point x="310" y="434" type="line"/>
      <point x="310" y="403" type="line"/>
      <point x="279" y="403" type="line"/>
      <point x="279" y="372" type="line"/>
      <point x="248" y="372" type="line"/>
      <point x="248" y="341" type="line"/>
      <point x="217" y="341" type="line"/>
      <point x="217" y="310" type="line"/>
      <point x="186" y="310" type="line"/>
      <point x="186" y="279" type="line"/>
      <point x="155" y="279" type="line"/>
      <point x="155" y="248" type="line"/>
      <point x="124" y="248" type="line"/>
      <point x="124" y="217" type="line"/>
      <point x="93" y="217" type="line"/>
      <point x="93" y="186" type="line"/>
      <point x="62" y="186" type="line"/>
    </contour>
  </outline>
</glyph>
<glyph name="florin" format="2">
  <advance width="500"/>
  <unicode hex="0192"/>
  <outline>
    <contour>
      <point x="62" y="-93" type="line"/>
      <point x="93" y="-93" type="line"/>
      <point x="93" y="-124" type="line"/>
      <point x="248" y="-124" type="line"/>
      <point x="248" y="-93" type="line"/>
      <point x="279" y="-93" type="line"/>
      <point x="279" y="310" type="line"/>
      <point x="372" y="310" type="line"/>
      <point x="372" y="372" type="line"/>
      <point x="279" y="372" type="line"/>
      <point x="279" y="558" type="line"/>
      <point x="372" y="558" type="line"/>
      <point x="372" y="496" type="line"/>
      <point x="434" y="496" type="line"/>
      <point x="434" y="589" type="line"/>
      <point x="403" y="589" type="line"/>
      <point x="403" y="620" type="line"/>
      <point x="248" y="620" type="line"/>
      <point x="248" y="589" type="line"/>
      <point x="217" y="589" type="line"/>
      <point x="217" y="372" type="line"/>
      <point x="124" y="372" type="line"/>
      <point x="124" y="310" type="line"/>
      <point x="217" y="310" type="line"/>
      <point x="217" y="-62" type="line"/>
      <point x="124" y="-62" type="line"/>
      <point x="124" y="0" type="line"/>
      <point x="62" y="0" type="line"/>
    </contour>
  </outline>
</glyph>
<glyph name="dotlessj" format="2">
  <advance width="500"/>
  <unicode hex="0237"/>
  <anchor x="353" y="496" name="top"/>
  <outline>
    <contour>
      <point x="93" y="-93" type="line"/>
      <point x="124" y="-93" type="line"/>
      <point x="124" y="-124" type="line"/>
      <point x="155" y="-124" type="line"/>
      <point x="155" y="-155" type="line"/>
      <point x="341" y="-155" type="line"/>
      <point x="341" y="-124" type="line"/>
      <point x="372" y="-124" type="line"/>
      <point x="372" y="-93" type="line"/>
      <point x="403" y="-93" type="line"/>
      <point x="403" y="434" type="line"/>
      <point x="279" y="434" type="line"/>
      <point x="279" y="372" type="line"/>
      <point x="341" y="372" type="line"/>
      <point x="341" y="-93" type="line"/>
      <point x="155" y="-93" type="line"/>
      <point x="155" y="0" type="line"/>
      <point x="93" y="0" type="line"/>
    </contour>
  </outline>
  <guideline angle="90" x="341" y="0"/>
  <guideline angle="90" x="403" y="0"/>
  <guideline angle="90" x="372" y="0"/>
  <guideline angle="0" x="0" y="496"/>
</glyph>
<glyph name="circumflex" format="2">
  <advance width="500"/>
  <unicode hex="02C6"/>
  <outline>
    <contour>
      <point x="124" y="526.792" type="line"/>
      <point x="186" y="526.792" type="line"/>
      <point x="186" y="557.792" type="line"/>
      <point x="217" y="557.792" type="line"/>
      <point x="217" y="588.792" type="line"/>
      <point x="279" y="588.792" type="line"/>
      <point x="279" y="557.792" type="line"/>
      <point x="310" y="557.792" type="line"/>
      <point x="310" y="526.792" type="line"/>
      <point x="372" y="526.792" type="line"/>
      <point x="372" y="557.792" type="line"/>
      <point x="341" y="557.792" type="line"/>
      <point x="341" y="588.792" type="line"/>
      <point x="310" y="588.792" type="line"/>
      <point x="310" y="619.792" type="line"/>
      <point x="279" y="619.792" type="line"/>
      <point x="279" y="650.792" type="line"/>
      <point x="217" y="650.792" type="line"/>
      <point x="217" y="619.792" type="line"/>
      <point x="186" y="619.792" type="line"/>
      <point x="186" y="588.792" type="line"/>
      <point x="155" y="588.792" type="line"/>
      <point x="155" y="557.792" type="line"/>
      <point x="124" y="557.792" type="line"/>
    </contour>
  </outline>
  <guideline angle="0" x="0" y="527"/>
</glyph>
<glyph name="breve" format="2">
  <advance width="500"/>
  <unicode hex="02D8"/>
  <outline>
    <contour>
      <point x="155" y="557.913" type="line"/>
      <point x="186" y="557.913" type="line"/>
      <point x="186" y="526.913" type="line"/>
      <point x="310" y="526.913" type="line"/>
      <point x="310" y="557.913" type="line"/>
      <point x="341" y="557.913" type="line"/>
      <point x="341" y="588.913" type="line"/>
      <point x="372" y="588.913" type="line"/>
      <point x="372" y="650.913" type="line"/>
      <point x="310" y="650.913" type="line"/>
      <point x="310" y="588.913" type="line"/>
      <point x="186" y="588.913" type="line"/>
      <point x="186" y="650.913" type="line"/>
      <point x="124" y="650.913" type="line"/>
      <point x="124" y="588.913" type="line"/>
      <point x="155" y="588.913" type="line"/>
    </contour>
  </outline>
  <guideline angle="0" x="0" y="527"/>
</glyph>
<glyph name="ring" format="2">
  <advance width="500"/>
  <unicode hex="02DA"/>
  <outline>
    <contour>
      <point x="157" y="558" type="line"/>
      <point x="188" y="558" type="line"/>
      <point x="188" y="527" type="line"/>
      <point x="312" y="527" type="line"/>
      <point x="312" y="558" type="line"/>
      <point x="343" y="558" type="line"/>
      <point x="343" y="651" type="line"/>
      <point x="312" y="651" type="line"/>
      <point x="312" y="682" type="line"/>
      <point x="188" y="682" type="line"/>
      <point x="188" y="651" type="line"/>
      <point x="157" y="651" type="line"/>
    </contour>
    <contour>
      <point x="219" y="558" type="line"/>
      <point x="219" y="651" type="line"/>
      <point x="281" y="651" type="line"/>
      <point x="281" y="558" type="line"/>
    </contour>
  </outline>
  <guideline angle="0" x="0" y="527"/>
</glyph>
<glyph name="ogonek" format="2">
  <advance width="500"/>
  <unicode hex="02DB"/>
  <outline>
    <contour>
      <point x="173" y="-124" type="line"/>
      <point x="204" y="-124" type="line"/>
      <point x="204" y="-155" type="line"/>
      <point x="328" y="-155" type="line"/>
      <point x="328" y="-93" type="line"/>
      <point x="235" y="-93" type="line"/>
      <point x="235" y="-62" type="line"/>
      <point x="266" y="-62" type="line"/>
      <point x="266" y="-31" type="line"/>
      <point x="328" y="-31" type="line"/>
      <point x="328" y="0" type="line"/>
      <point x="204" y="0" type="line"/>
      <point x="204" y="-31" type="line"/>
      <point x="173" y="-31" type="line"/>
    </contour>
  </outline>
</glyph>
<glyph name="tilde" format="2">
  <advance width="500"/>
  <unicode hex="02DC"/>
  <outline>
    <contour>
      <point x="93" y="527" type="line"/>
      <point x="155" y="527" type="line"/>
      <point x="155" y="620" type="line"/>
      <point x="217" y="620" type="line"/>
      <point x="217" y="558" type="line"/>
      <point x="248" y="558" type="line"/>
      <point x="248" y="527" type="line"/>
      <point x="372" y="527" type="line"/>
      <point x="372" y="558" type="line"/>
      <point x="403" y="558" type="line"/>
      <point x="403" y="651" type="line"/>
      <point x="341" y="651" type="line"/>
      <point x="341" y="558" type="line"/>
      <point x="279" y="558" type="line"/>
      <point x="279" y="620" type="line"/>
      <point x="248" y="620" type="line"/>
      <point x="248" y="651" type="line"/>
      <point x="124" y="651" type="line"/>
      <point x="124" y="620" type="line"/>
      <point x="93" y="620" type="line"/>
    </contour>
  </outline>
  <guideline angle="0" x="0" y="527"/>
</glyph>
<glyph name="hungarumlaut" format="2">
  <advance width="500"/>
  <unicode hex="02DD"/>
  <outline>
    <contour>
      <point x="93" y="527" type="line"/>
      <point x="186" y="527" type="line"/>
      <point x="186" y="558" type="line"/>
      <point x="217" y="558" type="line"/>
      <point x="217" y="589" type="line"/>
      <point x="248" y="589" type="line"/>
      <point x="248" y="620" type="line"/>
      <point x="279" y="620" type="line"/>
      <point x="279" y="651" type="line"/>
      <point x="186" y="651" type="line"/>
      <point x="186" y="620" type="line"/>
      <point x="155" y="620" type="line"/>
      <point x="155" y="589" type="line"/>
      <point x="124" y="589" type="line"/>
      <point x="124" y="558" type="line"/>
      <point x="93" y="558" type="line"/>
    </contour>
    <contour>
      <point x="279" y="527" type="line"/>
      <point x="372" y="527" type="line"/>
      <point x="372" y="558" type="line"/>
      <point x="403" y="558" type="line"/>
      <point x="403" y="589" type="line"/>
      <point x="434" y="589" type="line"/>
      <point x="434" y="620" type="line"/>
      <point x="465" y="620" type="line"/>
      <point x="465" y="651" type="line"/>
      <point x="372" y="651" type="line"/>
      <point x="372" y="620" type="line"/>
      <point x="341" y="620" type="line"/>
      <point x="341" y="589" type="line"/>
      <point x="310" y="589" type="line"/>
      <point x="310" y="558" type="line"/>
      <point x="279" y="558" type="line"/>
    </contour>
  </outline>
  <guideline angle="0" x="0" y="527"/>
</glyph>
<glyph name="uni0305" format="2">
  <unicode hex="0305"/>
  <anchor x="0" y="527" name="_top"/>
  <outline>
    <contour>
      <point x="-250.28" y="527" type="line"/>
      <point x="249.72" y="527" type="line"/>
      <point x="249.72" y="589" type="line"/>
      <point x="-250.28" y="589" type="line"/>
    </contour>
  </outline>
  <guideline angle="0" x="0" y="527"/>
</glyph>
<glyph name="uni0326" format="2">
  <unicode hex="0326"/>
  <anchor x="0" y="-31" name="_bottom"/>
  <outline>
    <contour>
      <point x="-93.4947" y="-186" type="line"/>
      <point x="-31.4947" y="-186" type="line"/>
      <point x="-31.4947" y="-155" type="line"/>
      <point x="-0.494667" y="-155" type="line"/>
      <point x="-0.494667" y="-124" type="line"/>
      <point x="30.5053" y="-124" type="line"/>
      <point x="30.5053" y="-31" type="line"/>
      <point x="-31.4947" y="-31" type="line"/>
      <point x="-31.4947" y="-124" type="line"/>
      <point x="-62.4947" y="-124" type="line"/>
      <point x="-62.4947" y="-155" type="line"/>
      <point x="-93.4947" y="-155" type="line"/>
    </contour>
  </outline>
</glyph>
<glyph name="Gamma" format="2">
  <advance width="500"/>
  <unicode hex="0393"/>
  <outline>
    <contour>
      <point x="62" y="0" type="line"/>
      <point x="124" y="0" type="line"/>
      <point x="124" y="558" type="line"/>
      <point x="372" y="558" type="line"/>
      <point x="372" y="465" type="line"/>
      <point x="434" y="465" type="line"/>
      <point x="434" y="620" type="line"/>
      <point x="62" y="620" type="line"/>
    </contour>
  </outline>
</glyph>
<glyph name="Theta" format="2">
  <advance width="500"/>
  <unicode hex="0398"/>
  <outline>
    <contour>
      <point x="93" y="93" type="line"/>
      <point x="124" y="93" type="line"/>
      <point x="124" y="62" type="line"/>
      <point x="155" y="62" type="line"/>
      <point x="155" y="31" type="line"/>
      <point x="186" y="31" type="line"/>
      <point x="186" y="0" type="line"/>
      <point x="310" y="0" type="line"/>
      <point x="310" y="31" type="line"/>
      <point x="341" y="31" type="line"/>
      <point x="341" y="62" type="line"/>
      <point x="372" y="62" type="line"/>
      <point x="372" y="93" type="line"/>
      <point x="403" y="93" type="line"/>
      <point x="403" y="527" type="line"/>
      <point x="372" y="527" type="line"/>
      <point x="372" y="558" type="line"/>
      <point x="341" y="558" type="line"/>
      <point x="341" y="589" type="line"/>
      <point x="310" y="589" type="line"/>
      <point x="310" y="620" type="line"/>
      <point x="186" y="620" type="line"/>
      <point x="186" y="589" type="line"/>
      <point x="155" y="589" type="line"/>
      <point x="155" y="558" type="line"/>
      <point x="124" y="558" type="line"/>
      <point x="124" y="527" type="line"/>
      <point x="93" y="527" type="line"/>
    </contour>
    <contour>
      <point x="155" y="341" type="line"/>
      <point x="155" y="527" type="line"/>
      <point x="186" y="527" type="line"/>
      <point x="186" y="558" type="line"/>
      <point x="310" y="558" type="line"/>
      <point x="310" y="527" type="line"/>
      <point x="341" y="527" type="line"/>
      <point x="341" y="341" type="line"/>
    </contour>
    <contour>
      <point x="155" y="93" type="line"/>
      <point x="155" y="279" type="line"/>
      <point x="341" y="279" type="line"/>
      <point x="341" y="93" type="line"/>
      <point x="310" y="93" type="line"/>
      <point x="310" y="62" type="line"/>
      <point x="186" y="62" type="line"/>
      <point x="186" y="93" type="line"/>
    </contour>
  </outline>
</glyph>
<glyph name="Sigma" format="2">
  <advance width="500"/>
  <unicode hex="03A3"/>
  <outline>
    <contour>
      <point x="62" y="0" type="line"/>
      <point x="434" y="0" type="line"/>
      <point x="434" y="62" type="line"/>
      <point x="155" y="62" type="line"/>
      <point x="155" y="93" type="line"/>
      <point x="186" y="93" type="line"/>
      <point x="186" y="124" type="line"/>
      <point x="217" y="124" type="line"/>
      <point x="217" y="155" type="line"/>
      <point x="248" y="155" type="line"/>
      <point x="248" y="186" type="line"/>
      <point x="279" y="186" type="line"/>
      <point x="279" y="217" type="line"/>
      <point x="310" y="217" type="line"/>
      <point x="310" y="248" type="line"/>
      <point x="341" y="248" type="line"/>
      <point x="341" y="279" type="line"/>
      <point x="372" y="279" type="line"/>
      <point x="372" y="341" type="line"/>
      <point x="341" y="341" type="line"/>
      <point x="341" y="372" type="line"/>
      <point x="310" y="372" type="line"/>
      <point x="310" y="403" type="line"/>
      <point x="279" y="403" type="line"/>
      <point x="279" y="434" type="line"/>
      <point x="248" y="434" type="line"/>
      <point x="248" y="465" type="line"/>
      <point x="217" y="465" type="line"/>
      <point x="217" y="496" type="line"/>
      <point x="186" y="496" type="line"/>
      <point x="186" y="527" type="line"/>
      <point x="155" y="527" type="line"/>
      <point x="155" y="558" type="line"/>
      <point x="434" y="558" type="line"/>
      <point x="434" y="620" type="line"/>
      <point x="62" y="620" type="line"/>
      <point x="62" y="558" type="line"/>
      <point x="93" y="558" type="line"/>
      <point x="93" y="527" type="line"/>
      <point x="124" y="527" type="line"/>
      <point x="124" y="496" type="line"/>
      <point x="155" y="496" type="line"/>
      <point x="155" y="465" type="line"/>
      <point x="186" y="465" type="line"/>
      <point x="186" y="434" type="line"/>
      <point x="217" y="434" type="line"/>
      <point x="217" y="403" type="line"/>
      <point x="248" y="403" type="line"/>
      <point x="248" y="372" type="line"/>
      <point x="279" y="372" type="line"/>
      <point x="279" y="341" type="line"/>
      <point x="310" y="341" type="line"/>
      <point x="310" y="279" type="line"/>
      <point x="279" y="279" type="line"/>
      <point x="279" y="248" type="line"/>
      <point x="248" y="248" type="line"/>
      <point x="248" y="217" type="line"/>
      <point x="217" y="217" type="line"/>
      <point x="217" y="186" type="line"/>
      <point x="186" y="186" type="line"/>
      <point x="186" y="155" type="line"/>
      <point x="155" y="155" type="line"/>
      <point x="155" y="124" type="line"/>
      <point x="124" y="124" type="line"/>
      <point x="124" y="93" type="line"/>
      <point x="93" y="93" type="line"/>
      <point x="93" y="62" type="line"/>
      <point x="62" y="62" type="line"/>
    </contour>
  </outline>
</glyph>
<glyph name="Phi" format="2">
  <advance width="500"/>
  <unicode hex="03A6"/>
  <outline>
    <contour>
      <point x="93" y="0" type="line"/>
      <point x="403" y="0" type="line"/>
      <point x="403" y="62" type="line"/>
      <point x="279" y="62" type="line"/>
      <point x="279" y="93" type="line"/>
      <point x="372" y="93" type="line"/>
      <point x="372" y="124" type="line"/>
      <point x="403" y="124" type="line"/>
      <point x="403" y="155" type="line"/>
      <point x="434" y="155" type="line"/>
      <point x="434" y="465" type="line"/>
      <point x="403" y="465" type="line"/>
      <point x="403" y="496" type="line"/>
      <point x="372" y="496" type="line"/>
      <point x="372" y="527" type="line"/>
      <point x="279" y="527" type="line"/>
      <point x="279" y="558" type="line"/>
      <point x="403" y="558" type="line"/>
      <point x="403" y="620" type="line"/>
      <point x="93" y="620" type="line"/>
      <point x="93" y="558" type="line"/>
      <point x="217" y="558" type="line"/>
      <point x="217" y="527" type="line"/>
      <point x="124" y="527" type="line"/>
      <point x="124" y="496" type="line"/>
      <point x="93" y="496" type="line"/>
      <point x="93" y="465" type="line"/>
      <point x="62" y="465" type="line"/>
      <point x="62" y="155" type="line"/>
      <point x="93" y="155" type="line"/>
      <point x="93" y="124" type="line"/>
      <point x="124" y="124" type="line"/>
      <point x="124" y="93" type="line"/>
      <point x="217" y="93" type="line"/>
      <point x="217" y="62" type="line"/>
      <point x="93" y="62" type="line"/>
    </contour>
    <contour>
      <point x="124" y="155" type="line"/>
      <point x="124" y="465" type="line"/>
      <point x="217" y="465" type="line"/>
      <point x="217" y="155" type="line"/>
    </contour>
    <contour>
      <point x="279" y="155" type="line"/>
      <point x="279" y="465" type="line"/>
      <point x="372" y="465" type="line"/>
      <point x="372" y="155" type="line"/>
    </contour>
  </outline>
</glyph>
<glyph name="uni03A9" format="2">
  <advance width="500"/>
  <unicode hex="03A9"/>
  <outline>
    <contour>
      <point x="62" y="0" type="line"/>
      <point x="217" y="0" type="line"/>
      <point x="217" y="279" type="line"/>
      <point x="186" y="279" type="line"/>
      <point x="186" y="310" type="line"/>
      <point x="155" y="310" type="line"/>
      <point x="155" y="341" type="line"/>
      <point x="124" y="341" type="line"/>
      <point x="124" y="558" type="line"/>
      <point x="372" y="558" type="line"/>
      <point x="372" y="341" type="line"/>
      <point x="341" y="341" type="line"/>
      <point x="341" y="310" type="line"/>
      <point x="310" y="310" type="line"/>
      <point x="310" y="279" type="line"/>
      <point x="279" y="279" type="line"/>
      <point x="279" y="0" type="line"/>
      <point x="434" y="0" type="line"/>
      <point x="434" y="62" type="line"/>
      <point x="341" y="62" type="line"/>
      <point x="341" y="279" type="line"/>
      <point x="372" y="279" type="line"/>
      <point x="372" y="310" type="line"/>
      <point x="403" y="310" type="line"/>
      <point x="403" y="341" type="line"/>
      <point x="434" y="341" type="line"/>
      <point x="434" y="558" type="line"/>
      <point x="403" y="558" type="line"/>
      <point x="403" y="589" type="line"/>
      <point x="372" y="589" type="line"/>
      <point x="372" y="620" type="line"/>
      <point x="124" y="620" type="line"/>
      <point x="124" y="589" type="line"/>
      <point x="93" y="589" type="line"/>
      <point x="93" y="558" type="line"/>
      <point x="62" y="558" type="line"/>
      <point x="62" y="341" type="line"/>
      <point x="93" y="341" type="line"/>
      <point x="93" y="310" type="line"/>
      <point x="124" y="310" type="line"/>
      <point x="124" y="279" type="line"/>
      <point x="155" y="279" type="line"/>
      <point x="155" y="62" type="line"/>
      <point x="62" y="62" type="line"/>
    </contour>
  </outline>
</glyph>
<glyph name="alpha" format="2">
  <advance width="500"/>
  <unicode hex="03B1"/>
  <outline>
    <contour>
      <point x="31" y="62" type="line"/>
      <point x="62" y="62" type="line"/>
      <point x="62" y="31" type="line"/>
      <point x="93" y="31" type="line"/>
      <point x="93" y="0" type="line"/>
      <point x="310" y="0" type="line"/>
      <point x="310" y="31" type="line"/>
      <point x="372" y="31" type="line"/>
      <point x="372" y="0" type="line"/>
      <point x="434" y="0" type="line"/>
      <point x="434" y="62" type="line"/>
      <point x="403" y="62" type="line"/>
      <point x="403" y="93" type="line"/>
      <point x="372" y="93" type="line"/>
      <point x="372" y="341" type="line"/>
      <point x="403" y="341" type="line"/>
      <point x="403" y="372" type="line"/>
      <point x="434" y="372" type="line"/>
      <point x="434" y="434" type="line"/>
      <point x="372" y="434" type="line"/>
      <point x="372" y="403" type="line"/>
      <point x="310" y="403" type="line"/>
      <point x="310" y="434" type="line"/>
      <point x="93" y="434" type="line"/>
      <point x="93" y="403" type="line"/>
      <point x="62" y="403" type="line"/>
      <point x="62" y="372" type="line"/>
      <point x="31" y="372" type="line"/>
    </contour>
    <contour>
      <point x="93" y="62" type="line"/>
      <point x="93" y="372" type="line"/>
      <point x="310" y="372" type="line"/>
      <point x="310" y="62" type="line"/>
    </contour>
  </outline>
</glyph>
<glyph name="beta" format="2">
  <advance width="500"/>
  <unicode hex="03B2"/>
  <outline>
    <contour>
      <point x="62" y="-155" type="line"/>
      <point x="124" y="-155" type="line"/>
      <point x="124" y="0" type="line"/>
      <point x="372" y="0" type="line"/>
      <point x="372" y="31" type="line"/>
      <point x="403" y="31" type="line"/>
      <point x="403" y="62" type="line"/>
      <point x="434" y="62" type="line"/>
      <point x="434" y="248" type="line"/>
      <point x="403" y="248" type="line"/>
      <point x="403" y="279" type="line"/>
      <point x="372" y="279" type="line"/>
      <point x="372" y="372" type="line"/>
      <point x="403" y="372" type="line"/>
      <point x="403" y="496" type="line"/>
      <point x="372" y="496" type="line"/>
      <point x="372" y="527" type="line"/>
      <point x="341" y="527" type="line"/>
      <point x="341" y="558" type="line"/>
      <point x="93" y="558" type="line"/>
      <point x="93" y="527" type="line"/>
      <point x="62" y="527" type="line"/>
    </contour>
    <contour>
      <point x="124" y="341" type="line"/>
      <point x="124" y="496" type="line"/>
      <point x="341" y="496" type="line"/>
      <point x="341" y="372" type="line"/>
      <point x="310" y="372" type="line"/>
      <point x="310" y="341" type="line"/>
    </contour>
    <contour>
      <point x="124" y="62" type="line"/>
      <point x="124" y="279" type="line"/>
      <point x="341" y="279" type="line"/>
      <point x="341" y="248" type="line"/>
      <point x="372" y="248" type="line"/>
      <point x="372" y="62" type="line"/>
    </contour>
  </outline>
</glyph>
<glyph name="pi" format="2">
  <advance width="500"/>
  <unicode hex="03C0"/>
  <outline>
    <contour>
      <point x="62" y="0" type="line"/>
      <point x="124" y="0" type="line"/>
      <point x="124" y="372" type="line"/>
      <point x="341" y="372" type="line"/>
      <point x="341" y="0" type="line"/>
      <point x="403" y="0" type="line"/>
      <point x="403" y="372" type="line"/>
      <point x="434" y="372" type="line"/>
      <point x="434" y="434" type="line"/>
      <point x="31" y="434" type="line"/>
      <point x="31" y="372" type="line"/>
      <point x="62" y="372" type="line"/>
    </contour>
  </outline>
</glyph>
